<?xml version="1.0" standalone="no"?>
<!DOCTYPE svg PUBLIC "-//W3C//DTD SVG 1.1//EN" "http://www.w3.org/Graphics/SVG/1.1/DTD/svg11.dtd" >
<svg xmlns="http://www.w3.org/2000/svg">
<metadata>Generated by IcoMoon</metadata>
<defs>
<font id="icomoon" horiz-adv-x="1024">
<font-face units-per-em="1024" ascent="960" descent="-64" />
<missing-glyph horiz-adv-x="1024" />
<glyph unicode="&#x20;" horiz-adv-x="512" d="" />
<glyph unicode="&#xe900;" glyph-name="disk" d="M931.285 281.6c3.243-8.192-1.365-14.891-10.155-14.933l-820.181-0.341c-8.789 0-13.397 6.741-10.24 14.933l207.659 539.136c3.157 8.192 12.971 15.573 21.76 15.573h377.557c8.789 0 18.645-7.381 21.845-15.573l211.755-538.837zM123.989 221.099c-22.016 0-40.021-18.005-40.021-40.021v-95.275c0-22.016 18.005-40.021 40.021-40.021h776.021c22.016 0 40.021 18.005 40.021 40.021v95.275c0 22.016-18.005 40.021-40.021 40.021h-776.021zM846.507 105.984c-13.568 0-24.619 11.904-24.619 26.539s11.008 26.539 24.619 26.539 24.619-11.904 24.619-26.539c0-14.635-11.008-26.539-24.619-26.539z" />
<glyph unicode="&#xe901;" glyph-name="done" d="M864 832l-480-480-224 224-160-160 384-384 640 640z" />
<glyph unicode="&#xe902;" glyph-name="edit" d="M864 960c88.363 0 160-71.637 160-160 0-36.011-11.904-69.248-32-96l-64-64-224 224 64 64c26.752 20.096 59.989 32 96 32zM64 224l-64-288 288 64 592 592-224 224-592-592zM715.563 596.437l-448-448-55.168 55.168 448 448 55.168-55.168z" />
<glyph unicode="&#xe903;" glyph-name="feedback" d="M334.208 560.469c29.44 0 53.333-23.851 53.333-53.333s-23.851-53.333-53.333-53.333-53.333 23.851-53.333 53.333c0 29.483 23.851 53.333 53.333 53.333zM512 560.469c29.44 0 53.333-23.851 53.333-53.333s-23.893-53.333-53.333-53.333c-29.44 0-53.333 23.851-53.333 53.333s23.851 53.333 53.333 53.333zM689.792 560.469c29.44 0 53.333-23.851 53.333-53.333s-23.893-53.333-53.333-53.333-53.333 23.851-53.333 53.333c0 29.483 23.893 53.333 53.333 53.333zM814.251 844.885h-604.501c-58.795 0-106.667-47.872-106.667-106.667v-426.709c6.059-77.611 128.256-71.125 128.256-71.125l-13.568-177.365 311.979 177.365h284.459c58.795 0 106.667 47.829 106.667 106.709v391.125c0 58.837-47.829 106.667-106.667 106.667zM849.792 347.093c0-19.584-15.957-35.541-35.541-35.541h-320l-205.355-141.781 32.597 141.781h-111.701c-19.584 0-35.541 15.957-35.541 35.541v391.125c0 19.584 15.957 35.541 35.541 35.541h604.501c19.584 0 35.541-15.957 35.541-35.541v-391.125z" />
<glyph unicode="&#xe904;" glyph-name="filemanager" d="M907.435 590.421h-790.912c-40.149 0-42.155-21.376-39.979-47.488l36.011-429.483c2.176-26.112 7.851-47.488 47.915-47.488h703.019c40.875 0 45.739 21.376 47.915 47.445l36.011 429.483c2.219 26.112 0.213 47.488-39.936 47.488zM878.421 695.339c-4.821 20.992-28.544 38.144-52.736 38.144h-297.131c-24.149 0-57.941 15.147-75.051 33.621l-25.984 28.075c-17.109 18.517-50.859 33.621-75.051 33.621h-141.952c-24.149 0-46.123-21.333-48.768-47.403l-12.715-124.245h738.176l-8.789 38.144z" />
<glyph unicode="&#xe905;" glyph-name="firewall" d="M43.989 635.989h344.021v-112h-344.021v112zM43.989 491.989h184.021v-120.021h-184.021v120.021zM43.989 343.979h304v-120.021h-304v120.021zM43.989 187.989h219.989v-112h-219.989v112zM248.021 491.989v-120.021h172.245c1.365 40.021 9.387 80 22.997 120.021h-195.243zM546.731 635.989h-142.72v-112h51.627c22.016 40.021 53.205 80 91.051 112zM363.989 343.979v-120.021h80.512c-13.995 40.021-22.4 80-24.192 120.021h-56.32zM459.776 187.989h-167.765v-112h265.472c-40.277 32-73.813 68.011-97.707 112zM966.571 321.323c-22.4 117.675-94.080 142.251-190.379 257.451s-38.955 242.773-38.955 242.773-205.227-201.088-223.104-426.709c-17.92-225.579 102.656-348.288 244.139-340.864s230.699 149.589 208.299 267.307zM748.757 56.277c-62.891-3.285-116.437 51.2-108.501 151.467s99.115 189.568 99.115 189.568-25.515-56.661 17.323-107.861c42.795-51.2 74.624-62.123 84.565-114.389s-29.696-115.456-92.544-118.741z" />
<glyph unicode="&#xe906;" glyph-name="firewall2" d="M120.021 484.011h248.021v-100.011h-248.021v100.011zM379.989 484.011h251.989v-100.011h-251.989v100.011zM644.011 484.011h272v-100.011h-272v100.011zM596.011 363.989h283.989v-107.989h-283.989v107.989zM251.989 363.989h331.989v-107.989h-331.989v107.989zM91.989 363.989h148.011v-107.989h-148.011v107.989zM464 235.989h480v-100.011h-480v100.011zM56.021 235.989h395.989v-100.011h-395.989v100.011zM75.989 116.011h292.011v-104.021h-292.011v104.021zM379.989 116.011h251.989v-104.021h-251.989v104.021zM644.011 116.011h280.021v-104.021h-280.021v104.021zM620.331 484.011c4.693 10.411 12.203 19.669 12.757 21.12 0.853 2.304 0.853 10.923 0.597 13.483s-11.776 9.472-14.635 9.771-4.309-4.565-8.32-4.864c-4.011-0.299-21.547 10.624-25.259 13.483s-5.461 9.771-10.624 14.891-5.76 1.152-13.781 4.309-33.877 12.629-53.675 20.693c-19.797 8.021-21.547 19.285-21.845 27.264s-12.075 19.499-17.579 27.819c-5.504 8.32-6.528 19.797-8.533 17.237s10.325-32.725 8.32-33.621c-2.005-0.853-6.315 8.32-12.075 15.787s6.016 3.456-12.331 39.595 5.76 54.613 6.869 73.515 15.531-6.869 8.021 5.205 0.597 37.333-5.205 46.549-38.443-10.325-38.443-10.325c0.853 8.917 28.715 24.149 48.811 38.187s32.384 3.157 48.512-2.005c16.171-5.163 17.195-3.456 11.776 1.749s2.304 7.723 14.933 5.717 16.085-17.237 35.328-15.787c19.243 1.451 2.005-3.755 4.565-8.619s-2.901-4.309-15.488-12.928 0.299-8.619 22.699-25.003 15.531 10.923 13.227 22.955 16.341 2.603 16.341 2.603c13.781-9.173 11.221-0.512 21.291-3.669s37.291-26.197 37.291-26.197c-34.176-18.645-12.629-20.651-6.869-25.003s-11.776-12.629-11.776-12.629c-7.168 7.168-8.32-0.299-12.928-2.859s-0.299-9.173-0.299-9.173c-23.723-3.755-18.389-28.715-18.091-34.731s-15.232-15.232-19.243-23.851 10.325-27.264 2.901-28.416-14.933 28.117-55.125 17.237c-12.117-3.285-39.040-17.237-24.704-45.653s38.187 8.021 46.251 4.011-2.304-22.101-0.597-22.4c1.707-0.299 22.699-0.811 23.851-25.259s31.872-22.4 38.485-22.997 28.715 18.091 31.872 18.944c3.157 0.853 15.787 11.477 43.349-4.309s41.643-13.525 51.115-20.096 2.859-19.797 11.776-24.149c8.875-4.309 44.501 1.451 53.419-13.227 0.725-1.152 1.024-2.645 1.109-4.437h48.981c8.32 27.179 12.843 56.064 12.843 86.016 0 162.389-131.627 294.016-294.016 294.016s-294.016-131.627-294.016-294.016c0-29.909 4.523-58.795 12.8-86.016h305.493zM664.875 588.117c-4.053-1.152-12.331-8.619-32.725 3.456s-34.475 9.771-36.181 11.776c0 0-1.707 4.864 7.168 5.717 18.261 1.749 41.344-16.939 46.507-17.237s7.765 5.205 16.939 2.219c9.173-2.944 2.304-4.821-1.707-5.931zM620.117 797.397c-7.168 0.299-24.064 2.091-20.949 5.163 12.117 12.075-4.565 15.488-14.891 16.341s-14.635 6.613-9.472 7.168 25.856-0.299 29.269-3.157 22.101-10.325 23.253-15.787 0-10.069-7.168-9.771zM604.587 852.779c7.765 6.869 29.568-2.304 42.197-3.755s27.264-11.221 27.563-22.827c0.299-11.605 13.781-22.272 8.021-26.88s-34.603 16.469-40.192 21.248c-24.149 20.693-37.035 13.781-42.112 17.237s-3.243 8.021 4.48 14.933zM572.587 840.747c1.237 1.664 0.341 4.437 1.877 6.016 4.309 4.309 25.557 10.325 21.419-1.451s-24.021-12.928-27.136-10.624c-2.005 1.451 1.664 3.115 3.84 6.016z" />
<glyph unicode="&#xe908;" glyph-name="house" d="M937.557 405.547l-387.499 437.504c-19.797 23.253-52.224 23.083-72.021-0.171l-387.541-437.248c-19.84-23.211-12.459-41.643 16.427-41.643h81.109v-337.621c0-0.341 0-0.981 0-2.389h222.72c-6.869 27.221-10.709 57.301-10.709 89.003 0 120.96 55.509 219.008 123.989 219.008s123.989-98.048 123.989-219.008c0-31.701-3.84-61.781-10.709-89.003h202.709c0 1.365 0 2.048 0 2.389 0 0.171 0 0.256 0 0.256v337.365h81.109c28.843 0 36.309 18.304 16.469 41.515z" />
<glyph unicode="&#xe909;" glyph-name="import" d="M512 855.979l-229.803-238.848h145.835v-250.581h167.936v250.581h145.877l-229.845 238.848zM924.757 291.115l-140.715 104.832h-86.741l150.229-127.616h-156.629c-4.523 0-8.533-2.56-10.624-6.528l-36.053-109.397h-264.448l-36.096 109.397c-1.963 3.968-6.101 6.528-10.624 6.528h-156.587l150.315 127.616h-86.784l-140.672-104.832c-20.949-13.867-33.493-45.781-27.861-70.912l24.789-150.443c5.632-25.173 30.549-45.739 55.296-45.739h720.939c24.832 0 49.749 20.608 55.339 45.739l24.789 150.443c5.717 25.173-6.827 57.045-27.819 70.912z" />
<glyph unicode="&#xe90a;" glyph-name="ippool" d="M838.272 404.011h-656.555c-42.539 0-76.971-33.451-76.971-75.989s34.475-75.989 76.971-75.989h656.555c42.496 0 76.971 33.493 76.971 75.989s-34.475 75.989-77.013 75.989zM810.24 297.045c-16.469 0-29.781 13.355-29.781 29.781s13.355 29.781 29.781 29.781c16.427 0 29.781-13.355 29.781-29.781s-13.355-29.781-29.781-29.781zM838.272 631.979h-656.555c-42.539 0-76.971-35.499-76.971-78.037s34.475-78.037 76.971-78.037h656.555c42.496 0 76.971 35.499 76.971 78.037s-34.475 78.037-77.013 78.037zM810.24 523.435c-16.469 0-29.781 13.355-29.781 29.781s13.355 29.781 29.781 29.781c16.427 0 29.781-13.355 29.781-29.781s-13.355-29.781-29.781-29.781zM488.021 192h52.011v-104.021h-52.011v104.021zM612.011 35.072c0-8.32-6.741-15.061-15.061-15.061h-165.845c-8.32 0-15.061 6.741-15.061 15.061v65.877c0 8.32 6.741 15.061 15.061 15.061h165.845c8.32 0 15.061-6.741 15.061-15.061v-65.877zM838.272 855.979h-656.555c-42.539 0-76.971-33.493-76.971-75.989s34.475-75.989 76.971-75.989h656.555c42.496 0 76.971 33.493 76.971 75.989s-34.475 75.989-77.013 75.989zM810.24 749.824c-16.469 0-29.781 13.355-29.781 29.781s13.355 29.781 29.781 29.781c16.427 0 29.781-13.355 29.781-29.781s-13.355-29.781-29.781-29.781zM376.021 39.979h-289.365c-11.264 0-22.613 11.563-22.613 23.595v1.707c0 12.032 11.392 22.699 22.613 22.699h289.365zM648.021 39.979h287.787c11.179 0 20.224 11.563 20.224 23.595v1.707c0 12.032-9.045 22.699-20.224 22.699h-287.787z" />
<glyph unicode="&#xe90b;" glyph-name="logout" d="M568.533 127.104h-382.421v665.771h382.336v-142.677h94.165v142.677c0 52.309-42.752 95.104-95.104 95.104h-380.459c-52.309 0-95.104-42.795-95.104-95.104v-665.771c0-52.309 42.795-95.104 95.104-95.104h380.459c52.395 0 95.104 42.795 95.104 95.104v95.104h-94.123v-95.104zM948.011 436.224l-189.227 185.472v-114.091l-427.989-24.917v-93.355l427.989-24.448v-114.091l189.227 185.472z" />
<glyph unicode="&#xe90c;" glyph-name="logs" d="M69.333 79.915c0-40.661 32.981-73.6 73.643-73.6h736.213c40.661 0 73.643 32.939 73.643 73.6v644.181c0 40.661-32.939 73.6-73.643 73.6h-73.6v46.037c0 25.387-20.608 45.995-45.995 45.995s-46.037-20.608-46.037-45.995v-46.037h-73.6v46.037c0 25.387-20.608 45.995-46.037 45.995s-45.995-20.608-45.995-45.995v-46.037h-73.6v46.037c0 25.387-20.608 45.995-46.037 45.995s-46.037-20.608-46.037-45.995v-46.037h-73.643v46.037c0 25.387-20.608 45.995-46.037 45.995s-46.037-20.608-46.037-45.995v-46.037h-73.643c-40.661 0-73.643-32.939-73.643-73.6v-644.181zM201.856 705.664h14.72v-64.427c0-25.387 20.608-46.037 46.037-46.037s46.037 20.608 46.037 46.037v64.427h73.643v-64.427c0-25.387 20.608-46.037 46.037-46.037s46.037 20.608 46.037 46.037v64.427h73.6v-64.427c0-25.387 20.608-46.037 46.037-46.037s45.995 20.608 45.995 46.037v64.427h73.6v-64.427c0-25.387 20.608-46.037 45.995-46.037s45.995 20.608 45.995 46.037v64.427h14.72c22.443 0 40.491-18.048 40.491-40.491v-195.072c0-22.485-18.048-40.491-40.491-40.491h-618.411c-22.485 0-40.533 18.048-40.533 40.491v195.072c0 22.485 18.048 40.533 40.533 40.533z" />
<glyph unicode="&#xe90d;" glyph-name="notes" d="M928 832h-288c0 70.699-57.301 128-128 128s-128-57.301-128-128h-288c-17.664 0-32-14.336-32-32v-832c0-17.664 14.336-32 32-32h832c17.664 0 32 14.336 32 32v832c0 17.664-14.336 32-32 32zM512 896c35.328 0 64-28.672 64-64s-28.672-64-64-64c-35.328 0-64 28.672-64 64s28.672 64 64 64zM896 0h-768v768h128v-96c0-17.664 14.336-32 32-32h448c17.664 0 32 14.336 32 32v96h128v-768zM448 101.504l-205.269 237.269 58.496 58.496 146.731-114.731 274.731 242.731 58.496-58.496z" />
<glyph unicode="&#xe90e;" glyph-name="ostemplates" d="M793.899 139.989h-696.149l184.149 280.021h327.808zM764.459 128h-640.853c-28.459 0-51.541-23.509-51.541-52.011s23.083-52.011 51.541-52.011h640.853c28.501 0 51.541 23.509 51.541 52.011s-23.083 52.011-51.541 52.011zM704.597 50.731c-12.715 0-23.040 10.325-23.040 22.997s10.283 22.997 23.040 22.997 22.997-10.325 22.997-22.997-10.325-22.997-22.997-22.997zM811.733 863.061c-120.96 48.469-258.304-10.368-306.773-131.328s10.368-258.389 131.328-306.773c121.003-48.469 258.347 10.325 306.773 131.328s-10.368 258.347-131.328 306.773zM647.253 452.309c-105.685 42.325-157.227 162.731-114.901 268.416s162.731 157.227 268.459 114.901c105.685-42.325 157.269-162.731 114.944-268.416s-162.773-157.269-268.459-114.901zM735.019 671.36c-15.104 6.059-32.299-1.323-38.357-16.427s1.323-32.299 16.427-38.357c15.104-6.059 32.341 1.323 38.357 16.427s-1.323 32.299-16.427 38.357zM718.549 630.272c-7.552 3.029-11.221 11.605-8.235 19.2s11.605 11.221 19.2 8.235 11.221-11.605 8.192-19.2c-2.987-7.552-11.605-11.221-19.157-8.235v0zM756.949 726.101c-45.397 18.176-96.853-3.883-115.029-49.237s3.883-96.853 49.237-115.029c45.355-18.176 96.853 3.883 115.029 49.237s-3.883 96.896-49.237 115.029v0zM702.123 589.227c-30.208 12.075-44.928 46.507-32.811 76.672s46.507 44.928 76.672 32.853c30.208-12.117 44.928-46.549 32.853-76.715s-46.549-44.928-76.715-32.811zM833.579 600.107h-0.043c-12.032-30.080-35.115-52.437-62.763-64.384-0.085-0.043-0.171-0.171-0.341-0.213-3.755-1.579-8.064 0.128-9.685 3.883s0.128 8.064 3.84 9.643c24.277 10.411 44.587 30.037 55.211 56.533v0c1.493 3.755 5.803 5.632 9.6 4.096s5.589-5.803 4.096-9.557v0zM884.224 587.776c3.755-1.493 5.589-5.803 4.096-9.6-18.048-45.099-52.736-78.677-94.165-96.555-0.213-0.085-0.341-0.256-0.469-0.341-3.755-1.621-8.064 0.128-9.685 3.883s0.171 8.107 3.883 9.643c38.187 16.341 70.101 47.232 86.741 88.832 1.536 3.797 5.803 5.632 9.6 4.096zM856.832 598.741c3.755-1.493 5.589-5.803 4.139-9.557-15.061-37.589-43.947-65.579-78.464-80.469-0.171-0.085-0.256-0.213-0.384-0.299-3.755-1.579-8.064 0.128-9.685 3.883s0.128 8.107 3.925 9.685h-0.043c31.275 13.355 57.387 38.656 70.955 72.661 1.493 3.797 5.845 5.632 9.6 4.096zM687.275 748.587c1.621-3.755-0.128-8.107-3.883-9.685-24.277-10.368-44.629-30.037-55.211-56.491v0c-1.493-3.797-5.803-5.589-9.557-4.096s-5.589 5.803-4.096 9.6v0c12.032 30.037 35.115 52.437 62.763 64.384 0.085 0.043 0.213 0.171 0.341 0.213 3.755 1.621 8.107-0.085 9.685-3.883zM664.064 802.773c1.579-3.755-0.128-8.064-3.883-9.685-38.187-16.341-70.101-47.232-86.741-88.789-1.493-3.755-5.803-5.589-9.557-4.096-3.797 1.493-5.632 5.803-4.096 9.6 18.091 45.099 52.736 78.677 94.165 96.597 0.128 0.043 0.299 0.213 0.469 0.299 3.755 1.579 8.107-0.128 9.685-3.883zM671.787 766.037v-0.085c-31.232-13.355-57.344-38.613-70.955-72.661-1.536-3.755-5.803-5.589-9.6-4.096s-5.589 5.803-4.096 9.6c15.019 37.547 43.947 65.579 78.464 80.469 0.171 0.085 0.213 0.213 0.384 0.256 3.755 1.579 8.107-0.128 9.685-3.883s-0.171-8.107-3.883-9.643h-0.043z" />
<glyph unicode="&#xe90f;" glyph-name="pdns" d="M916.565 393.045c0 0-3.797 1.451-14.891 2.432-13.525 1.195-17.621 6.315-22.144 12.587h-0.085c-0.597 1.493-1.195 2.987-1.835 4.437l0.085 0.043c-1.28 7.637-2.005 14.123 6.699 24.576 7.083 8.533 8.789 12.288 8.789 12.288-1.664 4.224-5.717 8.235-5.717 8.235s-4.011 4.011-8.235 5.675c0 0-3.712-1.707-12.245-8.789-10.411-8.704-16.939-8.021-24.533-6.741l-0.085-0.085c-1.493 0.683-2.944 1.237-4.437 1.835v0.085c-6.315 4.48-11.392 8.576-12.672 22.059-1.024 11.093-2.475 14.891-2.475 14.891-4.181 1.792-9.813 1.792-9.813 1.792s-5.675 0-9.813-1.835c0 0-1.451-3.84-2.432-14.891-1.237-13.525-6.315-17.621-12.629-22.144v-0.085c-1.493-0.597-2.987-1.195-4.437-1.835l-0.085 0.085c-7.637-1.323-14.123-2.005-24.576 6.656-8.533 7.083-12.288 8.747-12.288 8.747-4.224-1.664-8.235-5.675-8.235-5.675s-4.011-4.053-5.675-8.235c0 0 1.707-3.712 8.789-12.245 8.704-10.453 8.021-16.939 6.741-24.576l0.085-0.085c-0.64-1.451-1.237-2.944-1.835-4.437h-0.085c-4.48-6.357-8.533-11.392-22.101-12.672-11.051-1.024-14.891-2.517-14.891-2.517-1.792-4.139-1.792-9.813-1.792-9.813s0-5.675 1.835-9.813c0 0 3.797-1.451 14.891-2.432 13.525-1.195 17.621-6.315 22.144-12.587h0.085c0.597-1.493 1.152-2.987 1.835-4.437l-0.085-0.085c1.323-7.637 2.005-14.123-6.656-24.576-7.083-8.533-8.789-12.288-8.789-12.288 1.664-4.224 5.717-8.235 5.717-8.235s4.011-4.011 8.277-5.675c0 0 3.712 1.707 12.245 8.789 10.411 8.704 16.939 8.021 24.533 6.741l0.085 0.085c1.451-0.64 2.944-1.237 4.437-1.835v-0.085c6.315-4.48 11.392-8.576 12.672-22.101 1.024-11.051 2.475-14.891 2.475-14.891 4.181-1.792 9.813-1.792 9.813-1.792s5.675 0 9.813 1.835c0 0 1.451 3.84 2.432 14.891 1.237 13.525 6.315 17.621 12.587 22.144v0.085c1.493 0.597 2.987 1.195 4.437 1.835l0.085-0.043c7.637 1.28 14.123 1.963 24.576-6.656 8.533-7.083 12.288-8.789 12.288-8.789 4.224 1.664 8.235 5.675 8.235 5.675s4.011 4.011 5.675 8.235c0 0-1.707 3.712-8.789 12.245-8.704 10.453-8.021 16.939-6.741 24.576l-0.085 0.085c0.683 1.451 1.237 2.901 1.835 4.437h0.085c4.48 6.357 8.576 11.392 22.101 12.672 11.051 1.067 14.891 2.475 14.891 2.475 1.792 4.139 1.792 9.813 1.792 9.813s0 5.675-1.835 9.813zM813.141 333.824c-27.221-0.043-49.28 21.973-49.323 49.195s21.973 49.28 49.237 49.323c27.179 0.043 49.28-21.973 49.323-49.195s-21.973-49.28-49.195-49.323zM744.533 111.061c0 0-4.011 5.504-18.432 16.981-17.664 14.080-18.731 24.832-19.2 37.717l-0.128 0.085c0.597 2.603 1.109 5.205 1.493 7.808l0.128 0.043c5.205 11.819 10.112 21.419 31.701 28.032 17.664 5.419 23.381 9.045 23.381 9.045 1.536 7.381-0.384 16.597-0.384 16.597s-1.92 9.216-6.272 15.403c0 0-6.699 1.067-25.045-1.024-22.443-2.517-30.763 4.352-40.235 13.099l-0.128-0.043c-1.408 2.219-2.901 4.437-4.523 6.571l0.085 0.128c-4.693 11.989-8.021 22.315 2.603 42.24 8.661 16.299 10.155 22.955 10.155 22.955-4.139 6.315-11.989 11.477-11.989 11.477s-7.851 5.163-15.317 6.443c0 0-5.504-4.011-16.981-18.432-14.080-17.664-24.875-18.688-37.717-19.2l-0.085-0.085c-2.603 0.597-5.205 1.067-7.808 1.493l-0.043 0.085c-11.819 5.163-21.419 10.112-28.032 31.701-5.419 17.621-9.045 23.424-9.045 23.424-7.381 1.536-16.597-0.384-16.597-0.384s-9.216-1.92-15.36-6.272c0 0-1.067-6.741 1.024-25.045 2.517-22.443-4.352-30.763-13.099-40.277l0.043-0.085c-2.261-1.408-4.437-2.901-6.571-4.523l-0.128 0.085c-11.989-4.693-22.315-8.021-42.24 2.603-16.299 8.661-22.955 10.155-22.955 10.155-6.315-4.139-11.477-11.989-11.477-11.989s-5.205-7.851-6.443-15.317c0 0 4.011-5.504 18.432-16.981 17.664-14.080 18.688-24.875 19.2-37.717l0.128-0.085c-0.597-2.603-1.109-5.163-1.493-7.808h-0.128c-5.205-11.819-10.112-21.419-31.701-28.032-17.664-5.419-23.424-9.045-23.424-9.045-1.536-7.381 0.384-16.597 0.384-16.597s1.92-9.216 6.272-15.403c0 0 6.741-1.067 25.045 1.024 22.443 2.517 30.805-4.352 40.277-13.099h0.128c1.408-2.261 2.901-4.437 4.523-6.571l-0.085-0.128c4.693-11.989 8.021-22.315-2.645-42.24-8.661-16.299-10.197-22.955-10.197-22.955 4.139-6.315 11.989-11.477 11.989-11.477s7.851-5.163 15.317-6.443c0 0 5.504 4.011 16.981 18.432 14.080 17.664 24.875 18.688 37.717 19.2l0.085 0.128c2.603-0.597 5.163-1.067 7.808-1.493l0.043-0.128c11.819-5.163 21.419-10.112 28.032-31.701 5.419-17.664 9.045-23.424 9.045-23.424 7.381-1.536 16.597 0.384 16.597 0.384s9.216 1.92 15.403 6.272c0 0 1.067 6.699-1.024 25.045-2.517 22.443 4.352 30.763 13.099 40.277l-0.043 0.128c2.261 1.408 4.437 2.901 6.613 4.48l0.128-0.085c11.989 4.693 22.315 8.021 42.24-2.603 16.299-8.661 22.955-10.197 22.955-10.197 6.315 4.181 11.477 11.989 11.477 11.989s5.205 7.851 6.443 15.275zM546.816 123.392c-37.803 24.832-48.341 75.563-23.509 113.365s75.563 48.341 113.365 23.509c37.803-24.789 48.341-75.563 23.509-113.365s-75.563-48.341-113.365-23.509zM371.157 894.037c-161.408 0-292.267-130.816-292.267-292.267s130.816-292.267 292.267-292.267c161.408 0 292.267 130.859 292.267 292.267s-130.859 292.267-292.267 292.267zM625.195 611.243h-113.067c-1.024 41.771-8.491 81.664-21.632 118.187 25.472 10.624 48.981 24.747 70.443 41.429 38.144-42.795 61.995-98.389 64.256-159.616zM360.661 347.776c-31.317 26.112-57.6 59.989-76.843 99.328 24.661 7.723 50.816 11.947 77.867 12.8v-112.171c-0.341 0-0.683 0.043-0.981 0.043zM381.525 855.851c35.584-29.611 64.597-69.248 84.224-115.499-26.923-9.173-55.467-14.549-85.163-15.445v131.029c0.341-0.043 0.683-0.043 0.939-0.085zM412.928 852.608c52.011-8.661 98.731-32.981 135.083-68.139-19.755-15.147-41.301-27.947-64.64-37.675-17.152 40.661-41.259 76.629-70.443 105.813zM361.685 855.851v-131.029c-29.739 0.939-58.325 6.272-85.205 15.445 19.627 46.251 48.64 85.888 84.224 115.499 0.341 0.043 0.64 0.043 0.981 0.043zM258.859 746.795c-23.296 9.685-44.885 22.528-64.597 37.675 36.309 35.157 83.029 59.477 135.083 68.139-29.227-29.184-53.291-65.109-70.443-105.771zM269.397 722.944c29.099-10.069 60.075-15.957 92.288-16.939v-94.763h-112.725c1.024 39.467 8.021 77.227 20.437 111.659zM361.685 592.384v-113.621c-29.739-0.896-58.496-5.76-85.589-14.507-16.341 38.869-25.941 82.176-27.136 128.085h112.725zM329.301 351.019c-46.635 7.765-89.003 28.075-123.435 57.557 18.603 12.885 38.656 23.765 60.117 32.043 16.427-34.091 37.931-64.341 63.275-89.6zM380.544 347.733v112.171c27.008-0.896 53.163-5.077 77.867-12.843-19.243-39.339-45.483-73.216-76.843-99.328-0.341 0-0.683-0.043-0.981-0.043zM476.245 440.619c21.419-8.277 41.515-19.2 60.075-32.043-34.432-29.483-76.757-49.792-123.392-57.515 25.344 25.259 46.848 55.509 63.275 89.6zM466.133 464.299c-27.093 8.747-55.851 13.611-85.589 14.507v113.621h112.725c-1.195-45.909-10.795-89.216-27.136-128.085zM380.544 611.243v94.763c32.213 0.981 63.189 6.827 92.288 16.939 12.416-34.475 19.413-72.235 20.437-111.659l-112.725 0.043zM181.333 770.859c21.461-16.683 44.971-30.805 70.443-41.429-13.184-36.523-20.608-76.416-21.632-118.187h-113.067c2.261 61.184 26.112 116.779 64.299 159.573zM117.077 592.384h113.067c1.195-48.171 11.221-93.653 28.373-134.571-23.893-9.301-46.165-21.717-66.731-36.395-44.245 44.075-72.192 104.32-74.667 170.965zM550.485 421.461c-20.523 14.635-42.795 27.051-66.731 36.395 17.109 40.917 27.179 86.357 28.331 134.571h113.067c-2.475-66.688-30.421-126.933-74.709-170.965z" />
<glyph unicode="&#xe910;" glyph-name="performance" d="M280.021 11.989c0-6.613-5.376-11.989-11.989-11.989h-139.989c-6.613 0-11.989 5.376-11.989 11.989v267.989c0 6.613 5.376 11.989 11.989 11.989h139.989c6.613 0 11.989-5.376 11.989-11.989v-267.989zM491.989 11.989c0-6.571-5.419-11.989-11.989-11.989h-148.011c-6.571 0-11.989 5.419-11.989 11.989v448c0 6.571 5.419 11.989 11.989 11.989h148.011c6.571 0 11.989-5.419 11.989-11.989v-448zM712.021 11.989c0-6.613-5.376-11.989-11.989-11.989h-148.011c-6.613 0-11.989 5.376-11.989 11.989v372.011c0 6.613 5.376 11.989 11.989 11.989h148.011c6.613 0 11.989-5.376 11.989-11.989v-372.011zM932.011 11.989c0-6.613-5.376-11.989-11.989-11.989h-148.011c-6.613 0-11.989 5.376-11.989 11.989v651.989c0 6.613 5.376 11.989 11.989 11.989h148.011c6.613 0 11.989-5.376 11.989-11.989v-651.989zM830.336 767.403c7.595-7.936 13.867-5.461 13.909 5.547l0.469 118.144c0.043 11.008-8.917 20.053-19.883 20.139l-112.853 0.853c-11.008 0.085-13.781-6.357-6.187-14.293l18.176-19.029c7.595-7.936 6.869-20.181-1.621-27.179l-219.179-180.821c-8.491-6.997-21.163-5.803-28.16 2.688l-46.293 56.149c-6.997 8.491-19.669 9.685-28.16 2.688l-30.848-25.429c-8.491-6.997-15.147-13.056-14.848-13.44s-6.357-6.443-14.848-13.44l-241.579-199.253c-8.491-6.997-9.685-19.669-2.688-28.16l25.429-30.848c6.997-8.491 19.669-9.685 28.16-2.688l241.536 199.253c8.491 6.997 21.163 5.803 28.16-2.688l45.141-54.699c6.997-8.491 19.669-9.685 28.16-2.688l30.848 25.429c8.491 6.997 15.403 12.715 15.403 12.715s6.955 5.717 15.403 12.757l223.701 184.491c8.491 6.997 21.675 6.229 29.269-1.749l23.339-24.448z" />
<glyph unicode="&#xe911;" glyph-name="plans" d="M608 775.979c0-11.008-9.003-20.011-20.011-20.011h-152.021c-11.008 0-20.011 9.003-20.011 20.011v52.011c0 11.008 9.003 20.011 20.011 20.011h152.021c11.008 0 20.011-9.003 20.011-20.011v-52.011zM512 904.149c-30.336 0-54.955-24.107-54.955-53.845 0-0.768 0.043-1.579 0.085-2.347h9.173c-0.043 0.768-0.085 1.536-0.085 2.347 0 24.789 20.48 44.843 45.739 44.843s45.739-20.053 45.739-44.843c0-0.768-0.043-1.579-0.043-2.347h9.173c0.043 0.768 0.085 1.536 0.085 2.347 0 29.739-24.619 53.803-54.955 53.803zM763.989 848h-120.021v-122.027l-260.011-0.683v122.667h-128c-44.203 0-80-35.797-80-80v-692.011c0-44.203 35.797-80 80-80h507.989c44.203 0 80 35.797 80 80v692.011c0 44.203-35.797 80-80 80zM740.011 91.989h-443.989v59.989h443.989v-59.989zM740.011 251.989h-443.989v59.989h443.989v-59.989zM740.011 416h-443.989v59.989h443.989v-59.989zM740.011 576h-443.989v59.989h443.989v-59.989z" />
<glyph unicode="&#xe912;" glyph-name="processes" d="M911.019 485.888c0 0-14.763 5.547-57.429 9.472-52.139 4.821-67.883 24.363-85.248 48.725h-0.341c-2.133 5.803-4.48 11.477-7.040 17.067l0.213 0.213c-4.949 29.483-7.595 54.443 25.856 94.72 27.349 32.939 33.877 47.317 33.877 47.317-6.443 16.299-21.845 31.744-21.845 31.744s-15.445 15.403-31.701 21.845c0 0-14.379-6.485-47.275-33.877-40.277-33.451-65.237-30.805-94.72-25.813l-0.213-0.213c-5.589 2.517-11.307 4.864-17.067 6.997v0.341c-24.363 17.323-43.861 33.109-48.725 85.248-3.925 42.624-9.472 57.387-9.472 57.387-16.085 6.955-37.888 6.955-37.888 6.955s-21.803 0-37.888-6.955c0 0-5.547-14.763-9.472-57.387-4.821-52.139-24.405-67.925-48.725-85.248v-0.341c-5.803-2.176-11.477-4.48-17.067-6.997l-0.213 0.213c-29.483-4.949-54.443-7.637-94.72 25.813-32.939 27.349-47.317 33.877-47.317 33.877-16.299-6.443-31.701-21.845-31.701-21.845s-15.403-15.445-21.845-31.744c0 0 6.485-14.379 33.877-47.317 33.493-40.277 30.763-65.237 25.813-94.72l0.213-0.213c-2.56-5.589-4.864-11.307-7.040-17.067h-0.341c-17.323-24.363-33.109-43.861-85.248-48.725-42.624-3.925-57.387-9.515-57.387-9.515-6.955-16.085-6.955-37.845-6.955-37.845s0-21.845 6.955-37.888c0 0 14.763-5.547 57.387-9.472 52.139-4.821 67.925-24.405 85.248-48.683h0.341c2.176-5.803 4.48-11.52 7.040-17.067l-0.213-0.213c4.949-29.483 7.637-54.443-25.813-94.72-27.349-32.939-33.877-47.317-33.877-47.317 6.443-16.299 21.845-31.701 21.845-31.701s15.445-15.445 31.744-21.845c0 0 14.336 6.485 47.275 33.877 40.277 33.493 65.237 30.763 94.72 25.813l0.213 0.213c5.589-2.517 11.307-4.821 17.109-6.997v-0.341c24.363-17.365 43.861-33.067 48.725-85.248 3.925-42.624 9.472-57.429 9.472-57.429 16.085-6.955 37.888-6.955 37.888-6.955s21.803 0 37.888 6.955c0 0 5.547 14.763 9.472 57.429 4.821 52.181 24.405 67.883 48.683 85.248v0.341c5.803 2.176 11.477 4.48 17.067 6.997l0.213-0.213c29.483 4.949 54.443 7.595 94.72-25.813 32.939-27.349 47.317-33.877 47.317-33.877 16.299 6.443 31.701 21.845 31.701 21.845s15.403 15.445 21.845 31.701c0 0-6.485 14.379-33.877 47.317-33.493 40.277-30.763 65.237-25.856 94.72l-0.213 0.213c2.56 5.547 4.864 11.307 7.040 17.067h0.341c17.365 24.32 33.067 43.861 85.248 48.683 42.624 3.925 57.429 9.472 57.429 9.472 6.955 16.043 6.955 37.888 6.955 37.888s0 21.845-6.955 37.888zM512 258.091c-104.875 0-189.909 85.035-189.909 189.909s85.035 189.909 189.909 189.909c104.875 0 189.909-85.035 189.909-189.909s-85.035-189.909-189.909-189.909z" />
<glyph unicode="&#xe913;" glyph-name="ram" d="M628.309 775.253c-4.693-4.651-12.373-4.565-16.981 0.128l-39.296 39.893c-4.651 4.693-4.565 12.373 0.128 16.981l5.675 5.589c4.693 4.651 12.331 4.565 16.981-0.128l39.296-39.893c4.651-4.693 4.565-12.331-0.128-16.981l-5.717-5.589zM622.677 770.347c-4.693-4.651-12.331-4.565-16.981 0.128l-39.296 39.893c-4.651 4.693-4.565 12.331 0.128 16.981l5.717 5.589c4.693 4.651 12.331 4.565 16.981-0.128l39.296-39.893c4.651-4.693 4.565-12.373-0.128-16.939l-5.717-5.589zM542.251 694.613c-4.693-4.651-12.331-4.565-16.981 0.128l-39.296 39.893c-4.651 4.693-4.565 12.331 0.128 16.939l5.717 5.589c4.693 4.651 12.373 4.565 16.939-0.128l39.296-39.893c4.651-4.693 4.565-12.373-0.128-16.939l-5.675-5.589zM535.211 688.341c-4.693-4.651-12.331-4.565-16.981 0.128l-39.296 39.893c-4.651 4.693-4.565 12.373 0.128 16.939l8.277 8.149c4.693 4.651 12.373 4.565 16.981-0.128l39.296-39.893c4.651-4.693 4.565-12.331-0.128-16.939l-8.277-8.149zM453.333 607.147c-4.693-4.651-12.331-4.565-16.939 0.128l-39.296 39.893c-4.651 4.693-4.565 12.373 0.128 16.939l5.675 5.589c4.693 4.651 12.331 4.565 16.939-0.128l39.296-39.893c4.651-4.693 4.565-12.331-0.128-16.939l-5.717-5.589zM444.885 599.467c-4.693-4.651-12.373-4.565-16.981 0.128l-39.296 39.893c-4.651 4.693-4.565 12.373 0.128 16.939l5.717 5.589c4.693 4.651 12.331 4.565 16.939-0.128l39.296-39.893c4.651-4.693 4.565-12.331-0.128-16.939l-5.675-5.589zM361.6 516.949c-4.693-4.651-12.373-4.565-16.981 0.128l-39.296 39.893c-4.651 4.693-4.565 12.373 0.128 16.939l5.675 5.589c4.693 4.651 12.373 4.565 16.939-0.128l39.296-39.893c4.651-4.693 4.565-12.331-0.128-16.939l-5.675-5.589zM354.304 510.379c-4.693-4.651-12.331-4.565-16.939 0.128l-39.296 39.893c-4.651 4.693-4.565 12.373 0.128 16.981l5.675 5.589c4.693 4.651 12.373 4.565 16.939-0.128l39.296-39.893c4.651-4.693 4.565-12.331-0.128-16.939l-5.717-5.589zM265.856 418.688c-4.693-4.651-12.373-4.565-16.939 0.128l-39.296 39.893c-4.651 4.693-4.565 12.331 0.128 16.939l5.675 5.589c4.693 4.651 12.373 4.565 16.939-0.128l39.296-39.893c4.651-4.693 4.565-12.373-0.128-16.981l-5.717-5.589zM257.408 410.965c-4.693-4.651-12.373-4.565-16.939 0.128l-39.296 39.893c-4.651 4.693-4.565 12.331 0.128 16.939l5.675 5.589c4.693 4.651 12.373 4.565 16.939-0.128l39.296-39.893c4.651-4.693 4.565-12.373-0.128-16.981l-5.717-5.589zM302.123 100.309c8.661 8.491 28.331 2.603 43.733-13.056l14.037-14.251c15.403-15.659 40.917-15.872 56.576-0.427l473.088 465.92c15.659 15.403 15.872 40.917 0.427 56.576l-14.037 14.251c-15.403 15.659-21.675 34.816-13.824 42.539s1.579 26.837-13.824 42.539l-151.552 153.899c-15.445 15.659-40.875 15.872-56.576 0.427l-532.949-524.885c-15.701-15.403-15.872-40.875-0.427-56.576l151.595-153.899c15.403-15.659 35.115-21.547 43.733-13.056zM633.643 741.248c15.659 15.445 41.131 15.232 56.576-0.427l120.704-122.539c15.403-15.659 15.275-41.131-0.427-56.576l-28.501-28.075c-15.659-15.403-41.131-15.232-56.576 0.427l-120.704 122.539c-15.403 15.659-15.275 41.131 0.427 56.576l28.501 28.075zM505.429 614.955c15.701 15.403 41.131 15.232 56.576-0.427l120.704-122.539c15.403-15.659 15.275-41.131-0.427-56.576l-28.501-28.075c-15.659-15.403-41.131-15.232-56.576 0.469l-120.704 122.539c-15.403 15.659-15.232 41.131 0.427 56.576l28.501 28.075zM377.173 488.661c15.659 15.403 41.131 15.232 56.576-0.427l120.704-122.581c15.403-15.659 15.275-41.131-0.427-56.576l-28.501-28.075c-15.659-15.403-41.131-15.232-56.576 0.427l-120.704 122.539c-15.403 15.659-15.232 41.131 0.427 56.576l28.501 28.075zM246.101 359.509c15.659 15.403 41.131 15.275 56.576-0.427l120.704-122.539c15.403-15.659 15.232-41.131-0.427-56.576l-28.501-28.075c-15.701-15.403-41.131-15.275-56.576 0.427l-120.704 122.539c-15.445 15.659-15.232 41.131 0.427 56.576l28.501 28.075zM169.856 330.667c-4.693-4.651-12.373-4.565-16.939 0.128l-39.296 39.893c-4.651 4.693-4.565 12.331 0.128 16.981l5.717 5.589c4.693 4.651 12.331 4.565 16.939-0.128l39.296-39.893c4.651-4.693 4.565-12.373-0.128-16.981l-5.675-5.589zM161.408 322.987c-4.693-4.651-12.331-4.565-16.939 0.128l-39.296 39.893c-4.651 4.693-4.565 12.331 0.128 16.981l5.675 5.589c4.693 4.651 12.373 4.565 16.939-0.128l39.296-39.893c4.651-4.693 4.565-12.373-0.128-16.981l-5.717-5.589z" />
<glyph unicode="&#xe914;" glyph-name="recipes" d="M944 288h-86.101c-1.451 7.637-3.2 15.147-5.12 22.571l153.557 76.757c15.787 7.893 22.187 27.136 14.293 42.923-7.936 15.787-27.093 22.144-42.923 14.293l-146.475-73.216c-55.851 120.576-177.749 204.587-319.189 204.587-172.245 0-315.691-124.416-345.899-288h-86.101c-44.075 0-80-35.883-80-80 0-15.659 5.76-30.805 16.171-42.539l111.829-125.824v-23.637c0-44.117 35.883-80 80-80h608c44.117 0 80 35.883 80 80v23.637l111.787 125.824c10.453 11.691 16.213 26.837 16.213 42.539 0 44.117-35.883 80-80 80zM825.557 288h-17.963l15.915 8.021c0.597-2.688 1.451-5.291 2.048-8.021zM512 544c128.939 0 240-76.8 290.645-186.923l-28.501-14.251c-45.312 99.669-145.451 169.131-262.101 169.131-137.045 0-251.477-95.787-280.619-224h-32.896c29.739 145.877 159.019 256 313.515 256zM658.432 288c-24.747 56.405-80.981 96-146.432 96s-121.643-39.595-146.432-96h-34.389c26.453 74.453 97.365 128 180.821 128 78.891 0 146.816-47.872 176.256-116.053l-29.824-11.947zM512 320c-28.245 0-53.419-12.501-71.040-32h-39.168c22.229 38.059 63.061 64 110.208 64s88.021-25.941 110.165-64h-39.211c-17.536 19.499-42.709 32-70.955 32zM512 448c-101.291 0-186.923-67.584-214.571-160h-33.024c28.544 110.208 128.555 192 247.595 192 103.851 0 193.365-62.336 233.429-151.509l-28.587-14.293c-34.816 78.635-113.493 133.76-204.885 133.76zM832 64v-48c0-8.832-7.211-16-16-16h-608c-8.832 0-16 7.168-16 16v48l-128 144c0 8.832 7.168 16 16 16h864c8.789 0 16-7.168 16-16l-128-144zM255.275 585.216c-0.213 0.427-0.384 0.853-0.555 1.323-16.597 40.107-0.085 79.445 14.805 114.901 14.123 33.664 26.624 63.488 13.696 92.587-0.085 0.128-0.085 0.256-0.171 0.384s-0.085 0.213-0.085 0.299c-0.043 0.043-0.043 0.128-0.043 0.213-0.64 1.707-1.024 3.499-1.024 5.419 0 8.661 6.997 15.659 15.701 15.659 6.656 0 12.331-4.139 14.592-10.027 17.835-40.661 1.621-80.683-13.483-116.693-14.037-33.323-25.429-64.341-13.397-92.544 0.085-0.213 0.085-0.427 0-0.64 0.341-1.28 0.597-2.645 0.597-4.011 0-8.875-7.211-16.085-16.085-16.085-6.229 0-11.52 3.499-14.165 8.661-0.043 0-0.043 0-0.043 0-0.085 0.213-0.171 0.384-0.256 0.597zM644.949 589.867c-0.213 0.427-0.341 0.853-0.512 1.28-16.597 40.107-0.128 79.445 14.763 114.944 14.165 33.664 26.624 63.488 13.696 92.587 0 0.128-0.085 0.256-0.128 0.384s-0.085 0.213-0.128 0.299c0 0.043 0 0.128 0 0.213-0.597 1.707-1.067 3.499-1.067 5.419 0 8.661 7.040 15.659 15.659 15.659 6.699 0 12.331-4.139 14.635-10.027 17.835-40.661 1.621-80.683-13.525-116.693-13.995-33.365-25.387-64.299-13.44-92.544 0.128-0.213 0.128-0.427 0.085-0.64 0.341-1.28 0.597-2.645 0.597-4.011 0-8.875-7.253-16.085-16.128-16.085-6.187 0-11.477 3.541-14.165 8.661h-0.085c-0.085 0.213-0.128 0.384-0.256 0.597zM480.597 729.216c-0.213 0.469-0.384 0.853-0.597 1.323-16.64 40.107-0.128 79.445 14.763 114.944 14.123 33.664 26.624 63.488 13.696 92.587-0.043 0.128-0.085 0.256-0.128 0.384s-0.085 0.171-0.085 0.299c-0.043 0.043-0.043 0.128-0.043 0.171-0.64 1.707-1.024 3.499-1.024 5.419 0 8.661 7.040 15.701 15.659 15.701 6.699 0 12.331-4.181 14.635-10.069 17.835-40.661 1.621-80.683-13.525-116.693-14.037-33.323-25.429-64.299-13.397-92.544 0.085-0.213 0.085-0.427 0-0.64 0.341-1.28 0.597-2.603 0.597-4.011 0-8.875-7.211-16.085-16.085-16.085-6.187 0-11.477 3.541-14.165 8.661-0.043 0-0.085 0-0.085 0-0.085 0.213-0.171 0.384-0.256 0.555z" />
<glyph unicode="&#xe915;" glyph-name="save" d="M896 960h-896v-1024h1024v896l-128 128zM512 832h128v-256h-128v256zM896 64h-768v768h64v-320h576v320h74.965l53.035-53.035v-714.965z" />
<glyph unicode="&#xe916;" glyph-name="server_stats" d="M280.021 11.989c0-6.613-5.376-11.989-11.989-11.989h-139.989c-6.613 0-11.989 5.376-11.989 11.989v267.989c0 6.613 5.376 11.989 11.989 11.989h139.989c6.613 0 11.989-5.376 11.989-11.989v-267.989zM491.989 11.989c0-6.571-5.419-11.989-11.989-11.989h-148.011c-6.571 0-11.989 5.419-11.989 11.989v448c0 6.571 5.419 11.989 11.989 11.989h148.011c6.571 0 11.989-5.419 11.989-11.989v-448zM712.021 11.989c0-6.613-5.376-11.989-11.989-11.989h-148.011c-6.613 0-11.989 5.376-11.989 11.989v372.011c0 6.613 5.376 11.989 11.989 11.989h148.011c6.613 0 11.989-5.376 11.989-11.989v-372.011zM932.011 11.989c0-6.613-5.376-11.989-11.989-11.989h-148.011c-6.613 0-11.989 5.376-11.989 11.989v651.989c0 6.613 5.376 11.989 11.989 11.989h148.011c6.613 0 11.989-5.376 11.989-11.989v-651.989zM830.336 767.403c7.595-7.936 13.867-5.461 13.909 5.547l0.469 118.144c0.043 11.008-8.917 20.053-19.883 20.139l-112.853 0.853c-11.008 0.085-13.781-6.357-6.187-14.293l18.176-19.029c7.595-7.936 6.869-20.181-1.621-27.179l-219.179-180.821c-8.491-6.997-21.163-5.803-28.16 2.688l-46.293 56.149c-6.997 8.491-19.669 9.685-28.16 2.688l-30.848-25.429c-8.491-6.997-15.147-13.056-14.848-13.44s-6.357-6.443-14.848-13.44l-241.579-199.253c-8.491-6.997-9.685-19.669-2.688-28.16l25.429-30.848c6.997-8.491 19.669-9.685 28.16-2.688l241.536 199.253c8.491 6.997 21.163 5.803 28.16-2.688l45.141-54.699c6.997-8.491 19.669-9.685 28.16-2.688l30.848 25.429c8.491 6.997 15.403 12.715 15.403 12.715s6.955 5.717 15.403 12.757l223.701 184.491c8.491 6.997 21.675 6.229 29.269-1.749l23.339-24.448z" />
<glyph unicode="&#xe917;" glyph-name="serverloads" d="M68.011-4.011v350.464l107.563 33.323 157.867 143.915 214.613-74.624 53.333 135.68 342.656 192.128v-780.885zM820.096 785.109c7.467-8.107 13.781-5.675 13.995 5.333l2.475 118.101c0.213 11.008-8.576 20.224-19.584 20.48l-112.811 2.773c-11.008 0.256-13.867-6.101-6.443-14.208l17.835-19.328c7.467-8.064 6.528-20.267-2.091-27.179l-222.208-177.067c-8.619-6.827-21.248-5.419-28.117 3.157l-45.355 56.917c-6.869 8.619-19.499 10.069-28.117 3.157l-31.275-24.917c-8.619-6.869-15.403-12.8-15.061-13.184s-6.443-6.357-15.061-13.184l-244.907-195.115c-8.619-6.869-10.027-19.499-3.157-28.117l24.917-31.275c6.869-8.619 19.499-10.069 28.117-3.157l244.907 195.157c8.619 6.869 21.248 5.419 28.117-3.157l44.203-55.467c6.869-8.619 19.499-10.069 28.117-3.157l31.275 24.917c8.619 6.869 15.659 12.459 15.659 12.459s7.040 5.589 15.659 12.459l226.773 180.693c8.619 6.869 21.76 5.845 29.227-2.261l22.955-24.832z" />
<glyph unicode="&#xe918;" glyph-name="servers" d="M720.043 703.317c0-26.112 21.205-47.275 47.275-47.275s47.275 21.205 47.275 47.275c0 26.112-21.205 47.317-47.275 47.317s-47.275-21.205-47.275-47.317zM720.043 400.725c0-26.069 21.205-47.275 47.275-47.275s47.275 21.163 47.275 47.275c0 26.112-21.205 47.275-47.275 47.275s-47.275-21.163-47.275-47.275zM58.112 277.803c0-41.813 33.835-75.648 75.648-75.648h321.493v-52.181c-9.259-6.229-17.195-14.165-23.467-23.467h-231.851c-26.112 0-47.317-21.163-47.317-47.275s21.205-47.275 47.317-47.275h231.851c15.317-22.869 41.259-37.845 70.741-37.845s55.424 14.933 70.741 37.845h250.795c26.069 0 47.275 21.163 47.275 47.275s-21.163 47.275-47.275 47.275h-250.795c-6.229 9.301-14.165 17.237-23.467 23.467v52.181h340.395c41.813 0 75.648 33.877 75.648 75.648v548.437c0 41.771-33.835 75.648-75.648 75.648h-756.48c-41.771 0-75.648-33.877-75.648-75.648v-548.437zM194.261 807.339h635.477c23.083 0 41.6-18.517 41.6-41.6v-124.8c0-23.083-18.56-41.6-41.6-41.6h-635.435c-23.083 0-41.6 18.517-41.6 41.6v124.843c0 23.083 18.517 41.6 41.6 41.6zM194.261 504.747h635.477c23.083 0 41.6-18.517 41.6-41.6v-124.8c0-23.083-18.56-41.6-41.6-41.6h-635.435c-23.083 0-41.6 18.517-41.6 41.6v124.843c0 23.083 18.517 41.6 41.6 41.6z" />
<glyph unicode="&#xe919;" glyph-name="servers2" d="M168.021 823.979c-22.016 0-40.021-18.005-40.021-40.021v-136.021c0-22.016 18.005-40.021 40.021-40.021h688c22.016 0 40.021 18.005 40.021 40.021v136.021c0 22.016-18.005 40.021-40.021 40.021h-688zM693.333 676.011c-19.883 0-36.011 16.128-36.011 36.011s16.128 36.011 36.011 36.011 36.011-16.128 36.011-36.011-16.128-36.011-36.011-36.011zM805.333 676.011c-19.883 0-36.011 16.128-36.011 36.011s16.128 36.011 36.011 36.011 36.011-16.128 36.011-36.011-16.128-36.011-36.011-36.011zM168.021 544c-22.016 0-40.021-18.005-40.021-40.021v-136.021c0-22.016 18.005-40.021 40.021-40.021h688c22.016 0 40.021 18.005 40.021 40.021v136.021c0 22.016-18.005 40.021-40.021 40.021h-688zM693.333 395.989c-19.883 0-36.011 16.128-36.011 36.011s16.128 36.011 36.011 36.011 36.011-16.128 36.011-36.011c0-19.883-16.128-36.011-36.011-36.011zM805.333 395.989c-19.883 0-36.011 16.128-36.011 36.011s16.128 36.011 36.011 36.011 36.011-16.128 36.011-36.011c0-19.883-16.128-36.011-36.011-36.011zM168.021 263.979c-22.016 0-40.021-18.005-40.021-40.021v-136.021c0-22.016 18.005-40.021 40.021-40.021h688c22.016 0 40.021 18.005 40.021 40.021v136.021c0 22.016-18.005 40.021-40.021 40.021h-688zM693.333 116.011c-19.883 0-36.011 16.128-36.011 36.011s16.128 36.011 36.011 36.011 36.011-16.128 36.011-36.011-16.128-36.011-36.011-36.011zM805.333 116.011c-19.883 0-36.011 16.128-36.011 36.011s16.128 36.011 36.011 36.011 36.011-16.128 36.011-36.011-16.128-36.011-36.011-36.011zM516.011 768h20.011v-704h-20.011v704z" />
<glyph unicode="&#xe91a;" glyph-name="services" d="M680.661 241.664c0 0-9.173 7.467-38.485 20.48-35.883 15.957-42.411 33.621-48.853 55.040l-0.256 0.085c-0.171 4.651-0.427 9.259-0.896 13.824l0.213 0.085c3.541 22.101 7.595 40.533 41.045 61.099 27.307 16.853 35.413 25.472 35.413 25.472-0.64 13.099-7.893 27.776-7.893 27.776s-7.253 14.677-17.323 23.125c0 0-11.733-1.195-41.728-12.757-36.651-14.123-53.717-6.229-73.472 4.352l-0.213-0.085c-3.371 3.115-6.869 6.144-10.453 9.088l0.085 0.256c-13.141 18.176-23.211 34.005-14.165 72.235 7.424 31.232 7.040 43.051 7.040 43.051-9.728 8.789-25.259 14.037-25.259 14.037s-15.531 5.248-28.587 4.139c0 0-7.509-9.131-20.523-38.485-15.915-35.883-33.579-42.411-55.040-48.896l-0.085-0.256c-4.651-0.171-9.259-0.427-13.824-0.896l-0.085 0.213c-22.101 3.541-40.491 7.595-61.099 41.045-16.811 27.307-25.472 35.413-25.472 35.413-13.099-0.683-27.733-7.893-27.733-7.893s-14.677-7.253-23.125-17.323c0 0 1.195-11.733 12.715-41.728 14.123-36.651 6.229-53.717-4.352-73.472l0.085-0.213c-3.157-3.371-6.144-6.869-9.088-10.453l-0.256 0.085c-18.133-13.141-34.005-23.211-72.235-14.165-31.232 7.424-43.093 7.040-43.093 7.040-8.789-9.771-14.037-25.259-14.037-25.259s-5.248-15.531-4.139-28.587c0 0 9.173-7.509 38.485-20.48 35.883-15.957 42.368-33.579 48.853-55.040l0.256-0.085c0.171-4.651 0.427-9.259 0.896-13.824l-0.213-0.085c-3.541-22.144-7.595-40.533-41.045-61.099-27.349-16.853-35.413-25.472-35.413-25.472 0.683-13.099 7.936-27.776 7.936-27.776s7.253-14.677 17.323-23.125c0 0 11.733 1.195 41.685 12.757 36.651 14.123 53.717 6.229 73.472-4.352l0.213 0.085c3.371-3.157 6.869-6.144 10.453-9.088l-0.085-0.256c13.141-18.133 23.211-34.005 14.165-72.235-7.424-31.232-6.997-43.051-6.997-43.051 9.771-8.789 25.259-13.995 25.259-13.995s15.531-5.248 28.587-4.139c0 0 7.509 9.173 20.48 38.485 15.915 35.925 33.621 42.368 55.040 48.853l0.085 0.256c4.651 0.171 9.259 0.427 13.824 0.896l0.085-0.213c22.101-3.541 40.491-7.595 61.099-41.045 16.811-27.349 25.515-35.413 25.515-35.413 13.141 0.683 27.733 7.893 27.733 7.893s14.677 7.253 23.125 17.323c0 0-1.195 11.733-12.715 41.728-14.123 36.651-6.229 53.717 4.352 73.472l-0.085 0.213c3.157 3.371 6.187 6.827 9.088 10.453l0.256-0.085c18.133 13.141 34.005 23.211 72.235 14.165 31.232-7.424 43.051-7.040 43.051-7.040 8.789 9.771 14.037 25.259 14.037 25.259s5.205 15.531 4.096 28.587zM342.571 175.531c-74.496 25.173-114.517 105.899-89.387 180.437s105.899 114.517 180.437 89.387c74.496-25.173 114.517-105.899 89.387-180.395s-105.899-114.517-180.395-89.387zM919.467 700.032c0 0-6.571 2.816-25.771 5.547-23.467 3.285-30.165 12.459-37.504 23.851h-0.171c-0.853 2.645-1.792 5.291-2.816 7.893l0.085 0.085c-1.621 13.44-2.261 24.747 13.739 42.283 13.099 14.293 16.341 20.651 16.341 20.651-2.517 7.467-9.216 14.805-9.216 14.805s-6.613 7.339-13.867 10.539c0 0-6.613-2.603-22.101-14.293-18.944-14.251-30.165-12.501-43.349-9.643l-0.085-0.085c-2.475 1.28-5.035 2.432-7.595 3.541v0.171c-10.624 8.405-19.115 15.915-20.181 39.595-0.853 19.371-3.029 26.155-3.029 26.155-7.083 3.541-16.981 3.968-16.981 3.968s-9.856 0.469-17.28-2.347c0 0-2.816-6.571-5.547-25.728-3.285-23.467-12.501-30.165-23.851-37.504v-0.171c-2.645-0.853-5.333-1.792-7.851-2.816l-0.085 0.085c-13.44-1.579-24.789-2.261-42.283 13.739-14.293 13.099-20.651 16.299-20.651 16.299-7.509-2.56-14.805-9.173-14.805-9.173s-7.339-6.656-10.539-13.909c0 0 2.645-6.613 14.293-22.101 14.251-18.944 12.501-30.165 9.643-43.392l0.085-0.085c-1.28-2.475-2.432-4.992-3.541-7.595h-0.171c-8.363-10.624-15.915-19.157-39.595-20.181-19.371-0.853-26.155-3.072-26.155-3.072-3.499-7.125-3.968-16.939-3.968-16.939s-0.469-9.899 2.347-17.28c0 0 6.571-2.816 25.728-5.547 23.509-3.285 30.165-12.501 37.504-23.893h0.171c0.853-2.645 1.749-5.291 2.773-7.893l-0.085-0.085c1.621-13.44 2.261-24.747-13.739-42.283-13.099-14.293-16.341-20.693-16.341-20.693 2.56-7.467 9.173-14.805 9.173-14.805s6.656-7.339 13.867-10.539c0 0 6.613 2.603 22.101 14.293 18.901 14.293 30.165 12.501 43.392 9.643l0.085 0.085c2.475-1.28 4.992-2.432 7.595-3.541v-0.171c10.624-8.363 19.115-15.915 20.181-39.595 0.853-19.371 3.029-26.155 3.029-26.155 7.125-3.499 16.981-3.968 16.981-3.968s9.856-0.469 17.28 2.347c0 0 2.816 6.571 5.547 25.771 3.285 23.509 12.501 30.165 23.851 37.461v0.171c2.645 0.853 5.291 1.792 7.851 2.816l0.085-0.085c13.397 1.579 24.789 2.261 42.283-13.739 14.293-13.099 20.651-16.341 20.651-16.341 7.509 2.56 14.805 9.173 14.805 9.173s7.339 6.656 10.539 13.867c0 0-2.603 6.613-14.293 22.101-14.293 18.944-12.501 30.165-9.643 43.392l-0.085 0.085c1.28 2.475 2.432 4.992 3.541 7.595h0.171c8.363 10.624 15.915 19.157 39.595 20.181 19.371 0.853 26.155 3.029 26.155 3.029 3.499 7.083 3.968 16.981 3.968 16.981s0.469 9.899-2.347 17.28zM734.123 605.653c-47.403 2.261-84.053 42.539-81.749 89.941s42.539 84.011 89.941 81.749c47.403-2.261 84.011-42.539 81.749-89.941s-42.539-84.053-89.941-81.749z" />
<glyph unicode="&#xe91b;" glyph-name="ssh" d="M872.235 823.979h-720.469c-46.251 0-83.755-38.784-83.755-86.656v-586.709c0-47.829 37.504-86.656 83.755-86.656h720.469c46.293 0 83.755 38.784 83.755 86.656v586.709c0 47.829-37.504 86.656-83.755 86.656zM207.659 198.315l-19.627 13.653 141.995 175.019-150.699 161.664 20.693 21.333 202.581-181.845-194.987-189.781zM676.011 199.979h-272v40.021h272v-40.021z" />
<glyph unicode="&#xe91c;" glyph-name="ssh2" d="M120.021 820.011c-22.016 0-40.021-18.005-40.021-40.021v-676.011c0-22.016 18.005-40.021 40.021-40.021h800c22.016 0 40.021 18.005 40.021 40.021v676.011c0 22.016-18.005 40.021-40.021 40.021h-800zM923.989 139.989c0-22.016-18.005-40.021-40.021-40.021h-728.021c-22.016 0-40.021 18.005-40.021 40.021v603.989c0 22.016 18.005 40.021 40.021 40.021h728.021c22.016 0 40.021-18.005 40.021-40.021v-603.989zM404.864 331.221c-5.717-5.717-23.125 2.347-38.699 17.877l-141.141 141.099c-15.531 15.573-25.984 30.592-23.211 33.365s18.517-6.955 34.859-21.632l148.821-133.632c16.341-14.677 25.088-31.403 19.371-37.12zM404.864 340.565c5.717-5.717-2.944-22.443-19.285-37.205l-148.437-133.931c-16.299-14.763-32.085-24.405-35.029-21.461s7.381 18.048 22.955 33.621l141.141 141.141c15.531 15.531 32.939 23.595 38.699 17.877zM408.021 167.979h256v-20.011h-256v20.011z" />
<glyph unicode="&#xe91d;" glyph-name="ssl" d="M785.877 507.221c-27.392 0-54.784 0-54.784 0s0 54.784 0 164.309-109.568 219.093-219.093 219.093-219.093-109.568-219.093-219.093 0-164.309 0-164.309-27.392 0-54.784 0c-27.392 0-54.784-27.392-54.784-54.784s0-356.053 0-383.445c0-27.392 27.392-54.784 54.784-54.784s520.405 0 547.755 0c27.392 0 54.784 27.392 54.784 54.784s0 356.053 0 383.445-27.392 54.784-54.784 54.784zM621.568 397.653h-328.661v-54.784h328.661v-54.784h-328.661v-54.784h328.661v-54.784h-328.661v-54.784h328.661v-54.784h-383.445v383.445h383.445v-54.784zM621.568 507.221h-219.093c0 0 0 109.568 0 164.309s54.784 109.568 109.525 109.568c54.784 0 109.568-54.784 109.568-109.568s0-164.309 0-164.309z" />
<glyph unicode="&#xe91e;" glyph-name="storage" d="M931.285 281.6c3.243-8.192-1.365-14.891-10.155-14.933l-820.181-0.341c-8.789 0-13.397 6.741-10.24 14.933l207.659 539.136c3.157 8.192 12.971 15.573 21.76 15.573h377.557c8.789 0 18.645-7.381 21.845-15.573l211.755-538.837zM123.989 221.099c-22.016 0-40.021-18.005-40.021-40.021v-95.275c0-22.016 18.005-40.021 40.021-40.021h776.021c22.016 0 40.021 18.005 40.021 40.021v95.275c0 22.016-18.005 40.021-40.021 40.021h-776.021zM846.507 105.984c-13.568 0-24.619 11.904-24.619 26.539s11.008 26.539 24.619 26.539 24.619-11.904 24.619-26.539c0-14.635-11.008-26.539-24.619-26.539z" />
<glyph unicode="&#xe91f;" glyph-name="tasks" d="M184.32 784.683c-22.016 0-40.021-18.005-40.021-40.021v-666.027c0-22.016 18.005-40.021 40.021-40.021h643.328c22.016 0 40.021 18.005 40.021 40.021v666.027c0 22.016-18.005 40.021-40.021 40.021h-643.328zM806.443 143.189c0-22.016-18.005-40.021-40.021-40.021h-520.875c-22.016 0-40.021 18.005-40.021 40.021v536.96c0 22.016 18.005 40.021 40.021 40.021h520.875c22.016 0 40.021-18.005 40.021-40.021v-536.96zM673.109 700.032c-12.459 15.488-23.851 34.432-25.856 42.155s-3.243 32-3.243 54.016v47.787c0 22.016-18.859 40.021-40.875 40.021h-173.269c-22.016 0-41.813-18.005-41.813-40.021v-47.787c0-22.016-1.024-46.336-3.413-54.101s-14.635-26.624-27.733-42.112-5.419-28.032 16.597-28.032h282.283c22.016 0 29.824 12.544 17.365 28.032zM539.989 288c0-4.395-3.627-8.021-8.021-8.021h-40.021c-4.395 0-8.021 3.627-8.021 8.021v288c0 4.395 3.627 8.021 8.021 8.021h40.021c4.395 0 8.021-3.627 8.021-8.021v-288zM544 197.333c0-17.664-14.336-32-32-32s-32 14.336-32 32c0 17.664 14.336 32 32 32s32-14.336 32-32z" />
<glyph unicode="&#xe920;" glyph-name="tasks2" d="M80 842.667c-11.008 0-20.011-9.003-20.011-20.011v-169.941c0-11.008 9.003-20.011 20.011-20.011h864c11.008 0 20.011 9.003 20.011 20.011v169.899c0 11.008-9.003 20.011-20.011 20.011h-864zM880 722.731c0-11.008-9.003-20.011-20.011-20.011h-436.011c-11.008 0-20.011 9.003-20.011 20.011v29.995c0 11.008 9.003 20.011 20.011 20.011h436.011c11.008 0 20.011-9.003 20.011-20.011v-29.995zM80 562.773c-11.008 0-20.011-9.003-20.011-20.011v-169.899c0-11.008 9.003-20.011 20.011-20.011h864c11.008 0 20.011 9.003 20.011 20.011v169.899c0 11.008-9.003 20.011-20.011 20.011h-864zM880 442.837c0-11.008-9.003-20.011-20.011-20.011h-116.011c-11.008 0-20.011 9.003-20.011 20.011v29.995c0 11.008 9.003 20.011 20.011 20.011h116.011c11.008 0 20.011-9.003 20.011-20.011v-29.995zM80 282.88c-11.008 0-20.011-9.003-20.011-20.011v-169.899c0-11.008 9.003-20.011 20.011-20.011h864c11.008 0 20.011 9.003 20.011 20.011v169.899c0 11.008-9.003 20.011-20.011 20.011h-864zM880 162.944c0-11.008-9.003-20.011-20.011-20.011h-328.021c-11.008 0-20.011 9.003-20.011 20.011v29.952c0 11.008 9.003 20.011 20.011 20.011h328.021c11.008 0 20.011-9.003 20.011-20.011v-29.952z" />
<glyph unicode="&#xe921;" glyph-name="undo" d="M761.856-64c113.707 206.037 132.907 520.32-313.856 509.824v-253.824l-384 384 384 384v-248.363c534.955 13.952 594.56-472.235 313.856-775.637z" />
<glyph unicode="&#xe922;" glyph-name="uniE619" d="M896 608v216.021h-768v-216.021h388.011v-64h-388.011v-216.021h388.011v-64h-388.011v-216.021h768v216.021h-360.021v64h360.021v216.021h-360.021v64h360.021zM805.333 187.989c19.883 0 36.011-16.128 36.011-36.011s-16.128-36.011-36.011-36.011-36.011 16.128-36.011 36.011 16.128 36.011 36.011 36.011zM693.333 187.989c19.883 0 36.011-16.128 36.011-36.011s-16.128-36.011-36.011-36.011-36.011 16.128-36.011 36.011 16.128 36.011 36.011 36.011zM805.333 468.011c19.883 0 36.011-16.128 36.011-36.011s-16.128-36.011-36.011-36.011-36.011 16.128-36.011 36.011c0 19.883 16.128 36.011 36.011 36.011zM693.333 468.011c19.883 0 36.011-16.128 36.011-36.011s-16.128-36.011-36.011-36.011-36.011 16.128-36.011 36.011c0 19.883 16.128 36.011 36.011 36.011zM805.333 747.989c19.883 0 36.011-16.128 36.011-36.011s-16.128-36.011-36.011-36.011-36.011 16.128-36.011 36.011 16.128 36.011 36.011 36.011zM693.333 747.989c19.883 0 36.011-16.128 36.011-36.011s-16.128-36.011-36.011-36.011-36.011 16.128-36.011 36.011 16.128 36.011 36.011 36.011z" />
<glyph unicode="&#xe923;" glyph-name="users" d="M963.413 48.64c0 0-1.749 207.403-11.947 224.725-15.275 25.856-50.645 43.605-116.437 71.083-65.579 27.392-86.571 14.549-86.571 64.043 0 29.739 20.011 20.053 28.843 74.453 3.627 22.613 21.291 0.427 24.704 51.883 0 20.523-9.643 25.685-9.643 25.685s4.864 30.421 6.784 53.803c2.389 29.184-14.677 104.448-105.728 104.448s-108.032-75.307-105.685-104.448c1.877-23.381 6.741-53.803 6.741-53.803s-9.643-5.12-9.643-25.685c3.413-51.541 21.077-29.355 24.747-51.883 8.747-54.4 28.757-44.672 28.757-74.453 0-33.621-9.728-19.115-36.565-37.973 143.232-71.723 162.432-86.315 162.432-150.443v-171.435h199.168zM531.243 319.616c-87.467 36.523-115.371 31.36-115.371 97.365 0 39.595 26.667 26.709 38.443 99.285 4.779 30.123 28.459 0.469 32.939 69.205 0 27.435-12.843 34.219-12.843 34.219s6.528 40.533 9.131 71.765c3.157 38.827-19.627 139.221-140.971 139.221s-144.085-100.395-140.928-139.221c2.56-31.189 9.045-71.765 9.045-71.765s-12.843-6.827-12.843-34.219c4.565-68.736 28.117-39.125 32.981-69.163 11.691-72.576 38.443-59.648 38.443-99.285 0-65.963-27.989-60.885-115.371-97.365-26.667-11.136-74.539-28.416-74.539-69.888v-201.088h614.187c0 0 0 135.253 0 160.725 0 37.888-74.581 73.557-162.261 110.251z" />
<glyph unicode="&#xe924;" glyph-name="vps_stats" d="M128 64h896v-128h-1024v1024h128zM288 128c-53.035 0-96 42.965-96 96s42.965 96 96 96c2.816 0 5.632-0.171 8.405-0.384l103.211 171.989c-9.813 15.061-15.573 33.067-15.573 52.437 0 53.035 42.965 96 96 96s96-42.965 96-96c0-19.328-5.717-37.333-15.573-52.437l103.211-171.989c2.731 0.213 5.547 0.384 8.405 0.384 2.133 0 4.267-0.085 6.315-0.213l170.368 298.112c-10.539 15.403-16.683 34.048-16.683 54.101 0 53.035 42.965 96 96 96s96-42.965 96-96c0-53.035-42.965-96-96-96-2.133 0-4.267 0.085-6.357 0.213l-170.368-298.112c10.539-15.403 16.725-34.048 16.725-54.101 0-53.035-42.965-96-96-96s-96 42.965-96 96c0 19.328 5.717 37.333 15.573 52.395l-103.211 171.989c-2.731-0.213-5.547-0.384-8.405-0.384s-5.632 0.171-8.405 0.384l-103.211-171.989c9.813-15.061 15.573-33.067 15.573-52.395 0-53.035-42.965-96-96-96z" />
<glyph unicode="&#xe925;" glyph-name="vps_stats_pie" d="M448 384v448c-247.424 0-448-200.576-448-448s200.576-448 448-448 448 200.576 448 448c0 72.021-17.024 140.117-47.232 200.405l-400.768-200.405zM912.768 712.363c-73.557 146.816-225.365 247.637-400.768 247.637v-448l400.768 200.363z" />
<glyph unicode="&#xe926;" glyph-name="vs" d="M635.989 595.627c0-21.888-14.592-39.595-32.64-39.595h-198.699c-18.005 0-32.64 17.707-32.64 39.595v4.779c0 21.888 14.635 39.595 32.64 39.595h198.699c18.005 0 32.64-17.707 32.64-39.595v-4.779zM635.989 477.269c0-20.608-14.592-37.291-32.64-37.291h-198.699c-18.005 0-32.64 16.725-32.64 37.291v5.419c0 20.608 14.635 37.291 32.64 37.291h198.699c18.005 0 32.64-16.725 32.64-37.291v-5.419zM691.371 743.979h-370.731c-18.005 0-32.64-14.635-32.64-32.64v-562.731c0-18.005 14.635-32.64 32.64-32.64h370.731c18.005 0 32.64 14.592 32.64 32.64v562.731c0 18.005-14.592 32.64-32.64 32.64zM507.648 170.923c-34.219 0-62.037 27.733-62.037 61.995s27.733 62.037 62.037 62.037 62.037-27.733 62.037-62.037-27.733-61.995-62.037-61.995zM672 436.651c0-18.005-14.592-32.64-32.64-32.64h-270.72c-18.005 0-32.64 14.592-32.64 32.64v218.752c0 18.005 14.635 32.64 32.64 32.64h270.72c18.005 0 32.64-14.635 32.64-32.64v-218.752zM525.355 232.917c0-16.427-13.312-29.696-29.696-29.696s-29.696 13.312-29.696 29.696c0 16.427 13.312 29.696 29.696 29.696s29.696-13.312 29.696-29.696zM240 566.869c0 9.472-7.68 17.152-17.152 17.152h-141.696c-9.472 0-17.152-7.68-17.152-17.152v-113.707c0-9.472 7.68-17.152 17.152-17.152h141.696c9.472 0 17.152 7.68 17.152 17.152v113.707zM224 467.627c0-10.795-7.68-19.627-17.152-19.627h-105.685c-9.472 0-17.152 8.789-17.152 19.627v4.821c0 10.795 7.68 19.627 17.152 19.627h105.685c9.472 0 17.152-8.789 17.152-19.627v-4.821zM224 532.821c0-11.52-7.68-20.821-17.152-20.821h-105.685c-9.472 0-17.152 9.301-17.152 20.821v2.347c0 11.52 7.68 20.821 17.152 20.821h105.685c9.472 0 17.152-9.301 17.152-20.821v-2.347zM154.837 374.656c-18.005 0-32.597-14.592-32.597-32.597s14.592-32.597 32.597-32.597 32.597 14.592 32.597 32.597c0 18.005-14.592 32.597-32.597 32.597zM154.837 326.485c-8.619 0-15.616 6.955-15.616 15.616s6.955 15.616 15.616 15.616 15.616-6.997 15.616-15.616c0-8.661-6.955-15.616-15.616-15.616zM267.989 590.848c0 9.472-7.68 17.152-17.152 17.152h-193.707c-9.472 0-17.152-7.68-17.152-17.152v-297.685c0-9.472 7.68-17.152 17.152-17.152h193.707c9.472 0 17.152 7.68 17.152 17.152v297.685zM256 311.595c0-8.619-6.955-15.573-15.573-15.573h-176.853c-8.619 0-15.573 6.955-15.573 15.573v268.843c0 8.619 6.955 15.573 15.573 15.573h176.853c8.619 0 15.573-6.955 15.573-15.573v-268.843zM948.011 566.869c0 9.472-7.68 17.152-17.152 17.152h-141.696c-9.472 0-17.152-7.68-17.152-17.152v-113.707c0-9.472 7.68-17.152 17.152-17.152h141.696c9.472 0 17.152 7.68 17.152 17.152v113.707zM932.011 467.627c0-10.795-7.68-19.627-17.152-19.627h-105.685c-9.472 0-17.152 8.789-17.152 19.627v4.821c0 10.795 7.68 19.627 17.152 19.627h105.685c9.472 0 17.152-8.789 17.152-19.627v-4.821zM932.011 532.821c0-11.52-7.68-20.821-17.152-20.821h-105.685c-9.472 0-17.152 9.301-17.152 20.821v2.347c0 11.52 7.68 20.821 17.152 20.821h105.685c9.472 0 17.152-9.301 17.152-20.821v-2.347zM862.848 374.656c-18.005 0-32.597-14.592-32.597-32.597s14.592-32.597 32.597-32.597c18.005 0 32.597 14.592 32.597 32.597s-14.592 32.597-32.597 32.597zM862.848 326.485c-8.661 0-15.616 6.955-15.616 15.616s6.955 15.616 15.616 15.616c8.619 0 15.616-6.997 15.616-15.616s-6.955-15.616-15.616-15.616zM976 590.848c0 9.472-7.68 17.152-17.152 17.152h-193.707c-9.472 0-17.152-7.68-17.152-17.152v-297.685c0-9.472 7.68-17.152 17.152-17.152h193.707c9.472 0 17.152 7.68 17.152 17.152v297.685zM964.011 311.595c0-8.619-6.955-15.573-15.573-15.573h-176.811c-8.619 0-15.573 6.955-15.573 15.573v268.843c0 8.619 6.955 15.573 15.573 15.573h176.811c8.619 0 15.573-6.955 15.573-15.573v-268.843z" />
<glyph unicode="&#xe927;" glyph-name="add" d="M992 576h-352v352c0 17.664-14.336 32-32 32h-192c-17.664 0-32-14.336-32-32v-352h-352c-17.664 0-32-14.336-32-32v-192c0-17.664 14.336-32 32-32h352v-352c0-17.664 14.336-32 32-32h192c17.664 0 32 14.336 32 32v352h352c17.664 0 32 14.336 32 32v192c0 17.664-14.336 32-32 32z" />
<glyph unicode="&#xe928;" glyph-name="bandwidth" d="M428.245 305.323c-31.232-54.101-10.197-98.645 33.067-123.605s92.373-20.992 123.605 33.109c31.232 54.059 228.309 536.789 211.157 546.731-17.067 9.899-336.597-402.133-367.829-456.277zM512.939 649.131c19.797 0 39.125-1.707 57.941-4.907 19.797 24.789 42.027 52.139 63.573 78.165-38.528 11.179-79.232 17.237-121.557 17.237-253.653 0-452.437-213.888-452.437-486.955 0-16.853 0.768-33.621 2.219-50.005 2.219-24.875 24.448-43.221 49.067-41.045 24.917 2.261 43.264 24.235 41.045 49.067-1.237 13.739-1.835 27.819-1.835 41.941 0 222.293 159.019 396.501 361.941 396.501zM839.509 592.64c-12.629-33.92-25.941-68.523-37.717-98.389 46.037-66.517 73.088-149.888 73.088-241.579 0-14.379-0.597-28.757-1.877-42.752-2.219-24.875 16.085-46.891 40.96-49.195 1.408-0.128 2.773-0.213 4.181-0.213 23.125 0 42.837 17.664 44.971 41.131 1.536 16.725 2.304 33.877 2.304 50.987 0 133.504-47.573 252.843-125.824 339.968z" />
<glyph unicode="&#xe929;" glyph-name="config" d="M201.728 599.253c40.875 34.432 74.709 10.709 119.893-46.080 5.12-6.357 11.947 1.109 15.787 4.779s63.488 61.952 66.389 64.683c2.901 2.816 6.443 8.021 1.792 13.867s-21.589 29.696-32.469 45.141c-79.061 112.341 216.277 188.587 170.923 189.739-23.040 0.683-115.712 1.835-129.536 0.213-56.107-6.443-126.549-63.403-162.005-89.941-46.379-34.603-63.701-54.699-66.56-57.515-13.141-12.501-2.133-41.173-25.899-63.829-25.131-23.936-40.789-5.845-55.339-19.712-7.253-6.955-27.435-23.339-33.195-28.885-5.76-5.504-6.827-14.891-0.939-22.357 0 0 55.211-66.347 59.904-72.149s17.109-10.795 24.832-3.371c7.723 7.339 27.563 26.283 30.976 29.525s-2.176 41.003 15.573 55.979v0zM451.371 574.72c-5.248 6.613-11.691 6.741-17.365 1.323l-62.763-59.435c-4.907-4.736-5.547-13.525-1.152-18.987l362.709-448.384c8.448-10.667 23.125-11.733 32.896-2.517l42.453 38.613c9.685 9.216 10.667 25.387 2.261 35.968l-359.040 453.504zM934.997 765.568c-3.243 23.467-14.421 18.517-20.267 8.533-5.717-9.899-31.531-52.309-42.112-71.467-10.496-19.115-36.267-56.576-84.565-19.584-50.219 38.571-32.683 65.493-24.021 83.627 8.789 18.219 35.755 69.12 39.723 75.52 3.84 6.443-0.725 25.045-16.213 17.237-15.573-7.851-110.293-48.725-123.477-107.392-13.397-59.733 11.307-113.024-37.163-165.973l-62.592-70.443 62.848-70.613 72.32 74.624c17.28 18.816 54.059 37.077 87.381 28.843 71.424-17.579 110.336 11.605 133.845 59.691 21.077 43.093 17.579 133.717 14.293 157.227zM184.533 116.523c-9.088-9.984-9.088-26.155 0-36.053l41.6-44.203c9.088-9.941 23.509-5.717 32.597 4.181l214.613 229.248-65.792 81.365-223.061-234.539z" />
<glyph unicode="&#xe92a;" glyph-name="cpu" d="M177.408 186.325c0-42.496 34.432-76.928 76.928-76.928h19.243v-67.328c0-26.539 21.547-48.085 48.085-48.085s48.085 21.547 48.085 48.085v67.328h96.171v-67.328c0-26.539 21.547-48.085 48.085-48.085s48.085 21.547 48.085 48.085v67.328h96.171v-67.328c0-26.539 21.547-48.085 48.085-48.085s48.085 21.547 48.085 48.085v67.328h19.243c42.496 0 76.928 34.432 76.928 76.928v19.243h67.328c26.539 0 48.085 21.589 48.085 48.085s-21.547 48.085-48.085 48.085h-67.328v96.171h67.328c26.539 0 48.085 21.547 48.085 48.085s-21.547 48.085-48.085 48.085h-67.328v96.171h67.328c26.539 0 48.085 21.547 48.085 48.085s-21.547 48.085-48.085 48.085h-67.328v19.243c0 42.496-34.432 76.928-76.928 76.928h-19.243v67.328c0 26.539-21.547 48.085-48.085 48.085s-48.085-21.547-48.085-48.085v-67.328h-96.171v67.328c0 26.539-21.547 48.085-48.085 48.085s-48.085-21.547-48.085-48.085v-67.328h-96.171v67.328c0 26.539-21.547 48.085-48.085 48.085s-48.085-21.547-48.085-48.085v-67.328h-19.243c-42.496 0-76.928-34.432-76.928-76.928v-19.243h-67.328c-26.539 0-48.085-21.547-48.085-48.085s21.547-48.085 48.085-48.085h67.328v-96.171h-67.328c-26.539 0-48.085-21.547-48.085-48.085s21.547-48.085 48.085-48.085h67.328v-96.171h-67.328c-26.539 0-48.085-21.547-48.085-48.085s21.547-48.085 48.085-48.085h67.328v-19.243zM658.261 547.925v-203.861c0-23.467-18.859-42.325-42.325-42.325h-203.861c-23.467 0-42.325 18.859-42.325 42.325v203.861c0 23.467 18.859 42.325 42.325 42.325h203.861c23.467 0 42.325-18.859 42.325-42.325z" />
<glyph unicode="&#xe92b;" glyph-name="dashboard" d="M512 893.995c-248.533 0-450.005-201.472-450.005-450.005s201.472-450.005 450.005-450.005c248.533 0 450.005 201.472 450.005 450.005s-201.472 450.005-450.005 450.005zM512 106.496c-186.411 0-337.493 151.125-337.493 337.493s151.125 337.493 337.493 337.493c186.411 0 337.493-151.125 337.493-337.493s-151.125-337.493-337.493-337.493zM455.723 669.013c0 31.061 25.173 56.235 56.277 56.235s56.277-25.173 56.277-56.235-25.173-56.277-56.277-56.277c-31.061 0-56.277 25.173-56.277 56.235zM624.512 612.736c0 31.061 25.173 56.235 56.235 56.235s56.277-25.173 56.277-56.235-25.173-56.277-56.277-56.277-56.235 25.173-56.235 56.277zM287.019 612.736c0 31.061 25.173 56.235 56.277 56.235s56.277-25.173 56.277-56.235-25.173-56.277-56.277-56.277-56.235 25.173-56.235 56.277zM455.723 275.243c0 0-27.904-119.893 96.512-56.235 16 56.235 16 56.235 16 56.235l75.733 249.259-188.245-249.259z" />
<glyph unicode="&#xe92c;" glyph-name="databackup" d="M946.517 274.731c16.853-158.037-116.651-268.16-251.435-254.848-139.52 13.781-246.485 150.571-183.467 322.816 21.376-2.432 39.339-8.277 61.141-10.197-66.517-132.096 29.568-258.901 152.917-254.848 87.851 2.901 166.741 77.995 163.072 176.683-3.627 97.493-70.997 149.376-166.485 163.115-7.851-13.653-1.237-41.899-3.413-61.141-7.595-13.141-21.163 9.941-30.592 16.981-30.421 22.571-70.101 49.579-101.931 71.339 38.059 38.997 87.851 66.219 129.109 101.973 7.851-15.915 1.152-46.421 3.413-67.968 125.355-17.451 214.699-82.261 227.627-203.861zM813.995 716.459c0.341-38.997-42.581-86.699-74.752-98.517-12.587-4.693-28.757-3.157-40.789-6.827-20.139-6.229-33.408-23.253-50.987-30.592-118.272-49.195-363.051-23.424-462.123 23.808-40.32 19.2-95.445 59.179-95.147 112.128 0.213 48.469 46.251 83.797 78.123 101.931 62.848 35.755 155.008 48.768 231.083 54.4 78.165 5.76 183.211-0.043 261.632-23.808 51.669-15.701 152.363-63.104 152.875-132.523zM810.581 662.101c6.229-37.931 4.864-97.707 0-135.936-7.509 2.645-13.269 7.125-23.723 6.827 1.579 26.496-6.315 43.52-16.981 57.771 12.16 25.173 40.192 34.56 40.789 71.381zM559.147 519.339c11.136-7.808-12.501-14.677-20.352-23.723-17.152-19.84-32.683-53.803-6.784-84.949-14.208-3.883-19.115 0.043-34.005-3.413-15.36-3.541-28.288-18.005-40.747-20.395-18.645-3.627-50.731 1.579-78.165 3.413-106.027 7.168-261.931 53.12-285.397 132.523-11.947 40.448 1.835 87.595-3.371 132.523 64.341-135.083 280.917-156.331 468.864-135.893zM491.179 53.845c-139.819-2.048-310.272 20.352-377.131 98.56-30.507 35.669-23.979 89.643-23.765 166.485 53.419-108.501 191.957-131.968 343.168-142.72 8.789-48.981 43.605-90.027 57.771-122.283zM440.277 342.699c-10.581-34.731-16.299-74.325-13.611-122.325-99.243 4.949-225.707 28.843-288.811 78.123-48.171 37.589-53.717 90.197-47.573 190.293 50.987-114.389 196.352-134.357 349.952-146.133z" />
<glyph unicode="&#xe92d;" glyph-name="delete" d="M1014.656 137.344c0 0 0 0 0 0l-310.656 310.656 310.656 310.656c0 0 0 0 0 0 3.328 3.328 5.76 7.253 7.296 11.435 4.267 11.392 1.835 24.661-7.339 33.835l-146.731 146.731c-9.131 9.131-22.443 11.563-33.835 7.339-4.181-1.536-8.064-3.968-11.435-7.296 0 0 0 0 0 0l-310.656-310.656-310.656 310.656c0 0 0 0 0 0-3.328 3.328-7.253 5.76-11.435 7.296-11.392 4.267-24.661 1.835-33.835-7.339l-146.731-146.731c-9.131-9.131-11.563-22.443-7.339-33.835 1.536-4.181 3.968-8.064 7.296-11.435 0 0 0 0 0 0l310.656-310.656-310.656-310.656c0 0 0 0 0 0-3.328-3.328-5.76-7.253-7.296-11.435-4.267-11.392-1.835-24.661 7.339-33.835l146.731-146.731c9.131-9.131 22.443-11.563 33.835-7.339 4.181 1.536 8.064 3.968 11.435 7.296 0 0 0 0 0 0l310.656 310.656 310.656-310.656c0 0 0 0 0 0 3.328-3.328 7.253-5.76 11.435-7.296 11.392-4.267 24.704-1.835 33.835 7.339l146.731 146.731c9.131 9.131 11.563 22.443 7.339 33.835-1.536 4.139-3.968 8.064-7.296 11.435z" />
<glyph unicode="&#xe986;" glyph-name="search" d="M992.262 88.604l-242.552 206.294c-25.074 22.566-51.89 32.926-73.552 31.926 57.256 67.068 91.842 154.078 91.842 249.176 0 212.078-171.922 384-384 384-212.076 0-384-171.922-384-384s171.922-384 384-384c95.098 0 182.108 34.586 249.176 91.844-1-21.662 9.36-48.478 31.926-73.552l206.294-242.552c35.322-39.246 93.022-42.554 128.22-7.356s31.892 92.898-7.354 128.22zM384 320c-141.384 0-256 114.616-256 256s114.616 256 256 256 256-114.616 256-256-114.614-256-256-256z" />
<glyph unicode="&#xea07;" glyph-name="alert" d="M512 867.226l429.102-855.226h-858.206l429.104 855.226zM512 960c-22.070 0-44.14-14.882-60.884-44.648l-437.074-871.112c-33.486-59.532-5-108.24 63.304-108.24h869.308c68.3 0 96.792 48.708 63.3 108.24h0.002l-437.074 871.112c-16.742 29.766-38.812 44.648-60.882 44.648v0zM576 128c0-35.346-28.654-64-64-64s-64 28.654-64 64c0 35.346 28.654 64 64 64s64-28.654 64-64zM512 256c-35.346 0-64 28.654-64 64v192c0 35.346 28.654 64 64 64s64-28.654 64-64v-192c0-35.346-28.654-64-64-64z" />
<glyph unicode="&#xea08;" glyph-name="notify" d="M512 864c-111.118 0-215.584-43.272-294.156-121.844s-121.844-183.038-121.844-294.156c0-111.118 43.272-215.584 121.844-294.156s183.038-121.844 294.156-121.844c111.118 0 215.584 43.272 294.156 121.844s121.844 183.038 121.844 294.156c0 111.118-43.272 215.584-121.844 294.156s-183.038 121.844-294.156 121.844zM512 960v0c282.77 0 512-229.23 512-512s-229.23-512-512-512c-282.77 0-512 229.23-512 512s229.23 512 512 512zM448 256h128v-128h-128zM448 768h128v-384h-128z" />
<glyph unicode="&#xea09;" glyph-name="help" d="M448 256h128v-128h-128zM704 704c35.346 0 64-28.654 64-64v-192l-192-128h-128v64l192 128v64h-320v128h384zM512 864c-111.118 0-215.584-43.272-294.156-121.844s-121.844-183.038-121.844-294.156c0-111.118 43.272-215.584 121.844-294.156s183.038-121.844 294.156-121.844c111.118 0 215.584 43.272 294.156 121.844s121.844 183.038 121.844 294.156c0 111.118-43.272 215.584-121.844 294.156s-183.038 121.844-294.156 121.844zM512 960v0c282.77 0 512-229.23 512-512s-229.23-512-512-512c-282.77 0-512 229.23-512 512s229.23 512 512 512z" />
<glyph unicode="&#xea0c;" glyph-name="info" d="M448 656c0 26.4 21.6 48 48 48h32c26.4 0 48-21.6 48-48v-32c0-26.4-21.6-48-48-48h-32c-26.4 0-48 21.6-48 48v32zM640 192h-256v64h64v192h-64v64h192v-256h64zM512 960c-282.77 0-512-229.23-512-512s229.23-512 512-512 512 229.23 512 512-229.23 512-512 512zM512 32c-229.75 0-416 186.25-416 416s186.25 416 416 416 416-186.25 416-416-186.25-416-416-416z" />
<glyph unicode="&#xea0e;" glyph-name="blocked" d="M874.040 810.040c-96.706 96.702-225.28 149.96-362.040 149.96s-265.334-53.258-362.040-149.96c-96.702-96.706-149.96-225.28-149.96-362.040s53.258-265.334 149.96-362.040c96.706-96.702 225.28-149.96 362.040-149.96s265.334 53.258 362.040 149.96c96.702 96.706 149.96 225.28 149.96 362.040s-53.258 265.334-149.96 362.040zM896 448c0-82.814-26.354-159.588-71.112-222.38l-535.266 535.268c62.792 44.758 139.564 71.112 222.378 71.112 211.738 0 384-172.262 384-384zM128 448c0 82.814 26.354 159.586 71.112 222.378l535.27-535.268c-62.794-44.756-139.568-71.11-222.382-71.11-211.738 0-384 172.262-384 384z" />
<glyph unicode="&#xf09d;" glyph-name="credit-card" horiz-adv-x="1097" d="M1005.714 877.714c50.286 0 91.429-41.143 91.429-91.429v-694.857c0-50.286-41.143-91.429-91.429-91.429h-914.286c-50.286 0-91.429 41.143-91.429 91.429v694.857c0 50.286 41.143 91.429 91.429 91.429h914.286zM91.429 804.571c-9.714 0-18.286-8.571-18.286-18.286v-128h950.857v128c0 9.714-8.571 18.286-18.286 18.286h-914.286zM1005.714 73.143c9.714 0 18.286 8.571 18.286 18.286v347.429h-950.857v-347.429c0-9.714 8.571-18.286 18.286-18.286h914.286zM146.286 146.286v73.143h146.286v-73.143h-146.286zM365.714 146.286v73.143h219.429v-73.143h-219.429z" />
<glyph unicode="&#xf15b;" glyph-name="file" horiz-adv-x="878" d="M585.143 658.286v269.714c8-5.143 14.857-10.286 20.571-16l233.143-233.143c5.714-5.714 10.857-12.571 16-20.571h-269.714zM512 640c0-30.286 24.571-54.857 54.857-54.857h310.857v-603.429c0-30.286-24.571-54.857-54.857-54.857h-768c-30.286 0-54.857 24.571-54.857 54.857v914.286c0 30.286 24.571 54.857 54.857 54.857h457.143v-310.857z" />
<glyph unicode="&#xf15c;" glyph-name="file-text" horiz-adv-x="878" d="M838.857 678.857c5.714-5.714 10.857-12.571 16-20.571h-269.714v269.714c8-5.143 14.857-10.286 20.571-16zM566.857 585.143h310.857v-603.429c0-30.286-24.571-54.857-54.857-54.857h-768c-30.286 0-54.857 24.571-54.857 54.857v914.286c0 30.286 24.571 54.857 54.857 54.857h457.143v-310.857c0-30.286 24.571-54.857 54.857-54.857zM658.286 164.571v36.571c0 10.286-8 18.286-18.286 18.286h-402.286c-10.286 0-18.286-8-18.286-18.286v-36.571c0-10.286 8-18.286 18.286-18.286h402.286c10.286 0 18.286 8 18.286 18.286zM658.286 310.857v36.571c0 10.286-8 18.286-18.286 18.286h-402.286c-10.286 0-18.286-8-18.286-18.286v-36.571c0-10.286 8-18.286 18.286-18.286h402.286c10.286 0 18.286 8 18.286 18.286zM658.286 457.143v36.571c0 10.286-8 18.286-18.286 18.286h-402.286c-10.286 0-18.286-8-18.286-18.286v-36.571c0-10.286 8-18.286 18.286-18.286h402.286c10.286 0 18.286 8 18.286 18.286z" />
</font>
</defs>
</svg>
