<?xml version="1.0" encoding="UTF-8" standalone="no"?>
<!-- Created with Inkscape (http://www.inkscape.org/) -->

<svg
   width="173.08162mm"
   height="117.32727mm"
   viewBox="0 0 173.08162 117.32726"
   version="1.1"
   id="svg5"
   sodipodi:docname="backuply-logo.svg"
   inkscape:version="1.1.2 (b8e25be833, 2022-02-05)"
   inkscape:export-filename="E:\Assets\backuply-media-assets\Backuply-logo.png"
   inkscape:export-xdpi="72.248894"
   inkscape:export-ydpi="72.248894"
   xmlns:inkscape="http://www.inkscape.org/namespaces/inkscape"
   xmlns:sodipodi="http://sodipodi.sourceforge.net/DTD/sodipodi-0.dtd"
   xmlns="http://www.w3.org/2000/svg"
   xmlns:svg="http://www.w3.org/2000/svg"
   xmlns:rdf="http://www.w3.org/1999/02/22-rdf-syntax-ns#"
   xmlns:cc="http://creativecommons.org/ns#"
   xmlns:dc="http://purl.org/dc/elements/1.1/">
  <title
     id="title920">Backuply Logo</title>
  <sodipodi:namedview
     id="namedview7"
     pagecolor="#ffffff"
     bordercolor="#666666"
     borderopacity="1.0"
     inkscape:pageshadow="2"
     inkscape:pageopacity="0.0"
     inkscape:pagecheckerboard="0"
     inkscape:document-units="mm"
     showgrid="false"
     showguides="true"
     inkscape:guide-bbox="true"
     inkscape:zoom="0.44976872"
     inkscape:cx="645.88751"
     inkscape:cy="314.60614"
     inkscape:window-width="1920"
     inkscape:window-height="991"
     inkscape:window-x="-9"
     inkscape:window-y="-9"
     inkscape:window-maximized="1"
     inkscape:current-layer="layer1"
     fit-margin-top="0"
     fit-margin-left="0"
     fit-margin-right="0"
     fit-margin-bottom="0" />
  <defs
     id="defs2">
    <clipPath
       clipPathUnits="userSpaceOnUse"
       id="clipPath14029">
      <path
         id="path14031"
         style="fill:#ff0000;fill-opacity:0.408624;stroke-width:0.0274513"
         d="m 107.06661,46.920269 a 51.767348,51.767348 0 0 0 -49.532377,36.750212 38.788869,38.788869 0 0 0 -38.277767,38.769729 38.788869,38.788869 0 0 0 38.788844,38.78885 38.788869,38.788869 0 0 0 0.01138,0 c 0.0432,0.0573 0.108919,0.0966 0.186553,0.0966 H 163.43681 c 0.076,0 0.14064,-0.0377 0.18397,-0.093 A 33.494353,33.494353 0 0 0 194.8721,127.8223 33.494353,33.494353 0 0 0 161.37751,94.327702 33.494353,33.494353 0 0 0 158.65726,94.445524 51.767348,51.767348 0 0 0 107.06661,46.920261 Z m -0.85628,32.844507 h 5.3e-4 c 0.0587,-7.94e-4 0.1176,0.01958 0.1633,0.06305 h 10e-4 l 35.75951,33.890964 c 0.0914,0.0867 0.0944,0.22914 0.005,0.31884 l -22.01726,0.21291 v 26.68053 c 0,0.14494 -0.11222,0.26148 -0.25167,0.26148 H 94.257082 c -0.139443,0 -0.251666,-0.11653 -0.251666,-0.26148 V 114.5022 l -22.011058,0.2129 c -0.0915,-0.0867 -0.09423,-0.22862 -0.0057,-0.31833 L 106.0491,79.833507 c 0.0442,-0.04487 0.10253,-0.06794 0.16123,-0.06873 z" />
    </clipPath>
    <filter
       inkscape:collect="always"
       style="color-interpolation-filters:sRGB"
       id="filter14033"
       x="-0.029592279"
       y="-0.027113319"
       width="1.0591846"
       height="1.0542266">
      <feGaussianBlur
         inkscape:collect="always"
         stdDeviation="2.5386828"
         id="feGaussianBlur14035" />
    </filter>
  </defs>
  <g
     inkscape:label="Layer 1"
     inkscape:groupmode="layer"
     id="layer1"
     transform="translate(-23.567997,-24.796238)">
    <path
       id="rect7891"
       style="fill:#4581ff;stroke-width:0.0275983"
       d="m 110.1111,24.796247 a 51.020378,53.089456 0 0 0 -48.81766,37.68879 38.22917,39.779514 0 0 0 -37.725443,39.759873 38.22917,39.779514 0 0 0 38.229146,39.7795 38.22917,39.779514 0 0 0 0.01122,0 c 0.04258,0.0587 0.107347,0.0991 0.183861,0.0991 H 165.66792 c 0.075,0 0.13861,-0.0387 0.18131,-0.0954 a 33.01105,34.349779 0 0 0 30.80039,-34.26364 33.01105,34.349779 0 0 0 -33.01129,-34.350022 33.01105,34.349779 0 0 0 -2.681,0.12083 51.020378,53.089456 0 0 0 -50.84623,-48.739031 z m -0.84393,33.683336 h 5.3e-4 c 0.0579,-8.14e-4 0.1159,0.02008 0.16094,0.06466 h 9.9e-4 l 35.24358,34.75652 c 0.09,0.08891 0.0931,0.234992 0.005,0.326983 l -21.69956,0.218347 v 27.361927 c 0,0.14864 -0.11061,0.26816 -0.24804,0.26816 H 97.486404 c -0.137428,0 -0.248029,-0.11951 -0.248029,-0.26816 V 94.10418 l -21.69346,0.218338 c -0.09018,-0.08891 -0.09287,-0.234459 -0.0057,-0.32646 L 109.10827,58.550069 c 0.0436,-0.04601 0.10105,-0.06967 0.1589,-0.07048 z"
       inkscape:export-filename="E:\Assets\backuply-media-assets\Backuply-logo.png"
       inkscape:export-xdpi="93.125099"
       inkscape:export-ydpi="93.125099" />
    <path
       id="rect13846"
       style="opacity:0.740402;fill:#000000;fill-opacity:0.513347;stroke:none;stroke-width:1.56264;stroke-miterlimit:4;stroke-dasharray:none;stroke-opacity:1;filter:url(#filter14033)"
       d="m 3.3783664,-8.2355464 c -0.1769057,0 -0.3188436,0.1424543 -0.3188436,0.3193603 V 216.16264 c 0,0.17691 0.1419379,0.31936 0.3188436,0.31936 H 208.63301 c 0.17691,0 0.31936,-0.14245 0.31936,-0.31936 V -7.9161861 c 0,-0.176906 -0.14245,-0.3193603 -0.31936,-0.3193603 z M 106.00827,46.92026 a 51.767348,51.767348 0 0 1 51.59065,47.525262 33.494353,33.494353 0 0 1 2.72025,-0.117822 33.494353,33.494353 0 0 1 33.49459,33.4946 33.494353,33.494353 0 0 1 -31.25132,33.41036 c -0.0433,0.0553 -0.10797,0.093 -0.18397,0.093 H 57.184899 c -0.07763,0 -0.143351,-0.0393 -0.186552,-0.0966 a 38.788869,38.788869 0 0 1 -0.01138,0 A 38.788869,38.788869 0 0 1 18.198133,122.4402 38.788869,38.788869 0 0 1 56.475898,83.670472 51.767348,51.767348 0 0 1 106.00827,46.92026 Z m -0.85628,32.844507 c -0.0587,7.94e-4 -0.11703,0.02387 -0.16123,0.06873 L 70.930313,114.39676 c -0.08853,0.0897 -0.08581,0.23163 0.0057,0.31833 l 22.011061,-0.21291 v 26.42888 c 0,0.14495 0.11222,0.26148 0.251663,0.26148 h 25.613413 c 0.13945,0 0.25167,-0.11654 0.25167,-0.26148 v -26.68054 l 22.01726,-0.21291 c 0.0894,-0.0897 0.0862,-0.23214 -0.005,-0.31885 L 105.31632,79.827812 h -5.3e-4 c -0.0457,-0.04347 -0.10459,-0.06384 -0.16329,-0.06304 z"
       clip-path="url(#clipPath14029)"
       transform="matrix(0.98557063,0,0,1.0255395,4.5893916,-23.322343)"
       inkscape:export-filename="E:\Assets\backuply-media-assets\Backuply-logo.png"
       inkscape:export-xdpi="93.125099"
       inkscape:export-ydpi="93.125099" />
  </g>
  <metadata
     id="metadata918">
    <rdf:RDF>
      <cc:Work
         rdf:about="">
        <dc:title>Backuply Logo</dc:title>
        <dc:creator>
          <cc:Agent>
            <dc:title>Vardana</dc:title>
          </cc:Agent>
        </dc:creator>
        <dc:rights>
          <cc:Agent>
            <dc:title>Softaculous</dc:title>
          </cc:Agent>
        </dc:rights>
      </cc:Work>
    </rdf:RDF>
  </metadata>
</svg>
