<svg version="1.2" xmlns="http://www.w3.org/2000/svg" viewBox="0 0 24 24" width="24" height="24">
	<title>wifi-svg</title>
	<style>
			.s0 { fill: #6BCB77 } 
			.s1 { fill: #ff6b6b } 
	</style>
	<path id="Layer" class="s0" d="m12 19q-0.4 0-0.7-0.3-0.3-0.3-0.3-0.7 0-0.4 0.3-0.7 0.3-0.3 0.7-0.3 0.4 0 0.7 0.3 0.3 0.3 0.3 0.7 0 0.4-0.3 0.7-0.3 0.3-0.7 0.3zm-2.1-2.6q-0.2 0.4-0.6 0.5-0.4 0.1-0.7 0-0.4-0.2-0.5-0.6-0.2-0.4 0-0.8c0.4-0.7 0.9-1.3 1.6-1.7 0.7-0.4 1.5-0.7 2.3-0.7 0.8 0 1.6 0.3 2.3 0.7 0.7 0.4 1.2 1 1.6 1.7 0.1 0.3 0.1 0.6 0.1 0.8-0.1 0.3-0.3 0.5-0.5 0.6-0.3 0.1-0.6 0.2-0.8 0.1-0.3-0.1-0.5-0.3-0.6-0.6q-0.3-0.6-0.9-0.9-0.5-0.4-1.2-0.4-0.7 0-1.2 0.4-0.6 0.3-0.9 0.9zm-3.1-2.8q-0.3 0.3-0.7 0.4-0.4 0-0.7-0.2-0.3-0.3-0.4-0.7 0-0.4 0.2-0.7c0.8-1.1 1.8-1.9 3-2.5 1.2-0.6 2.5-0.9 3.8-0.9 1.3 0 2.6 0.3 3.8 0.9 1.2 0.6 2.2 1.4 3 2.5q0.2 0.3 0.2 0.7-0.1 0.4-0.4 0.7-0.3 0.2-0.7 0.2-0.4-0.1-0.7-0.4c-0.6-0.8-1.4-1.5-2.3-1.9-0.9-0.5-1.9-0.7-2.9-0.7-1 0-2 0.2-2.9 0.7-0.9 0.4-1.7 1.1-2.3 1.9zm-3.1-2.9q-0.2 0.2-0.6 0.3-0.4 0-0.7-0.3-0.3-0.3-0.4-0.7 0-0.4 0.3-0.7c4.8-5.3 13.1-5.8 18.5-0.9q0.5 0.4 0.9 0.9 0.3 0.3 0.3 0.8 0 0.4-0.3 0.6-0.3 0.3-0.8 0.3-0.4 0-0.6-0.3-0.1-0.1-0.2-0.2-0.1-0.2-0.2-0.3-0.1-0.1-0.3-0.2-0.1-0.1-0.2-0.2c-4.5-4.1-11.6-3.7-15.7 0.9z"/>
	<path id="Shape 1" class="s1" d="m3.6 19c-0.3-0.4-0.2-1 0.2-1.4l16-12c0.4-0.3 1-0.2 1.4 0.2 0.3 0.4 0.2 1.1-0.2 1.4l-16 12c-0.4 0.4-1.1 0.3-1.4-0.2z"/>
</svg>