<!DOCTYPE svg PUBLIC "-//W3C//DTD SVG 1.1//EN" "http://www.w3.org/Graphics/SVG/1.1/DTD/svg11.dtd">
<!-- Uploaded to: SVG Repo, www.svgrepo.com, Transformed by: SVG Repo Mixer Tools -->
<svg fill="#0075FF" height="800px" width="800px" version="1.1" id="Layer_1" xmlns="http://www.w3.org/2000/svg" xmlns:xlink="http://www.w3.org/1999/xlink" viewBox="0 0 512 512" xml:space="preserve" stroke="#0075FF" stroke-width="3.072">
<g id="SVGRepo_bgCarrier" stroke-width="0"/>
<g id="SVGRepo_tracerCarrier" stroke-linecap="round" stroke-linejoin="round"/>
<g id="SVGRepo_iconCarrier"> <g> <g> <path d="M503.467,0H8.533C3.823,0,0,3.814,0,8.533v392.533c0,2.381,0.998,4.659,2.748,6.263l110.933,102.4 c1.57,1.459,3.644,2.27,5.786,2.27h384c4.71,0,8.533-3.814,8.533-8.533V8.533C512,3.814,508.177,0,503.467,0z M215.834,364.433 c2.167,2.176,5.333,2.995,8.277,2.202l93.722-25.557c1.425-0.358,2.765-1.092,3.883-2.193c0-0.008,0.009-0.008,0.009-0.017 c0.06,0.009,0.017-0.017,0.017-0.017c0-0.008,0.009-0.008,0.017-0.017l6.042-6.033h26.035l13.099,19.652v88.704L353.835,460.8 H158.165l-13.099-19.652v-88.695l13.099-19.652h61.841l-6.374,23.356C212.83,359.108,213.666,362.266,215.834,364.433z M237.602,333.141l14.225-52.173l47.471,47.471l-52.173,14.225L237.602,333.141z M315.733,320.734l-56.201-56.201l107.401-107.401 l56.201,56.201L315.733,320.734z M379,145.067l13.534-13.534l56.201,56.201L435.2,201.267L379,145.067z M404.599,119.467 L435.2,88.866l56.201,56.201L460.8,175.667L404.599,119.467z M93.867,17.067h324.267v64.734L386.5,113.434l-25.6,25.6l-74.3,74.3 H122.308L93.867,192V17.067z M494.933,494.933h-372.13L17.067,397.338V17.067H76.8v179.2c0,2.68,1.263,5.214,3.413,6.827 l34.133,25.6c1.476,1.109,3.277,1.707,5.12,1.707h150.067l-28.1,28.1c0,0.009-0.008,0.009-0.017,0.017 c-0.009,0-0.009,0.017-0.017,0.017c-0.026,0.034-0.017,0.017-0.017,0.017c-1.092,1.118-1.826,2.466-2.185,3.883l-14.541,53.299 H153.6c-2.85,0-5.513,1.425-7.1,3.797l-17.067,25.6c-0.93,1.399-1.434,3.055-1.434,4.736v93.867c0,1.681,0.503,3.337,1.434,4.736 l17.067,25.6c1.587,2.372,4.25,3.797,7.1,3.797h204.8c2.85,0,5.513-1.425,7.1-3.797l17.067-25.6 c0.93-1.399,1.434-3.055,1.434-4.736v-93.867c0-1.681-0.503-3.337-1.434-4.736l-17.067-25.6c-1.587-2.372-4.25-3.797-7.1-3.797 h-13.534l150.067-150.067V494.933z M494.933,124.467l-53.7-53.7c-1.664-1.664-3.849-2.5-6.033-2.5v-51.2h59.733V124.467z"/> </g> </g> <g> <g> <path d="M196.267,358.4c-4.71,0-8.533,3.814-8.533,8.533v59.733c0,4.719,3.823,8.533,8.533,8.533s8.533-3.814,8.533-8.533v-59.733 C204.8,362.214,200.977,358.4,196.267,358.4z"/> </g> </g> </g>
</svg>