<?xml version="1.0" encoding="UTF-8"?>
<!DOCTYPE svg PUBLIC "-//W3C//DTD SVG 1.1//EN" "http://www.w3.org/Graphics/SVG/1.1/DTD/svg11.dtd">
<!-- Creator: CorelDRAW 2021 (64-Bit) -->
<svg class="dark:text-white fill-current" xmlns="http://www.w3.org/2000/svg" xml:space="preserve" width="3508px" height="2480px" version="1.1" style="shape-rendering:geometricPrecision; text-rendering:geometricPrecision; image-rendering:optimizeQuality; fill-rule:evenodd; clip-rule:evenodd"
viewBox="0 0 3508 2480.4"
 xmlns:xlink="http://www.w3.org/1999/xlink"
 xmlns:xodm="http://www.corel.com/coreldraw/odm/2003">
 <defs>
  <style type="text/css">
   <![CDATA[
    .str0 {stroke:#0075FF;stroke-width:82.68;stroke-miterlimit:22.9256}
    .str1 {stroke:#0075FF;stroke-width:2.36;stroke-linecap:round;stroke-linejoin:round;stroke-miterlimit:22.9256}
    .fil0 {fill:none}
    .fil2 {fill:#0075FF}
    .fil1 {fill:white}
   ]]>
  </style>
 </defs>
 <g id="Layer_x0020_1">
  <metadata id="CorelCorpID_0Corel-Layer"/>
  <path class="fil0 str0" d="M734.59 1116.14c-12.13,4.07 -18.34,10.07 -30.24,19.14 -39.78,30.33 -23.4,18.82 -53.12,46.93 -48.69,46.05 -74.22,81.46 -109.57,140.62 -36.69,61.39 -89.71,230.66 -64.6,320.1 25.02,89.16 127.39,141.71 224.38,172.77 247.99,79.43 859.16,75.39 925.55,-170.44 25.41,-94.11 -26.18,-258.99 -65.08,-323.77 -29.98,-49.93 -51.58,-79.3 -83.36,-116.76 -18.05,-21.28 -82.59,-76.09 -106.58,-87.37 -78.47,65.08 -167.41,130.34 -320.85,130.13 -66.39,-0.09 -129.8,-14.84 -184.2,-39.7 -69.09,-31.57 -82.32,-49.36 -132.33,-91.65z"/>
  <path class="fil0 str0" d="M1016.95 404.38c-69.91,4.99 -159.82,39.92 -209.7,83.9 -20.98,18.5 -35.22,27.99 -51.04,49.18 -7.06,9.45 -13.74,16.44 -20.34,25.4 -88.76,120.43 -100.66,283.21 -29.62,417.93 68.61,130.12 213.95,221.47 382.08,206.01 121.17,-11.15 205.73,-72.84 259.3,-133.28 135.92,-153.36 123.52,-402.93 -13.56,-529.27 -30.46,-28.07 -20.79,-30.21 -79.91,-66.13 -24.18,-14.68 -38.77,-21.27 -68.08,-32.23 -52.06,-19.48 -108.34,-25.85 -169.13,-21.51z"/>
  <path class="fil0 str0" d="M2138.16 1116.14c-12.13,4.07 -18.34,10.07 -30.23,19.14 -39.79,30.33 -23.41,18.82 -53.13,46.93 -48.69,46.05 -74.21,81.46 -109.57,140.62 -36.68,61.39 -89.7,230.66 -64.6,320.1 25.03,89.16 127.4,141.71 224.38,172.77 247.99,79.43 859.16,75.39 925.55,-170.44 25.42,-94.11 -26.18,-258.99 -65.08,-323.77 -29.98,-49.93 -51.57,-79.3 -83.36,-116.76 -18.05,-21.28 -82.58,-76.09 -106.58,-87.37 -78.47,65.08 -167.41,130.34 -320.85,130.13 -66.39,-0.09 -129.79,-14.84 -184.19,-39.7 -69.1,-31.57 -82.33,-49.36 -132.34,-91.65z"/>
  <path class="fil0 str0" d="M2420.53 404.38c-69.91,4.99 -159.82,39.92 -209.7,83.9 -20.98,18.5 -35.23,27.99 -51.04,49.18 -7.06,9.45 -13.74,16.44 -20.35,25.4 -88.76,120.43 -100.66,283.21 -29.62,417.93 68.61,130.12 213.95,221.47 382.08,206.01 121.17,-11.15 205.73,-72.84 259.3,-133.28 135.92,-153.36 123.52,-402.93 -13.56,-529.27 -30.46,-28.07 -20.79,-30.21 -79.91,-66.13 -24.17,-14.68 -38.76,-21.27 -68.07,-32.23 -52.07,-19.48 -108.35,-25.85 -169.13,-21.51z"/>
  <path class="fil1 str0" d="M1694.72 621.73c-69.91,4.99 -159.82,39.92 -209.7,83.91 -20.98,18.5 -35.22,27.99 -51.04,49.17 -7.06,9.46 -13.74,16.45 -20.34,25.4 -88.76,120.44 -100.66,283.21 -29.63,417.93 68.62,130.12 213.96,221.47 382.09,206.01 121.17,-11.14 205.73,-72.83 259.3,-133.28 135.92,-153.36 123.52,-402.92 -13.56,-529.27 -30.46,-28.07 -20.79,-30.21 -79.91,-66.12 -24.18,-14.69 -38.77,-21.27 -68.08,-32.24 -52.06,-19.48 -108.34,-25.84 -169.13,-21.51z"/>
  <path class="fil1 str0" d="M1412.36 1333.49c-12.13,4.08 -18.34,10.08 -30.24,19.15 -39.79,30.33 -23.4,18.82 -53.12,46.92 -48.69,46.05 -74.22,81.46 -109.57,140.63 -36.69,61.39 -89.71,230.65 -64.6,320.1 25.02,89.15 127.39,141.7 224.38,172.76 247.99,79.44 859.16,75.4 925.55,-170.43 25.41,-94.11 -26.18,-259 -65.08,-323.77 -29.98,-49.93 -51.58,-79.31 -83.36,-116.77 -18.05,-21.28 -82.59,-76.09 -106.58,-87.37 -78.47,65.08 -167.41,130.35 -320.85,130.14 -136.35,-0.19 -215.19,-45.66 -316.53,-131.36z"/>
  <path class="fil2" d="M1389.63 1445.8c-14.71,2.71 -29.87,11.53 -38.61,18.38 -7.03,5.52 -20.23,21.4 -25.06,31.04 -23.01,45.9 4.42,74.35 28.51,56.67l56.76 -55.54c5.77,-6.21 23.89,-21.57 17.56,-36.05 -5.29,-12.1 -22.29,-17.61 -39.16,-14.5z"/>
  <path class="fil2" d="M712.06 1207.82c-14.72,2.72 -29.87,11.54 -38.61,18.39 -7.03,5.52 -20.23,21.4 -25.06,31.04 -23.01,45.9 4.42,74.35 28.51,56.67l56.76 -55.54c5.77,-6.21 23.89,-21.57 17.56,-36.05 -5.29,-12.11 -22.29,-17.61 -39.16,-14.51z"/>
  <polygon class="fil2 str1" points="1654.21,1458.29 1731.76,1458.7 1809.3,1459.12 1770.29,1560.3 1731.28,1661.48 1692.74,1559.88 "/>
  <path class="fil2 str1" d="M1731.28 1526.29c-64.74,360.14 -64.74,360.14 -64.74,360.14l64.58 92.11 64.59 -92.12 -64.43 -360.13z"/>
  <path class="fil2 str1" d="M1008.2 1244.57c-64.74,360.14 -64.74,360.14 -64.74,360.14l64.58 92.11 64.59 -92.12 -64.43 -360.13z"/>
  <path class="fil2 str1" d="M2455.88 1262.77c-64.74,360.13 -64.74,360.13 -64.74,360.13l64.58 92.12 64.59 -92.12 -64.43 -360.13z"/>
 </g>
</svg>
