<svg class="w-44" xmlns="http://www.w3.org/2000/svg" version="1.2" viewBox="0 17 1080 233" width="1080" height="50">
	<path id="Background" class="fill-[#fa8901]" d="m232.5 33.3l1.3 170.6-166.1-170.6z"/>
	<path id="Layer 1" class="fill-[#4b5e82]" d="m49.2 243.5l-1.2-170.7 166.1 170.7z"/>
	<path id="virtualizor" fill-rule="evenodd" class="dark:fill-slate-400 fill-blue-950" d="m269.5 74.9l24.2 73 23.5-73h16.6l-34.1 95.1h-12.3l-34.5-95.1zm97.6 0v95.1h-16.2v-95.1zm-17.6-25.2q0-4 2.4-6.7 2.4-2.7 7.2-2.7 4.7 0 7.2 2.7 2.5 2.7 2.5 6.7 0 3.9-2.5 6.6-2.5 2.6-7.2 2.6-4.8 0-7.2-2.6-2.4-2.7-2.4-6.6zm89.6 24.7v15.1q-3.7-0.6-8-0.6-16 0-21.7 13.6v67.5h-16.3v-95.1h15.8l0.3 11q8-12.8 22.7-12.8 4.7 0 7.2 1.3zm25.1-22.5h16.3v23h17.7v12.6h-17.7v58.9q0 5.8 2.3 8.7 2.4 2.8 8.1 2.8 2.8 0 7.8-1.1v13.2q-6.5 1.8-12.5 1.8-10.9 0-16.5-6.6-5.5-6.6-5.5-18.8v-58.9h-17.3v-12.6h17.3zm112.1 118.1l-0.4-9.4q-9.5 11.2-27.8 11.2-15.3 0-23.2-8.8-8-8.9-8-26.2v-61.9h16.2v61.5q0 21.6 17.6 21.6 18.6 0 24.8-13.9v-69.2h16.2v95.1zm116 0h-17.1q-1.4-2.8-2.3-10-11.3 11.8-27 11.8-14.1 0-23.2-7.9-8.9-8-8.9-20.2 0-14.9 11.2-23.1 11.4-8.2 31.8-8.2h15.9v-7.5q0-8.5-5.1-13.5-5.1-5.1-15.1-5.1-8.7 0-14.6 4.4-5.8 4.4-5.8 10.6h-16.4q0-7.1 5-13.7 5.1-6.7 13.7-10.6 8.7-3.8 19.1-3.8 16.4 0 25.8 8.2 9.3 8.2 9.6 22.6v43.8q0 13.1 3.4 20.8zm-44.1-12.4q7.7 0 14.5-3.9 6.9-4 10-10.3v-19.5h-12.8q-29.9 0-29.9 17.5 0 7.6 5.1 11.9 5.1 4.3 13.1 4.3zm83.9-122.6v135h-16.3v-135zm43.7 39.9v95.1h-16.3v-95.1zm-17.5-25.2q0-4 2.3-6.7 2.5-2.7 7.2-2.7 4.8 0 7.2 2.7 2.5 2.7 2.5 6.7 0 4-2.5 6.6-2.4 2.6-7.2 2.6-4.7 0-7.2-2.6-2.3-2.6-2.3-6.6zm111.8 36.7l-53 70.3h55.7v13.3h-75.5v-11.9l52.5-69.7h-51.7v-13.5h72zm15.3 36.3v-1.1q0-14 5.4-25.2 5.5-11.1 15.3-17.2 9.8-6 22.4-6 19.4 0 31.4 13.4 12 13.4 12 35.8v1.1q0 13.9-5.3 25-5.3 11-15.2 17.1-9.9 6.2-22.7 6.2-19.4 0-31.4-13.5-11.9-13.4-11.9-35.6zm16.3 0.8q0 15.8 7.3 25.4 7.4 9.6 19.7 9.6 12.4 0 19.7-9.7 7.3-9.7 7.3-27.2 0-15.7-7.5-25.3-7.4-9.8-19.7-9.8-12 0-19.4 9.6-7.4 9.6-7.4 27.4zm136.6-49.1v15.1q-3.7-0.6-8-0.6-16 0-21.7 13.6v67.5h-16.3v-95.1h15.8l0.3 11q8-12.7 22.7-12.7 4.7 0 7.2 1.2z"/>
	<path id="By Softaculous" fill-rule="evenodd" class="dark:fill-slate-400 fill-blue-950" d="m718.5 233h-12.4v-35.5h11.6q5.8 0 8.7 2.3 3 2.4 3 7.1 0 2.5-1.4 4.4-1.5 1.9-3.9 3 2.9 0.8 4.5 3.1 1.7 2.2 1.7 5.3 0 4.8-3.1 7.6-3.1 2.7-8.7 2.7zm0.1-16.6h-7.8v12.8h7.8q3.2 0 5.1-1.7 1.9-1.7 1.9-4.7 0-6.4-7-6.4zm-7.8-15.1v11.3h7.1q3.1 0 4.9-1.5 1.9-1.6 1.9-4.2 0-2.9-1.8-4.2-1.7-1.4-5.2-1.4zm27.8 5.3l6.6 19.8 6.2-19.8h4.8l-10.6 30.5q-2.5 6.6-7.8 6.6l-0.9-0.1-1.7-0.3v-3.7l1.2 0.1q2.3 0 3.6-0.9 1.3-0.9 2.1-3.4l1-2.7-9.4-26.1zm45.2 10.6q-6.1-1.8-8.8-4.3-2.8-2.5-2.8-6.2 0-4.2 3.4-7 3.4-2.7 8.7-2.7 3.7 0 6.5 1.4 2.9 1.4 4.5 3.9 1.6 2.5 1.6 5.4h-4.7q0-3.2-2.1-5-2-1.9-5.8-1.9-3.4 0-5.4 1.6-1.9 1.5-1.9 4.2 0 2.2 1.8 3.7 1.9 1.5 6.3 2.7 4.4 1.3 6.9 2.8 2.5 1.5 3.7 3.5 1.2 2 1.2 4.7 0 4.3-3.3 6.9-3.4 2.6-9 2.6-3.7 0-6.9-1.4-3.1-1.4-4.9-3.9-1.7-2.4-1.7-5.5h4.7q0 3.2 2.4 5.1 2.4 1.9 6.4 1.9 3.7 0 5.7-1.6 1.9-1.5 1.9-4.1 0-2.6-1.8-4-1.8-1.5-6.6-2.8zm17.2 2.7v-0.4q0-3.8 1.6-6.9 1.5-3.1 4.2-4.8 2.7-1.7 6.2-1.7 5.4 0 8.8 3.7 3.3 3.8 3.3 10v0.3q0 3.8-1.5 6.9-1.5 3.1-4.2 4.8-2.7 1.7-6.3 1.7-5.4 0-8.7-3.7-3.4-3.8-3.4-9.9zm4.6 0.2q0 4.4 2 7 2.1 2.7 5.5 2.7 3.4 0 5.5-2.7 2-2.7 2-7.6 0-4.3-2.1-7-2-2.7-5.5-2.7-3.3 0-5.4 2.7-2 2.6-2 7.6zm31.9 12.9h-4.5v-22.9h-4.2v-3.5h4.2v-2.7q0-4.3 2.3-6.6 2.2-2.3 6.4-2.3 1.5 0 3.1 0.4l-0.3 3.7q-1.1-0.3-2.4-0.3-2.2 0-3.4 1.3-1.2 1.3-1.2 3.7v2.8h5.6v3.5h-5.6zm12.2-32.8h4.5v6.4h5v3.5h-5v16.3q0 1.6 0.7 2.4 0.7 0.8 2.3 0.8 0.7 0 2.1-0.3v3.7q-1.8 0.5-3.5 0.5-3 0-4.5-1.9-1.6-1.8-1.6-5.2v-16.3h-4.8v-3.5h4.8zm35.8 32.8h-4.7q-0.4-0.8-0.7-2.8-3.1 3.3-7.5 3.3-3.9 0-6.4-2.2-2.5-2.3-2.5-5.7 0-4.1 3.1-6.3 3.2-2.3 8.9-2.3h4.4v-2.1q0-2.4-1.5-3.8-1.4-1.4-4.1-1.4-2.5 0-4.1 1.2-1.6 1.2-1.6 3h-4.6q0-2 1.4-3.8 1.4-1.9 3.8-3 2.5-1 5.3-1 4.6 0 7.2 2.3 2.6 2.2 2.7 6.2v12.2q0 3.6 0.9 5.8zm-12.2-3.5q2.1 0 4-1.1 1.9-1.1 2.8-2.8v-5.4h-3.6q-8.3 0-8.3 4.8 0 2.1 1.4 3.3 1.4 1.2 3.7 1.2zm28.9 0.3q2.5 0 4.3-1.5 1.8-1.4 2-3.6h4.2q-0.1 2.2-1.5 4.3-1.5 2-3.9 3.2-2.4 1.3-5.1 1.3-5.3 0-8.5-3.6-3.2-3.6-3.2-9.9v-0.7q0-3.9 1.4-6.9 1.4-3 4-4.7 2.7-1.6 6.3-1.6 4.5 0 7.4 2.6 2.9 2.7 3.1 6.9h-4.2q-0.2-2.5-2-4.2-1.7-1.6-4.3-1.6-3.4 0-5.3 2.5-1.9 2.4-1.9 7.1v0.9q0 4.6 1.9 7 1.9 2.5 5.3 2.5zm32 3.2l-0.1-2.6q-2.6 3.1-7.7 3.1-4.2 0-6.5-2.5-2.2-2.4-2.2-7.2v-17.2h4.5v17q0 6 4.9 6 5.2 0 6.9-3.8v-19.2h4.5v26.4zm16.1-37.5v37.5h-4.5v-37.5zm6 24.3v-0.3q0-3.9 1.5-7 1.6-3.1 4.3-4.7 2.7-1.7 6.2-1.7 5.4 0 8.7 3.7 3.4 3.7 3.4 9.9v0.4q0 3.8-1.5 6.9-1.5 3.1-4.3 4.8-2.7 1.7-6.3 1.7-5.3 0-8.7-3.8-3.3-3.7-3.3-9.9zm4.5 0.3q0 4.4 2.1 7 2 2.7 5.4 2.7 3.5 0 5.5-2.7 2-2.7 2-7.6 0-4.3-2-7-2.1-2.7-5.5-2.7-3.4 0-5.4 2.6-2.1 2.7-2.1 7.7zm41.6 12.9l-0.1-2.6q-2.6 3.1-7.7 3.1-4.2 0-6.5-2.5-2.2-2.4-2.2-7.2v-17.2h4.5v17q0 6 4.9 6 5.2 0 6.9-3.8v-19.2h4.5v26.4zm26.6-7q0-1.9-1.4-2.9-1.4-1-4.8-1.7-3.5-0.7-5.5-1.8-2-1-3-2.4-0.9-1.4-0.9-3.4 0-3.2 2.7-5.5 2.8-2.2 7-2.2 4.5 0 7.3 2.3 2.8 2.3 2.8 5.9h-4.5q0-1.8-1.6-3.2-1.6-1.3-4-1.3-2.4 0-3.8 1.1-1.4 1-1.4 2.8 0 1.6 1.3 2.4 1.3 0.9 4.7 1.6 3.3 0.8 5.4 1.8 2.1 1.1 3.1 2.6 1.1 1.4 1.1 3.6 0 3.5-2.9 5.6-2.8 2.2-7.3 2.2-3.2 0-5.6-1.2-2.5-1.1-3.9-3.1-1.3-2-1.3-4.3h4.5q0.1 2.2 1.8 3.6 1.7 1.3 4.5 1.3 2.6 0 4.1-1 1.6-1.1 1.6-2.8z"/>
</svg>