<?xml version="1.0" encoding="UTF-8"?>
<!DOCTYPE svg PUBLIC "-//W3C//DTD SVG 1.1//EN" "http://www.w3.org/Graphics/SVG/1.1/DTD/svg11.dtd">
<!-- Creator: CorelDRAW 2021 (64-Bit) -->
<svg xmlns="http://www.w3.org/2000/svg" xml:space="preserve" width="3508px" height="2480px" version="1.1" style="shape-rendering:geometricPrecision; text-rendering:geometricPrecision; image-rendering:optimizeQuality; fill-rule:evenodd; clip-rule:evenodd"
viewBox="0 0 3508 2480.4"
 xmlns:xlink="http://www.w3.org/1999/xlink"
 xmlns:xodm="http://www.corel.com/coreldraw/odm/2003">
 <defs>
  <style type="text/css">
   <![CDATA[
    .str0 {stroke:#0075FF;stroke-width:82.68;stroke-miterlimit:22.9256}
    .str1 {stroke:#0075FF;stroke-width:2.36;stroke-linecap:round;stroke-linejoin:round;stroke-miterlimit:22.9256}
    .fil2 {fill:#0075FF}
    .fil0 {fill:white}
    .fil1 {fill:#0075FF;fill-rule:nonzero}
   ]]>
  </style>
 </defs>
 <g id="Layer_x0020_1">
  <metadata id="CorelCorpID_0Corel-Layer"/>
  <path class="fil0 str0" d="M1263.14 513.1c-72.52,5.18 -165.78,41.41 -217.52,87.04 -21.76,19.19 -36.54,29.03 -52.94,51.01 -7.33,9.8 -14.26,17.05 -21.1,26.34 -92.08,124.93 -104.42,293.77 -30.73,433.51 71.17,134.98 221.93,229.73 396.33,213.7 125.68,-11.56 213.39,-75.55 268.96,-138.25 140.99,-159.08 128.13,-417.95 -14.06,-549.01 -31.6,-29.11 -21.57,-31.33 -82.89,-68.59 -25.08,-15.23 -40.21,-22.06 -70.61,-33.44 -54.01,-20.2 -112.39,-26.8 -175.44,-22.31z"/>
  <path class="fil1" d="M2523.95 830.58l5.72 21.9 0 345.21 355.21 0c14.28,5.24 26.18,14.76 35.23,27.14 3.33,14.76 5.24,25.71 5.24,32.86 0,10.95 -0.95,18.09 -2.86,21.9 -9.05,25.23 -43.33,38.09 -103.32,38.09l-289.5 0 0 356.16c-9.53,29.05 -29.52,43.81 -60,43.81 -26.66,0 -45.71,-10 -57.14,-30l-5.71 -16.67 0 -353.3 -353.3 0c-18.57,-5.24 -31.91,-17.14 -40.95,-35.23 -3.81,-10.96 -5.72,-20 -5.72,-27.62 0,-32.38 16.67,-51.9 49.52,-57.14l350.45 0 0 -356.16c3.81,-16.19 14.28,-29.05 31.43,-38.09 11.42,-3.81 20.95,-5.72 28.56,-5.72 26.67,0 45.72,10.95 57.14,32.86z"/>
  <path class="fil0 str0" d="M970.24 1251.41c-12.58,4.22 -19.02,10.44 -31.36,19.85 -41.27,31.46 -24.28,19.52 -55.1,48.67 -50.51,47.77 -76.99,84.5 -113.66,145.87 -38.05,63.68 -93.05,239.26 -67.01,332.04 25.96,92.48 132.15,146.99 232.75,179.21 257.24,82.39 891.19,78.2 960.06,-176.8 26.36,-97.61 -27.16,-268.64 -67.51,-335.83 -31.1,-51.8 -53.5,-82.27 -86.47,-121.13 -18.72,-22.07 -85.66,-78.92 -110.55,-90.62 -81.39,67.5 -173.65,135.2 -332.81,134.98 -141.44,-0.19 -223.22,-47.35 -328.34,-136.24z"/>
  <path class="fil2" d="M946.67 1367.89c-15.26,2.82 -30.98,11.97 -40.05,19.08 -7.29,5.72 -20.98,22.19 -26,32.19 -23.86,47.61 4.59,77.12 29.58,58.79l58.88 -57.62c5.98,-6.43 24.78,-22.37 18.21,-37.39 -5.49,-12.56 -23.12,-18.27 -40.62,-15.05z"/>
  <polygon class="fil2 str1" points="1221.11,1380.85 1301.55,1381.28 1381.99,1381.71 1341.52,1486.66 1301.06,1591.62 1261.08,1486.23 "/>
  <path class="fil2 str1" d="M1301.06 1451.39c-67.16,373.56 -67.16,373.56 -67.16,373.56l66.99 95.56 67 -95.56 -66.83 -373.56z"/>
 </g>
</svg>
