<?xml version="1.0" encoding="UTF-8"?>
<svg version="1.1" xmlns="http://www.w3.org/2000/svg" width="32" height="32">
<path d="M0 0 C0 2.31 0 4.62 0 7 C-4.55384615 7.36923077 -4.55384615 7.36923077 -6.8125 5.5 C-7.4003125 4.7575 -7.4003125 4.7575 -8 4 C-8.66 6.31 -9.32 8.62 -10 11 C-10.66 10.34 -11.32 9.68 -12 9 C-11.53846154 2.53846154 -11.53846154 2.53846154 -9 0 C-5.64103108 -0.97233311 -3.32221382 -1.10740461 0 0 Z " fill="#FFCB12" transform="translate(27,3)"/>
<path d="M0 0 C1.8125 0.375 1.8125 0.375 4 1 C4.7425 1.185625 5.485 1.37125 6.25 1.5625 C6.8275 1.706875 7.405 1.85125 8 2 C7.34 3.65 6.68 5.3 6 7 C4.68 7 3.36 7 2 7 C3.29299694 9.88437779 4.65941363 11.87219421 7 14 C3.87279065 13.16607751 1.52314688 12.45564406 -0.9375 10.3125 C-2.47747503 6.96078963 -1.79799157 4.52446275 -1 1 C-0.67 0.67 -0.34 0.34 0 0 Z " fill="#FF4649" transform="translate(7,1)"/>
<path d="M0 0 C2.0625 1.5625 2.0625 1.5625 4 4 C3.75 7.75 3.75 7.75 3 11 C2.01 11 1.02 11 0 11 C-0.33 12.32 -0.66 13.64 -1 15 C-2.32 14.67 -3.64 14.34 -5 14 C-5 13.01 -5 12.02 -5 11 C-5.66 10.67 -6.32 10.34 -7 10 C-7 9.01 -7 8.02 -7 7 C-4.6875 6.375 -4.6875 6.375 -2 6 C-1.01 6.66 -0.02 7.32 1 8 C0.67 5.36 0.34 2.72 0 0 Z " fill="#24C2FF" transform="translate(18,17)"/>
<path d="M0 0 C2.875 0 2.875 0 6 1 C8.4375 3.8125 8.4375 3.8125 10 7 C9.75 9.375 9.75 9.375 9 11 C6.69 11.33 4.38 11.66 2 12 C1.67 10.35 1.34 8.7 1 7 C1.99 6.67 2.98 6.34 4 6 C3.67 5.01 3.34 4.02 3 3 C1.35 2.67 -0.3 2.34 -2 2 C-1.34 1.34 -0.68 0.68 0 0 Z " fill="#86DA2F" transform="translate(22,12)"/>
<path d="M0 0 C1.32 0.66 2.64 1.32 4 2 C4 3.65 4 5.3 4 7 C6.31 6.34 8.62 5.68 11 5 C9.25 8.875 9.25 8.875 7 10 C5.00039988 10.039992 2.99952758 10.04346799 1 10 C0.67 9.01 0.34 8.02 0 7 C-2.01508358 6.26676204 -2.01508358 6.26676204 -4 6 C-3.67 5.01 -3.34 4.02 -3 3 C-2.01 3 -1.02 3 0 3 C0 2.01 0 1.02 0 0 Z " fill="#0069DA" transform="translate(4,13)"/>
<path d="" fill="#86DA2F" transform="translate(0,0)"/>
</svg>
