<?xml version="1.0" encoding="UTF-8"?>
<svg version="1.1" xmlns="http://www.w3.org/2000/svg" width="52" height="52">
<path d="M0 0 C5.95930219 -0.31364748 9.70673117 0.19132674 15 3 C15.33 3.66 15.66 4.32 16 5 C15.22265625 6.9453125 15.22265625 6.9453125 14.0625 9.125 C13.68222656 9.84945313 13.30195313 10.57390625 12.91015625 11.3203125 C12.60980469 11.87460938 12.30945313 12.42890625 12 13 C9.69 13 7.38 13 5 13 C5.11306697 14.95894361 5.11306697 14.95894361 6 17 C8.36186139 18.26145768 8.36186139 18.26145768 11 19 C11.99 19.33 12.98 19.66 14 20 C13.95359375 19.35933594 13.9071875 18.71867187 13.859375 18.05859375 C13.59826423 11.80126063 13.93191523 7.9025637 18 3 C21.375 2.1875 21.375 2.1875 25 2 C26.051875 1.608125 27.10375 1.21625 28.1875 0.8125 C31 0 31 0 33.3125 0.5625 C35 2 35 2 35.8125 4.4375 C36 7 36 7 35 10 C34.96079185 11.99961564 34.95556653 14.00049364 35 16 C31.18243176 17.37432457 27.92744671 16.67975039 24 16 C23.34 14.35 22.68 12.7 22 11 C20.35429841 12.05630262 20.35429841 12.05630262 19 14 C18.7496423 17.62535976 18.7496423 17.62535976 19 21 C19.66 20.34 20.32 19.68 21 19 C23.42578125 18.515625 23.42578125 18.515625 26.3125 18.25 C27.72982422 18.10304688 27.72982422 18.10304688 29.17578125 17.953125 C32.97491654 18.01618119 35.71993446 19.03995084 38.75 21.3125 C40.34587294 23.46692846 40.58619443 25.37923138 41 28 C41.33 28.33 41.66 28.66 42 29 C42.14115161 31.67058851 42.04247107 34.32432238 42 37 C40.865625 37.144375 39.73125 37.28875 38.5625 37.4375 C35.19222799 37.61171478 35.19222799 37.61171478 34 39 C32.00041636 39.04080783 29.99954746 39.04254356 28 39 C27.67 35.7 27.34 32.4 27 29 C27.99 28.34 28.98 27.68 30 27 C30.495 25.515 30.495 25.515 31 24 C30.35973877 24.01047363 29.71947754 24.02094727 29.05981445 24.03173828 C26.14408329 24.07344815 23.22841505 24.09937363 20.3125 24.125 C18.80139648 24.15013672 18.80139648 24.15013672 17.25976562 24.17578125 C15.79506836 24.18544922 15.79506836 24.18544922 14.30078125 24.1953125 C13.40528564 24.20578613 12.50979004 24.21625977 11.5871582 24.22705078 C8.73831743 23.97703456 6.59105457 23.18016512 4 22 C4.20625 22.53625 4.4125 23.0725 4.625 23.625 C5.1314747 26.83267308 4.15400225 29.01317066 3 32 C4.98 31.67 6.96 31.34 9 31 C9 30.34 9 29.68 9 29 C11.5614657 26.70351351 12.47967572 26 16 26 C16 29.20296833 15.61967434 31.29812397 13.46875 33.734375 C8.9268336 37.51930533 5.57363852 38.62853517 -0.3125 38.2109375 C-0.869375 38.14132813 -1.42625 38.07171875 -2 38 C-2.26554688 37.36578125 -2.53109375 36.7315625 -2.8046875 36.078125 C-3.90870494 33.66213775 -3.90870494 33.66213775 -7.125 32.75 C-8.07375 32.5025 -9.0225 32.255 -10 32 C-10 29.69 -10 27.38 -10 25 C-9.195625 24.7525 -8.39125 24.505 -7.5625 24.25 C-6.716875 23.8375 -5.87125 23.425 -5 23 C-4.26676204 20.98491642 -4.26676204 20.98491642 -4 19 C-3.34 18.67 -2.68 18.34 -2 18 C-2.01160156 17.30132813 -2.02320313 16.60265625 -2.03515625 15.8828125 C-2.04417969 14.97273437 -2.05320312 14.06265625 -2.0625 13.125 C-2.07410156 12.22007813 -2.08570313 11.31515625 -2.09765625 10.3828125 C-2 8 -2 8 -1 6 C-0.64080679 4.00448218 -0.30503431 2.00451121 0 0 Z " fill="#FCC910" transform="translate(10,0)"/>
<path d="M0 0 C5.95930219 -0.31364748 9.70673117 0.19132674 15 3 C15.33 3.66 15.66 4.32 16 5 C15.22265625 6.9453125 15.22265625 6.9453125 14.0625 9.125 C13.68222656 9.84945313 13.30195313 10.57390625 12.91015625 11.3203125 C12.60980469 11.87460938 12.30945313 12.42890625 12 13 C9.69 13 7.38 13 5 13 C5.11306697 14.95894361 5.11306697 14.95894361 6 17 C8.29534258 18.13545562 8.29534258 18.13545562 11 19 C12.6829392 19.97236487 14.35443434 20.96564444 16 22 C15.67 22.66 15.34 23.32 15 24 C11.7 23.67 8.4 23.34 5 23 C5 23.99 5 24.98 5 26 C4.36893571 28.01151741 3.70626239 30.01363702 3 32 C4.98 31.67 6.96 31.34 9 31 C9 30.34 9 29.68 9 29 C11.5614657 26.70351351 12.47967572 26 16 26 C16 29.20296833 15.61967434 31.29812397 13.46875 33.734375 C8.9268336 37.51930533 5.57363852 38.62853517 -0.3125 38.2109375 C-0.869375 38.14132813 -1.42625 38.07171875 -2 38 C-2.26554688 37.36578125 -2.53109375 36.7315625 -2.8046875 36.078125 C-3.90870494 33.66213775 -3.90870494 33.66213775 -7.125 32.75 C-8.07375 32.5025 -9.0225 32.255 -10 32 C-10 29.69 -10 27.38 -10 25 C-9.195625 24.7525 -8.39125 24.505 -7.5625 24.25 C-6.716875 23.8375 -5.87125 23.425 -5 23 C-4.26676204 20.98491642 -4.26676204 20.98491642 -4 19 C-3.34 18.67 -2.68 18.34 -2 18 C-2.01160156 17.30132813 -2.02320313 16.60265625 -2.03515625 15.8828125 C-2.04417969 14.97273437 -2.05320312 14.06265625 -2.0625 13.125 C-2.07410156 12.22007813 -2.08570313 11.31515625 -2.09765625 10.3828125 C-2 8 -2 8 -1 6 C-0.64080679 4.00448218 -0.30503431 2.00451121 0 0 Z " fill="#FF4245" transform="translate(10,0)"/>
<path d="M0 0 C2.25 0.125 2.25 0.125 5 1 C8.52035417 5.10707986 9.90520472 8.59666893 10 14 C9.22142563 16.52297518 8.20823848 18.63185258 7 21 C5.68 21 4.36 21 3 21 C2.855625 21.804375 2.71125 22.60875 2.5625 23.4375 C2 26 2 26 1 27 C-1.9375 27.1875 -1.9375 27.1875 -5 27 C-7.4957321 24.5042679 -7.94900532 22.35004555 -9 19 C-9.65411685 17.32836805 -10.31653318 15.65984798 -11 14 C-5.5 10 -5.5 10 -1 10 C0.6875 11.5 0.6875 11.5 2 13 C2.33 13 2.66 13 3 13 C2.52060632 8.28596212 2.03165952 4.33420699 0 0 Z " fill="#21C0FF" transform="translate(27,25)"/>
<path d="M0 0 C3.0209727 2.06310331 3.78664136 3.16596167 4.6875 6.6875 C4.790625 7.450625 4.89375 8.21375 5 9 C5.33 9.33 5.66 9.66 6 10 C6.14115161 12.67058851 6.04247107 15.32432238 6 18 C4.2984375 18.2165625 4.2984375 18.2165625 2.5625 18.4375 C-0.80777201 18.61171478 -0.80777201 18.61171478 -2 20 C-3.99958364 20.04080783 -6.00045254 20.04254356 -8 20 C-8.33 16.7 -8.66 13.4 -9 10 C-8.01 9.34 -7.02 8.68 -6 8 C-5.67 7.01 -5.34 6.02 -5 5 C-9.29 5 -13.58 5 -18 5 C-16 1 -16 1 -13.5 -0.3125 C-8.81568282 -1.23263373 -4.64894827 -1.10043715 0 0 Z " fill="#85D92E" transform="translate(46,19)"/>
<path d="M0 0 C2.38941746 0.84785781 3.96057517 1.96583181 5.875 3.625 C7.66809613 7.41042517 6.23907445 10.08713332 5 14 C6.98 13.67 8.96 13.34 11 13 C11 12.34 11 11.68 11 11 C13.5614657 8.70351351 14.47967572 8 18 8 C18 11.20296833 17.61967434 13.29812397 15.46875 15.734375 C10.9268336 19.51930533 7.57363852 20.62853517 1.6875 20.2109375 C1.130625 20.14132813 0.57375 20.07171875 0 20 C-0.26554688 19.36578125 -0.53109375 18.7315625 -0.8046875 18.078125 C-1.90870494 15.66213775 -1.90870494 15.66213775 -5.125 14.75 C-6.548125 14.37875 -6.548125 14.37875 -8 14 C-8 11.69 -8 9.38 -8 7 C-7.195625 6.7525 -6.39125 6.505 -5.5625 6.25 C-4.2940625 5.63125 -4.2940625 5.63125 -3 5 C-2.26676204 2.98491642 -2.26676204 2.98491642 -2 1 C-1.34 0.67 -0.68 0.34 0 0 Z " fill="#0068DA" transform="translate(8,18)"/>
</svg>
