<?xml version="1.0" standalone="no"?>
<!DOCTYPE svg PUBLIC "-//W3C//DTD SVG 20010904//EN"
 "http://www.w3.org/TR/2001/REC-SVG-20010904/DTD/svg10.dtd">
<svg version="1.0" xmlns="http://www.w3.org/2000/svg"
 width="40.000000pt" height="40.000000pt" viewBox="0 0 40.000000 40.000000"
 preserveAspectRatio="xMidYMid meet">

<g transform="translate(0.000000,40.000000) scale(0.100000,-0.100000)"
fill="#000000" stroke="none">
<path d="M220 293 l0 -47 30 29 c28 27 29 30 13 47 -29 32 -43 22 -43 -29z"/>
<path d="M282 320 c11 -17 8 -25 -27 -62 l-40 -43 43 40 c37 35 45 38 62 27
19 -11 20 -10 20 23 0 33 -2 35 -35 35 -33 0 -34 -1 -23 -20z"/>
<path d="M275 250 l-29 -30 47 0 c51 0 61 14 29 43 -17 16 -20 15 -47 -13z"/>
<path d="M30 216 c-11 -15 -11 -19 3 -34 11 -10 17 -12 17 -4 0 8 20 12 60 12
33 0 60 4 60 10 0 6 -26 10 -59 10 -35 0 -61 5 -63 11 -2 7 -9 5 -18 -5z"/>
<path d="M350 222 c0 -8 -20 -12 -60 -12 -33 0 -60 -4 -60 -10 0 -6 27 -10 60
-10 40 0 60 -4 60 -12 0 -8 6 -6 17 5 16 16 16 18 0 34 -11 11 -17 13 -17 5z"/>
<path d="M60 167 c0 -8 8 -21 18 -30 17 -16 20 -15 47 13 l29 30 -47 0 c-33 0
-47 -4 -47 -13z"/>
<path d="M137 143 c-33 -34 -39 -36 -58 -25 -19 12 -20 11 -17 -20 3 -29 7
-33 36 -36 31 -3 32 -2 20 17 -11 18 -8 25 27 61 21 22 37 40 34 40 -2 0 -21
-17 -42 -37z"/>
<path d="M147 122 c-27 -28 -27 -29 -9 -45 31 -28 42 -21 42 28 0 25 -1 45 -3
45 -2 0 -15 -13 -30 -28z"/>
</g>
</svg>
