<?xml version="1.0" standalone="no"?>
<!DOCTYPE svg PUBLIC "-//W3C//DTD SVG 20010904//EN"
 "http://www.w3.org/TR/2001/REC-SVG-20010904/DTD/svg10.dtd">
<svg version="1.0" xmlns="http://www.w3.org/2000/svg"
 width="52.000000pt" height="52.000000pt" viewBox="0 0 52.000000 52.000000"
 preserveAspectRatio="xMidYMid meet">

<g transform="translate(0.000000,52.000000) scale(0.100000,-0.100000)"
fill="#000000" stroke="none">
<path d="M176 477 c-40 -38 -50 -69 -44 -136 5 -52 35 -104 71 -122 l22 -11
-22 21 c-27 26 -63 105 -63 138 0 93 127 159 185 97 28 -30 34 -95 13 -124 -7
-9 -3 -5 10 8 17 18 22 34 20 69 -2 65 -38 93 -118 93 -30 0 -46 -7 -74 -33z"/>
<path d="M244 333 c12 -14 29 -22 45 -22 l26 2 -25 4 c-14 3 -34 12 -45 21
-20 17 -20 17 -1 -5z"/>
<path d="M110 105 c0 -8 -9 -15 -20 -15 -22 0 -36 -36 -25 -69 4 -14 15 -21
33 -21 27 0 27 1 27 60 0 33 -3 60 -7 60 -5 0 -8 -7 -8 -15z m0 -55 c0 -20 -5
-30 -15 -30 -15 0 -21 40 -8 53 14 15 23 6 23 -23z"/>
<path d="M199 93 c0 -16 -3 -22 -6 -15 -8 19 -41 14 -54 -9 -15 -29 3 -69 32
-69 21 0 21 0 -2 19 l-22 18 26 5 c23 4 27 2 27 -18 0 -36 47 -34 61 2 13 35
3 64 -22 64 -10 0 -19 7 -19 15 0 27 -20 15 -21 -12z m-19 -23 c0 -5 -7 -10
-16 -10 -8 0 -12 5 -9 10 3 6 10 10 16 10 5 0 9 -4 9 -10z m68 -31 c-5 -35
-28 -36 -28 -1 0 16 3 32 7 36 11 11 25 -10 21 -35z"/>
<path d="M280 46 c0 -25 5 -46 10 -46 13 0 13 77 0 85 -6 4 -10 -12 -10 -39z"/>
<path d="M328 83 c28 -6 29 -19 1 -26 -33 -9 -22 -51 14 -54 27 -2 28 0 25 40
-3 39 -5 42 -33 44 -20 1 -23 0 -7 -4z m22 -48 c0 -8 -7 -15 -15 -15 -16 0
-20 12 -8 23 11 12 23 8 23 -8z"/>
<path d="M391 43 c1 -26 3 -39 6 -28 2 11 6 30 9 43 8 37 24 25 24 -18 0 -22
5 -40 11 -40 6 0 9 17 7 43 -3 38 -6 42 -30 45 -27 3 -28 2 -27 -45z"/>
</g>
</svg>
