<?xml version="1.0" standalone="no"?>
<!DOCTYPE svg PUBLIC "-//W3C//DTD SVG 20010904//EN"
 "http://www.w3.org/TR/2001/REC-SVG-20010904/DTD/svg10.dtd">
<svg version="1.0" xmlns="http://www.w3.org/2000/svg"
 width="40.000000pt" height="40.000000pt" viewBox="0 0 40.000000 40.000000"
 preserveAspectRatio="xMidYMid meet">

<g transform="translate(0.000000,40.000000) scale(0.100000,-0.100000)"
fill="#000000" stroke="none">
<path d="M148 391 c-52 -17 -94 -50 -118 -93 -21 -37 -25 -59 -28 -154 -5
-148 -6 -147 142 -142 98 3 116 6 156 30 125 73 127 262 4 334 -46 27 -115 38
-156 25z m147 -66 c0 -15 -7 -20 -27 -20 -38 -1 -58 -22 -58 -61 0 -31 3 -34
29 -34 31 0 46 -21 28 -39 -6 -6 -21 -11 -34 -11 -20 0 -23 -5 -23 -41 0 -31
-6 -47 -29 -70 -32 -32 -80 -39 -101 -14 -16 20 -4 35 29 35 36 0 51 17 51 56
0 27 -4 32 -31 38 -39 7 -37 39 2 44 23 3 27 8 32 50 7 61 43 94 96 90 28 -2
36 -7 36 -23z"/>
</g>
</svg>
