<svg class="absolute bottom-10 right-10 md:block hidden stroke-[#cce3ff] dark:stroke-[#454654]" width="94" height="116" viewBox="0 0 94 116" fill="none" xmlns="http://www.w3.org/2000/svg">
	<path d="M5.80247 2.9C5.80247 4.50163 4.50354 5.8 2.90123 5.8C1.29893 5.8 0 4.50163 0 2.9C0 1.29837 1.29893 0 2.90123 0C4.50354 0 5.80247 1.29837 5.80247 2.9Z" fill="white" fill-opacity="0.22" />
	<path d="M5.80247 24.94C5.80247 26.5416 4.50354 27.84 2.90123 27.84C1.29893 27.84 0 26.5416 0 24.94C0 23.3384 1.29893 22.04 2.90123 22.04C4.50354 22.04 5.80247 23.3384 5.80247 24.94Z" fill="white" fill-opacity="0.22" />
	<path d="M5.80247 46.98C5.80247 48.5816 4.50354 49.88 2.90123 49.88C1.29893 49.88 0 48.5816 0 46.98C0 45.3784 1.29893 44.08 2.90123 44.08C4.50354 44.08 5.80247 45.3784 5.80247 46.98Z" fill="white" fill-opacity="0.22" />
	<path d="M5.80247 69.02C5.80247 70.6216 4.50354 71.92 2.90123 71.92C1.29893 71.92 0 70.6216 0 69.02C0 67.4184 1.29893 66.12 2.90123 66.12C4.50354 66.12 5.80247 67.4184 5.80247 69.02Z" fill="white" fill-opacity="0.22" />
	<path d="M5.80247 91.06C5.80247 92.6616 4.50354 93.96 2.90123 93.96C1.29893 93.96 0 92.6616 0 91.06C0 89.4584 1.29893 88.16 2.90123 88.16C4.50354 88.16 5.80247 89.4584 5.80247 91.06Z" fill="white" fill-opacity="0.22" />
	<path d="M5.80247 113.1C5.80247 114.702 4.50354 116 2.90123 116C1.29893 116 0 114.702 0 113.1C0 111.498 1.29893 110.2 2.90123 110.2C4.50354 110.2 5.80247 111.498 5.80247 113.1Z" fill="white" fill-opacity="0.22" />
	<path d="M27.8519 2.9C27.8519 4.50163 26.5529 5.8 24.9506 5.8C23.3483 5.8 22.0494 4.50163 22.0494 2.9C22.0494 1.29837 23.3483 0 24.9506 0C26.5529 0 27.8519 1.29837 27.8519 2.9Z" fill="white" fill-opacity="0.22" />
	<path d="M27.8519 24.94C27.8519 26.5416 26.5529 27.84 24.9506 27.84C23.3483 27.84 22.0494 26.5416 22.0494 24.94C22.0494 23.3384 23.3483 22.04 24.9506 22.04C26.5529 22.04 27.8519 23.3384 27.8519 24.94Z" fill="white" fill-opacity="0.22" />
	<path d="M27.8519 46.98C27.8519 48.5816 26.5529 49.88 24.9506 49.88C23.3483 49.88 22.0494 48.5816 22.0494 46.98C22.0494 45.3784 23.3483 44.08 24.9506 44.08C26.5529 44.08 27.8519 45.3784 27.8519 46.98Z" fill="white" fill-opacity="0.22" />
	<path d="M27.8519 69.02C27.8519 70.6216 26.5529 71.92 24.9506 71.92C23.3483 71.92 22.0494 70.6216 22.0494 69.02C22.0494 67.4184 23.3483 66.12 24.9506 66.12C26.5529 66.12 27.8519 67.4184 27.8519 69.02Z" fill="white" fill-opacity="0.22" />
	<path d="M27.8519 91.06C27.8519 92.6616 26.5529 93.96 24.9506 93.96C23.3483 93.96 22.0494 92.6616 22.0494 91.06C22.0494 89.4584 23.3483 88.16 24.9506 88.16C26.5529 88.16 27.8519 89.4584 27.8519 91.06Z" fill="white" fill-opacity="0.22" />
	<path d="M27.8519 113.1C27.8519 114.702 26.5529 116 24.9506 116C23.3483 116 22.0494 114.702 22.0494 113.1C22.0494 111.498 23.3483 110.2 24.9506 110.2C26.5529 110.2 27.8519 111.498 27.8519 113.1Z" fill="white" fill-opacity="0.22" />
	<path d="M49.9012 2.9C49.9012 4.50163 48.6023 5.8 47 5.8C45.3977 5.8 44.0988 4.50163 44.0988 2.9C44.0988 1.29837 45.3977 0 47 0C48.6023 0 49.9012 1.29837 49.9012 2.9Z" fill="white" fill-opacity="0.22" />
	<path d="M49.9012 24.94C49.9012 26.5416 48.6023 27.84 47 27.84C45.3977 27.84 44.0988 26.5416 44.0988 24.94C44.0988 23.3384 45.3977 22.04 47 22.04C48.6023 22.04 49.9012 23.3384 49.9012 24.94Z" fill="white" fill-opacity="0.22" />
	<path d="M49.9012 46.98C49.9012 48.5816 48.6023 49.88 47 49.88C45.3977 49.88 44.0988 48.5816 44.0988 46.98C44.0988 45.3784 45.3977 44.08 47 44.08C48.6023 44.08 49.9012 45.3784 49.9012 46.98Z" fill="white" fill-opacity="0.22" />
	<path d="M49.9012 69.02C49.9012 70.6216 48.6023 71.92 47 71.92C45.3977 71.92 44.0988 70.6216 44.0988 69.02C44.0988 67.4184 45.3977 66.12 47 66.12C48.6023 66.12 49.9012 67.4184 49.9012 69.02Z" fill="white" fill-opacity="0.22" />
	<path d="M49.9012 91.06C49.9012 92.6616 48.6023 93.96 47 93.96C45.3977 93.96 44.0988 92.6616 44.0988 91.06C44.0988 89.4584 45.3977 88.16 47 88.16C48.6023 88.16 49.9012 89.4584 49.9012 91.06Z" fill="white" fill-opacity="0.22" />
	<path d="M49.9012 113.1C49.9012 114.702 48.6023 116 47 116C45.3977 116 44.0988 114.702 44.0988 113.1C44.0988 111.498 45.3977 110.2 47 110.2C48.6023 110.2 49.9012 111.498 49.9012 113.1Z" fill="white" fill-opacity="0.22" />
	<path d="M71.9506 2.9C71.9506 4.50163 70.6517 5.8 69.0494 5.8C67.4471 5.8 66.1481 4.50163 66.1481 2.9C66.1481 1.29837 67.4471 0 69.0494 0C70.6517 0 71.9506 1.29837 71.9506 2.9Z" fill="white" fill-opacity="0.22" />
	<path d="M71.9506 24.94C71.9506 26.5416 70.6517 27.84 69.0494 27.84C67.4471 27.84 66.1481 26.5416 66.1481 24.94C66.1481 23.3384 67.4471 22.04 69.0494 22.04C70.6517 22.04 71.9506 23.3384 71.9506 24.94Z" fill="white" fill-opacity="0.22" />
	<path d="M71.9506 46.98C71.9506 48.5816 70.6517 49.88 69.0494 49.88C67.4471 49.88 66.1481 48.5816 66.1481 46.98C66.1481 45.3784 67.4471 44.08 69.0494 44.08C70.6517 44.08 71.9506 45.3784 71.9506 46.98Z" fill="white" fill-opacity="0.22" />
	<path d="M71.9506 69.02C71.9506 70.6216 70.6517 71.92 69.0494 71.92C67.4471 71.92 66.1481 70.6216 66.1481 69.02C66.1481 67.4184 67.4471 66.12 69.0494 66.12C70.6517 66.12 71.9506 67.4184 71.9506 69.02Z" fill="white" fill-opacity="0.22" />
	<path d="M71.9506 91.06C71.9506 92.6616 70.6517 93.96 69.0494 93.96C67.4471 93.96 66.1481 92.6616 66.1481 91.06C66.1481 89.4584 67.4471 88.16 69.0494 88.16C70.6517 88.16 71.9506 89.4584 71.9506 91.06Z" fill="white" fill-opacity="0.22" />
	<path d="M71.9506 113.1C71.9506 114.702 70.6517 116 69.0494 116C67.4471 116 66.1481 114.702 66.1481 113.1C66.1481 111.498 67.4471 110.2 69.0494 110.2C70.6517 110.2 71.9506 111.498 71.9506 113.1Z" fill="white" fill-opacity="0.22" />
	<path d="M94 2.9C94 4.50163 92.7011 5.8 91.0988 5.8C89.4965 5.8 88.1975 4.50163 88.1975 2.9C88.1975 1.29837 89.4965 0 91.0988 0C92.7011 0 94 1.29837 94 2.9Z" fill="white" fill-opacity="0.22" />
	<path d="M94 24.94C94 26.5416 92.7011 27.84 91.0988 27.84C89.4965 27.84 88.1975 26.5416 88.1975 24.94C88.1975 23.3384 89.4965 22.04 91.0988 22.04C92.7011 22.04 94 23.3384 94 24.94Z" fill="white" fill-opacity="0.22" />
	<path d="M94 46.98C94 48.5816 92.7011 49.88 91.0988 49.88C89.4965 49.88 88.1975 48.5816 88.1975 46.98C88.1975 45.3784 89.4965 44.08 91.0988 44.08C92.7011 44.08 94 45.3784 94 46.98Z" fill="white" fill-opacity="0.22" />
	<path d="M94 69.02C94 70.6216 92.7011 71.92 91.0988 71.92C89.4965 71.92 88.1975 70.6216 88.1975 69.02C88.1975 67.4184 89.4965 66.12 91.0988 66.12C92.7011 66.12 94 67.4184 94 69.02Z" fill="white" fill-opacity="0.22" />
	<path d="M94 91.06C94 92.6616 92.7011 93.96 91.0988 93.96C89.4965 93.96 88.1975 92.6616 88.1975 91.06C88.1975 89.4584 89.4965 88.16 91.0988 88.16C92.7011 88.16 94 89.4584 94 91.06Z" fill="white" fill-opacity="0.22" />
	<path d="M94 113.1C94 114.702 92.7011 116 91.0988 116C89.4965 116 88.1975 114.702 88.1975 113.1C88.1975 111.498 89.4965 110.2 91.0988 110.2C92.7011 110.2 94 111.498 94 113.1Z" fill="white" fill-opacity="0.22" />
</svg>