<svg xmlns="http://www.w3.org/2000/svg" viewBox="0 0 378.54123 384.46149">
    <defs>
    <filter id="filter1535">
    <feGaussianBlur stdDeviation="3.725"/>
    </filter>
    <filter id="filter1531">
    <feGaussianBlur stdDeviation="7.214"/>
    </filter>
    <filter id="filter1527">
    <feGaussianBlur stdDeviation="8.203"/>
    </filter>
    <filter id="filter1523">
    <feGaussianBlur stdDeviation="6.707"/>
    </filter>
    <filter height="1.8953" id="filter961-8-4-8" width="2.0309" x="-0.5155" y="-0.4476">
    <feGaussianBlur stdDeviation="7.088"/>
    </filter>
    <radialGradient cx="277.5" cy="493.8622" gradientTransform="matrix(0.81067,0.65033,-0.63705,0.79413,367.15334,-78.79278)" gradientUnits="userSpaceOnUse" id="radialGradient3556" r="60">
    <stop offset="0" stop-color="#fff" stop-opacity="0"/>
    <stop offset="1" stop-opacity=".5"/>
    </radialGradient>
    </defs>
    <path d="m365,493.8622c0,32.861-26.6391,59.5-59.5,59.5s-59.5-26.6391-59.5-59.5 26.6391-59.5 59.5-59.5 59.5,26.6391 59.5,59.5z" fill="#ed1d1d" transform="matrix(-0.1431,0.24786,-0.24786,-0.1431,385.6825,179.68678)"/>
    <path d="m365,493.8622c0,32.861-26.6391,59.5-59.5,59.5s-59.5-26.6391-59.5-59.5 26.6391-59.5 59.5-59.5 59.5,26.6391 59.5,59.5z" fill="url(#radialGradient3556)" transform="matrix(-0.1431,0.24786,-0.24786,-0.1431,385.6825,179.68678)"/>
    <path d="m182,717.3622c0,10.4934-7.3873,19-16.5,19s-16.5-8.5066-16.5-19 7.3873-19 16.5-19 16.5,8.5066 16.5,19z" fill="#fff" filter="url(#filter961-8-4-8)" opacity=".8" transform="matrix(-0.10953,0.18972,-0.1778,-0.10265,368.16131,218.75323)"/>
    <path d="m365,493.8622c0,32.861-26.6391,59.5-59.5,59.5s-59.5-26.6391-59.5-59.5 26.6391-59.5 59.5-59.5 59.5,26.6391 59.5,59.5z" fill="#ed1d1d" transform="matrix(-0.1431,0.24786,-0.24786,-0.1431,350.98243,159.65268)"/>
    <path d="m365,493.8622c0,32.861-26.6391,59.5-59.5,59.5s-59.5-26.6391-59.5-59.5 26.6391-59.5 59.5-59.5 59.5,26.6391 59.5,59.5z" fill="url(#radialGradient3556)" transform="matrix(-0.1431,0.24786,-0.24786,-0.1431,350.98243,159.65268)"/>
    <path d="m182,717.3622c0,10.4934-7.3873,19-16.5,19s-16.5-8.5066-16.5-19 7.3873-19 16.5-19 16.5,8.5066 16.5,19z" fill="#fff" filter="url(#filter961-8-4-8)" opacity=".8" transform="matrix(-0.10953,0.18972,-0.1778,-0.10265,333.46124,198.71913)"/>
    <path d="m365,493.8622c0,32.861-26.6391,59.5-59.5,59.5s-59.5-26.6391-59.5-59.5 26.6391-59.5 59.5-59.5 59.5,26.6391 59.5,59.5z" fill="#ed1d1d" transform="matrix(-0.1431,0.24786,-0.24786,-0.1431,365.3622,214.88257)"/>
    <path d="m365,493.8622c0,32.861-26.6391,59.5-59.5,59.5s-59.5-26.6391-59.5-59.5 26.6391-59.5 59.5-59.5 59.5,26.6391 59.5,59.5z" fill="url(#radialGradient3556)" transform="matrix(-0.1431,0.24786,-0.24786,-0.1431,365.3622,214.88257)"/>
    <path d="m182,717.3622c0,10.4934-7.3873,19-16.5,19s-16.5-8.5066-16.5-19 7.3873-19 16.5-19 16.5,8.5066 16.5,19z" fill="#fff" filter="url(#filter961-8-4-8)" opacity=".8" transform="matrix(-0.10953,0.18972,-0.1778,-0.10265,347.84101,253.94902)"/>
    <path d="m365,493.8622c0,32.861-26.6391,59.5-59.5,59.5s-59.5-26.6391-59.5-59.5 26.6391-59.5 59.5-59.5 59.5,26.6391 59.5,59.5z" fill="#ed1d1d" transform="matrix(-0.1431,0.24786,-0.24786,-0.1431,329.30781,196.04941)"/>
    <path d="m365,493.8622c0,32.861-26.6391,59.5-59.5,59.5s-59.5-26.6391-59.5-59.5 26.6391-59.5 59.5-59.5 59.5,26.6391 59.5,59.5z" fill="url(#radialGradient3556)" transform="matrix(-0.1431,0.24786,-0.24786,-0.1431,329.30781,196.04941)"/>
    <path d="m182,717.3622c0,10.4934-7.3873,19-16.5,19s-16.5-8.5066-16.5-19 7.3873-19 16.5-19 16.5,8.5066 16.5,19z" fill="#fff" filter="url(#filter961-8-4-8)" opacity=".8" transform="matrix(-0.10953,0.18972,-0.1778,-0.10265,311.78662,235.11587)"/>
    <g transform="matrix(-0.1431,0.24786,-0.24786,-0.1431,447.06259,179.26785)">
    <path d="m365,493.8622c0,32.861-26.6391,59.5-59.5,59.5s-59.5-26.6391-59.5-59.5 26.6391-59.5 59.5-59.5 59.5,26.6391 59.5,59.5z" fill="#e4e4e4" transform="translate(83.5,258.5)"/>
    <path d="m365,493.8622c0,32.861-26.6391,59.5-59.5,59.5s-59.5-26.6391-59.5-59.5 26.6391-59.5 59.5-59.5 59.5,26.6391 59.5,59.5z" fill="url(#radialGradient3556)" transform="translate(83.5,258.5)"/>
    <path d="m182,717.3622c0,10.4934-7.3873,19-16.5,19s-16.5-8.5066-16.5-19 7.3873-19 16.5-19 16.5,8.5066 16.5,19z" fill="#fff" filter="url(#filter961-8-4-8)" opacity=".8" transform="matrix(0.76542,0,0,0.71734,232.82226,244.26796)"/>
    </g>
    <g transform="matrix(-0.1431,0.24786,-0.24786,-0.1431,418.4808,228.20056)">
    <path d="m365,493.8622c0,32.861-26.6391,59.5-59.5,59.5s-59.5-26.6391-59.5-59.5 26.6391-59.5 59.5-59.5 59.5,26.6391 59.5,59.5z" fill="#e4e4e4" transform="translate(83.5,258.5)"/>
    <path d="m365,493.8622c0,32.861-26.6391,59.5-59.5,59.5s-59.5-26.6391-59.5-59.5 26.6391-59.5 59.5-59.5 59.5,26.6391 59.5,59.5z" fill="url(#radialGradient3556)" transform="translate(83.5,258.5)"/>
    <path d="m182,717.3622c0,10.4934-7.3873,19-16.5,19s-16.5-8.5066-16.5-19 7.3873-19 16.5-19 16.5,8.5066 16.5,19z" fill="#fff" filter="url(#filter961-8-4-8)" opacity=".8" transform="matrix(0.76542,0,0,0.71734,232.82226,244.26796)"/>
    </g>
    <g transform="matrix(-0.1431,0.24786,-0.24786,-0.1431,408.88664,190.43988)">
    <path d="m365,493.8622c0,32.861-26.6391,59.5-59.5,59.5s-59.5-26.6391-59.5-59.5 26.6391-59.5 59.5-59.5 59.5,26.6391 59.5,59.5z" fill="#e4e4e4" transform="translate(83.5,258.5)"/>
    <path d="m365,493.8622c0,32.861-26.6391,59.5-59.5,59.5s-59.5-26.6391-59.5-59.5 26.6391-59.5 59.5-59.5 59.5,26.6391 59.5,59.5z" fill="url(#radialGradient3556)" transform="translate(83.5,258.5)"/>
    <path d="m182,717.3622c0,10.4934-7.3873,19-16.5,19s-16.5-8.5066-16.5-19 7.3873-19 16.5-19 16.5,8.5066 16.5,19z" fill="#fff" filter="url(#filter961-8-4-8)" opacity=".8" transform="matrix(0.76542,0,0,0.71734,232.82226,244.26796)"/>
    </g>
    <g transform="matrix(-0.1431,0.24786,-0.24786,-0.1431,456.55199,216.63758)">
    <path d="m365,493.8622c0,32.861-26.6391,59.5-59.5,59.5s-59.5-26.6391-59.5-59.5 26.6391-59.5 59.5-59.5 59.5,26.6391 59.5,59.5z" fill="#e4e4e4" transform="translate(83.5,258.5)"/>
    <path d="m365,493.8622c0,32.861-26.6391,59.5-59.5,59.5s-59.5-26.6391-59.5-59.5 26.6391-59.5 59.5-59.5 59.5,26.6391 59.5,59.5z" fill="url(#radialGradient3556)" transform="translate(83.5,258.5)"/>
    <path d="m182,717.3622c0,10.4934-7.3873,19-16.5,19s-16.5-8.5066-16.5-19 7.3873-19 16.5-19 16.5,8.5066 16.5,19z" fill="#fff" filter="url(#filter961-8-4-8)" opacity=".8" transform="matrix(0.76542,0,0,0.71734,232.82226,244.26796)"/>
    </g>
    <path d="m365,493.8622c0,32.861-26.6391,59.5-59.5,59.5s-59.5-26.6391-59.5-59.5 26.6391-59.5 59.5-59.5 59.5,26.6391 59.5,59.5z" fill="#ed1d1d" transform="matrix(-0.1431,0.24786,-0.24786,-0.1431,357.92446,187.12452)"/>
    <path d="m365,493.8622c0,32.861-26.6391,59.5-59.5,59.5s-59.5-26.6391-59.5-59.5 26.6391-59.5 59.5-59.5 59.5,26.6391 59.5,59.5z" fill="url(#radialGradient3556)" transform="matrix(-0.1431,0.24786,-0.24786,-0.1431,357.92446,187.12452)"/>
    <path d="m182,717.3622c0,10.4934-7.3873,19-16.5,19s-16.5-8.5066-16.5-19 7.3873-19 16.5-19 16.5,8.5066 16.5,19z" fill="#fff" filter="url(#filter961-8-4-8)" opacity=".8" transform="matrix(-0.10953,0.18972,-0.1778,-0.10265,340.40327,226.19097)"/>
    <path d="m1095.9571,435.8053c156.4961,133.5371 175.1081,368.6556 41.571,525.1517s-368.6556,175.1081-525.1518,41.571-175.1081-368.6556-41.571-525.1518c70.9671-83.1684 174.8886-130.9605 284.2195-130.7086" fill="none" filter="url(#filter1535)" stroke="#1414b8" stroke-width="3.4732" transform="matrix(-0.20359,0.20359,-0.44621,0.03904,683.45813,-8.49669)"/>
    <path d="m1220.5775,652.0892c37.0458,202.3631-96.9702,396.4424-299.3333,433.4883s-396.4424-96.9702-433.4883-299.3333 96.9702-396.4424 299.3333-433.4883c21.8435-3.9988 44.0008-6.0363 66.2072-6.0882" fill="none" stroke="#1414b8" stroke-width="3.4732" transform="matrix(-0.20359,0.20359,-0.44621,0.03904,683.45813,-8.49669)"/>
    <path d="m1179.3961,900.7763c-100.3002,179.6193-327.2198,243.9201-506.839,143.6198s-243.9201-327.2198-143.6199-506.839c66.2868-118.7076 191.9842-191.8705 327.9418-190.8805" fill="none" filter="url(#filter1531)" stroke="#1414b8" stroke-width="3.4732" transform="matrix(-0.20359,0.20359,-0.44621,0.03904,683.45813,-8.49669)"/>
    <path d="m985.1636,1067.873c-192.5852,72.3475-407.3556-25.1243-479.7032-217.7094s25.1242-407.3556 217.7094-479.7032c42.1813-15.8461 86.8877-23.9075 131.9471-23.7925" fill="none" stroke="#1414b8" stroke-width="6.9464" transform="matrix(-0.20359,0.20359,-0.44621,0.03904,683.45813,-8.49669)"/>
    <path d="m725.6058,1068.7784c-193.0852-71.0022-292.053-285.0874-221.0508-478.1726 53.7663-146.2133 192.8412-243.5256 348.6263-243.9378" fill="none" filter="url(#filter1527)" stroke="#1414b8" stroke-width="5.2098" transform="matrix(-0.20359,0.20359,-0.44621,0.03904,683.45813,-8.49669)"/>
    <path d="m529.996,902.6595c-101.3403-179.0345-38.3567-406.3232 140.6778-507.6635 56.25-31.8396 119.817-48.4947 184.4529-48.3281" fill="none" stroke="#1414b8" stroke-width="10.4197" transform="matrix(-0.20359,0.20359,-0.44621,0.03904,683.45813,-8.49669)"/>
    <path d="m488.0956,650.2592c33.2142-176.4506 187.5746-304.0982 367.1233-303.591" fill="none" filter="url(#filter1523)" stroke="#1414b8" stroke-width="6.9464" transform="matrix(-0.20359,0.20359,-0.44621,0.03904,683.45813,-8.49669)"/>
    <path d="m617.8286,431.2421c66.8552-54.877 150.7235-84.7784 237.2166-84.5744" fill="none" stroke="#1414b8" stroke-width="13.8929" transform="matrix(-0.20359,0.20359,-0.44621,0.03904,683.45813,-8.49669)"/>
    <g transform="matrix(0.15126,0,0,0.15126,269.32332,64.2969)">
    <path d="m365,493.8622c0,32.861-26.6391,59.5-59.5,59.5s-59.5-26.6391-59.5-59.5 26.6391-59.5 59.5-59.5 59.5,26.6391 59.5,59.5z" fill="#1d28ed" transform="translate(275.75,261)"/>
    <path d="m365,493.8622c0,32.861-26.6391,59.5-59.5,59.5s-59.5-26.6391-59.5-59.5 26.6391-59.5 59.5-59.5 59.5,26.6391 59.5,59.5z" fill="url(#radialGradient3556)" transform="translate(275.75,261)"/>
    <path d="m182,717.3622c0,10.4934-7.3873,19-16.5,19s-16.5-8.5066-16.5-19 7.3873-19 16.5-19 16.5,8.5066 16.5,19z" fill="#fff" filter="url(#filter961-8-4-8)" opacity=".8" transform="matrix(0.76542,0,0,0.71734,424.32226,249.26796)"/>
    </g>
    <path d="m1095.9571,435.8053c156.4961,133.5371 175.1081,368.6556 41.571,525.1517s-368.6556,175.1081-525.1518,41.571-175.1081-368.6556-41.571-525.1518c70.9671-83.1684 174.8886-130.9605 284.2195-130.7086" fill="none" filter="url(#filter1535)" stroke="#1414b8" stroke-width="3.4732" transform="matrix(-0.07452,0.27811,-0.36691,0.25691,516.2131,-228.4328)"/>
    <path d="m1220.5775,652.0892c37.0458,202.3631-96.9702,396.4424-299.3333,433.4883s-396.4424-96.9702-433.4883-299.3333 96.9702-396.4424 299.3333-433.4883c21.8435-3.9988 44.0008-6.0363 66.2072-6.0882" fill="none" stroke="#1414b8" stroke-width="3.4732" transform="matrix(-0.07452,0.27811,-0.36691,0.25691,516.2131,-228.4328)"/>
    <path d="m1179.3961,900.7763c-100.3002,179.6193-327.2198,243.9201-506.839,143.6198s-243.9201-327.2198-143.6199-506.839c66.2868-118.7076 191.9842-191.8705 327.9418-190.8805" fill="none" filter="url(#filter1531)" stroke="#1414b8" stroke-width="3.4732" transform="matrix(-0.07452,0.27811,-0.36691,0.25691,516.2131,-228.4328)"/>
    <path d="m985.1636,1067.873c-192.5852,72.3475-407.3556-25.1243-479.7032-217.7094s25.1242-407.3556 217.7094-479.7032c42.1813-15.8461 86.8877-23.9075 131.9471-23.7925" fill="none" stroke="#1414b8" stroke-width="6.9464" transform="matrix(-0.07452,0.27811,-0.36691,0.25691,516.2131,-228.4328)"/>
    <path d="m725.6058,1068.7784c-193.0852-71.0022-292.053-285.0874-221.0508-478.1726 53.7663-146.2133 192.8412-243.5256 348.6263-243.9378" fill="none" filter="url(#filter1527)" stroke="#1414b8" stroke-width="5.2098" transform="matrix(-0.07452,0.27811,-0.36691,0.25691,516.2131,-228.4328)"/>
    <path d="m529.996,902.6595c-101.3403-179.0345-38.3567-406.3232 140.6778-507.6635 56.25-31.8396 119.817-48.4947 184.4529-48.3281" fill="none" stroke="#1414b8" stroke-width="10.4197" transform="matrix(-0.07452,0.27811,-0.36691,0.25691,516.2131,-228.4328)"/>
    <path d="m488.0956,650.2592c33.2142-176.4506 187.5746-304.0982 367.1233-303.591" fill="none" filter="url(#filter1523)" stroke="#1414b8" stroke-width="6.9464" transform="matrix(-0.07452,0.27811,-0.36691,0.25691,516.2131,-228.4328)"/>
    <path d="m617.8286,431.2421c66.8552-54.877 150.7235-84.7784 237.2166-84.5744" fill="none" stroke="#1414b8" stroke-width="13.8929" transform="matrix(-0.07452,0.27811,-0.36691,0.25691,516.2131,-228.4328)"/>
    <g transform="matrix(0.15126,0,0,0.15126,238.89305,-19.47875)">
    <path d="m365,493.8622c0,32.861-26.6391,59.5-59.5,59.5s-59.5-26.6391-59.5-59.5 26.6391-59.5 59.5-59.5 59.5,26.6391 59.5,59.5z" fill="#1d28ed" transform="translate(275.75,261)"/>
    <path d="m365,493.8622c0,32.861-26.6391,59.5-59.5,59.5s-59.5-26.6391-59.5-59.5 26.6391-59.5 59.5-59.5 59.5,26.6391 59.5,59.5z" fill="url(#radialGradient3556)" transform="translate(275.75,261)"/>
    <path d="m182,717.3622c0,10.4934-7.3873,19-16.5,19s-16.5-8.5066-16.5-19 7.3873-19 16.5-19 16.5,8.5066 16.5,19z" fill="#fff" filter="url(#filter961-8-4-8)" opacity=".8" transform="matrix(0.76542,0,0,0.71734,424.32226,249.26796)"/>
    </g>
    <path d="m1095.9571,435.8053c156.4961,133.5371 175.1081,368.6556 41.571,525.1517s-368.6556,175.1081-525.1518,41.571-175.1081-368.6556-41.571-525.1518c70.9671-83.1684 174.8886-130.9605 284.2195-130.7086" fill="none" filter="url(#filter1535)" stroke="#1414b8" stroke-width="3.4732" transform="matrix(0.07452,0.27811,-0.1893,0.40595,262.03314,-336.62922)"/>
    <path d="m1220.5775,652.0892c37.0458,202.3631-96.9702,396.4424-299.3333,433.4883s-396.4424-96.9702-433.4883-299.3333 96.9702-396.4424 299.3333-433.4883c21.8435-3.9988 44.0008-6.0363 66.2072-6.0882" fill="none" stroke="#1414b8" stroke-width="3.4732" transform="matrix(0.07452,0.27811,-0.1893,0.40595,262.03314,-336.62922)"/>
    <path d="m1179.3961,900.7763c-100.3002,179.6193-327.2198,243.9201-506.839,143.6198s-243.9201-327.2198-143.6199-506.839c66.2868-118.7076 191.9842-191.8705 327.9418-190.8805" fill="none" filter="url(#filter1531)" stroke="#1414b8" stroke-width="3.4732" transform="matrix(0.07452,0.27811,-0.1893,0.40595,262.03314,-336.62922)"/>
    <path d="m985.1636,1067.873c-192.5852,72.3475-407.3556-25.1243-479.7032-217.7094s25.1242-407.3556 217.7094-479.7032c42.1813-15.8461 86.8877-23.9075 131.9471-23.7925" fill="none" stroke="#1414b8" stroke-width="6.9464" transform="matrix(0.07452,0.27811,-0.1893,0.40595,262.03314,-336.62922)"/>
    <path d="m725.6058,1068.7784c-193.0852-71.0022-292.053-285.0874-221.0508-478.1726 53.7663-146.2133 192.8412-243.5256 348.6263-243.9378" fill="none" filter="url(#filter1527)" stroke="#1414b8" stroke-width="5.2098" transform="matrix(0.07452,0.27811,-0.1893,0.40595,262.03314,-336.62922)"/>
    <path d="m529.996,902.6595c-101.3403-179.0345-38.3567-406.3232 140.6778-507.6635 56.25-31.8396 119.817-48.4947 184.4529-48.3281" fill="none" stroke="#1414b8" stroke-width="10.4197" transform="matrix(0.07452,0.27811,-0.1893,0.40595,262.03314,-336.62922)"/>
    <path d="m488.0956,650.2592c33.2142-176.4506 187.5746-304.0982 367.1233-303.591" fill="none" filter="url(#filter1523)" stroke="#1414b8" stroke-width="6.9464" transform="matrix(0.07452,0.27811,-0.1893,0.40595,262.03314,-336.62922)"/>
    <path d="m617.8286,431.2421c66.8552-54.877 150.7235-84.7784 237.2166-84.5744" fill="none" stroke="#1414b8" stroke-width="13.8929" transform="matrix(0.07452,0.27811,-0.1893,0.40595,262.03314,-336.62922)"/>
    <g transform="matrix(0.15126,0,0,0.15126,171.38189,-73.89727)">
    <path d="m365,493.8622c0,32.861-26.6391,59.5-59.5,59.5s-59.5-26.6391-59.5-59.5 26.6391-59.5 59.5-59.5 59.5,26.6391 59.5,59.5z" fill="#1d28ed" transform="translate(275.75,261)"/>
    <path d="m365,493.8622c0,32.861-26.6391,59.5-59.5,59.5s-59.5-26.6391-59.5-59.5 26.6391-59.5 59.5-59.5 59.5,26.6391 59.5,59.5z" fill="url(#radialGradient3556)" transform="translate(275.75,261)"/>
    <path d="m182,717.3622c0,10.4934-7.3873,19-16.5,19s-16.5-8.5066-16.5-19 7.3873-19 16.5-19 16.5,8.5066 16.5,19z" fill="#fff" filter="url(#filter961-8-4-8)" opacity=".8" transform="matrix(0.76542,0,0,0.71734,424.32226,249.26796)"/>
    </g>
    <path d="m1095.9571,435.8053c156.4961,133.5371 175.1081,368.6556 41.571,525.1517s-368.6556,175.1081-525.1518,41.571-175.1081-368.6556-41.571-525.1518c70.9671-83.1684 174.8886-130.9605 284.2195-130.7086" fill="none" filter="url(#filter1535)" stroke="#1414b8" stroke-width="3.4732" transform="matrix(0.20359,0.20359,0.03904,0.44621,-12.04519,-302.10715)"/>
    <path d="m1220.5775,652.0892c37.0458,202.3631-96.9702,396.4424-299.3333,433.4883s-396.4424-96.9702-433.4883-299.3333 96.9702-396.4424 299.3333-433.4883c21.8435-3.9988 44.0008-6.0363 66.2072-6.0882" fill="none" stroke="#1414b8" stroke-width="3.4732" transform="matrix(0.20359,0.20359,0.03904,0.44621,-12.04519,-302.10715)"/>
    <path d="m1179.3961,900.7763c-100.3002,179.6193-327.2198,243.9201-506.839,143.6198s-243.9201-327.2198-143.6199-506.839c66.2868-118.7076 191.9842-191.8705 327.9418-190.8805" fill="none" filter="url(#filter1531)" stroke="#1414b8" stroke-width="3.4732" transform="matrix(0.20359,0.20359,0.03904,0.44621,-12.04519,-302.10715)"/>
    <path d="m985.1636,1067.873c-192.5852,72.3475-407.3556-25.1243-479.7032-217.7094s25.1242-407.3556 217.7094-479.7032c42.1813-15.8461 86.8877-23.9075 131.9471-23.7925" fill="none" stroke="#1414b8" stroke-width="6.9464" transform="matrix(0.20359,0.20359,0.03904,0.44621,-12.04519,-302.10715)"/>
    <path d="m725.6058,1068.7784c-193.0852-71.0022-292.053-285.0874-221.0508-478.1726 53.7663-146.2133 192.8412-243.5256 348.6263-243.9378" fill="none" filter="url(#filter1527)" stroke="#1414b8" stroke-width="5.2098" transform="matrix(0.20359,0.20359,0.03904,0.44621,-12.04519,-302.10715)"/>
    <path d="m529.996,902.6595c-101.3403-179.0345-38.3567-406.3232 140.6778-507.6635 56.25-31.8396 119.817-48.4947 184.4529-48.3281" fill="none" stroke="#1414b8" stroke-width="10.4197" transform="matrix(0.20359,0.20359,0.03904,0.44621,-12.04519,-302.10715)"/>
    <path d="m488.0956,650.2592c33.2142-176.4506 187.5746-304.0982 367.1233-303.591" fill="none" filter="url(#filter1523)" stroke="#1414b8" stroke-width="6.9464" transform="matrix(0.20359,0.20359,0.03904,0.44621,-12.04519,-302.10715)"/>
    <path d="m617.8286,431.2421c66.8552-54.877 150.7235-84.7784 237.2166-84.5744" fill="none" stroke="#1414b8" stroke-width="13.8929" transform="matrix(0.20359,0.20359,0.03904,0.44621,-12.04519,-302.10715)"/>
    <g transform="matrix(0.15126,0,0,0.15126,84.97956,-89.71708)">
    <path d="m365,493.8622c0,32.861-26.6391,59.5-59.5,59.5s-59.5-26.6391-59.5-59.5 26.6391-59.5 59.5-59.5 59.5,26.6391 59.5,59.5z" fill="#1d28ed" transform="translate(275.75,261)"/>
    <path d="m365,493.8622c0,32.861-26.6391,59.5-59.5,59.5s-59.5-26.6391-59.5-59.5 26.6391-59.5 59.5-59.5 59.5,26.6391 59.5,59.5z" fill="url(#radialGradient3556)" transform="translate(275.75,261)"/>
    <path d="m182,717.3622c0,10.4934-7.3873,19-16.5,19s-16.5-8.5066-16.5-19 7.3873-19 16.5-19 16.5,8.5066 16.5,19z" fill="#fff" filter="url(#filter961-8-4-8)" opacity=".8" transform="matrix(0.76542,0,0,0.71734,424.32226,249.26796)"/>
    </g>
    <path d="m1095.9571,435.8053c156.4961,133.5371 175.1081,368.6556 41.571,525.1517s-368.6556,175.1081-525.1518,41.571-175.1081-368.6556-41.571-525.1518c70.9671-83.1684 174.8886-130.9605 284.2195-130.7086" fill="none" filter="url(#filter1535)" stroke="#1414b8" stroke-width="3.4732" transform="matrix(0.27811,0.07452,0.25691,0.36691,-232.01727,-134.99647)"/>
    <path d="m1220.5775,652.0892c37.0458,202.3631-96.9702,396.4424-299.3333,433.4883s-396.4424-96.9702-433.4883-299.3333 96.9702-396.4424 299.3333-433.4883c21.8435-3.9988 44.0008-6.0363 66.2072-6.0882" fill="none" stroke="#1414b8" stroke-width="3.4732" transform="matrix(0.27811,0.07452,0.25691,0.36691,-232.01727,-134.99647)"/>
    <path d="m1179.3961,900.7763c-100.3002,179.6193-327.2198,243.9201-506.839,143.6198s-243.9201-327.2198-143.6199-506.839c66.2868-118.7076 191.9842-191.8705 327.9418-190.8805" fill="none" filter="url(#filter1531)" stroke="#1414b8" stroke-width="3.4732" transform="matrix(0.27811,0.07452,0.25691,0.36691,-232.01727,-134.99647)"/>
    <path d="m985.1636,1067.873c-192.5852,72.3475-407.3556-25.1243-479.7032-217.7094s25.1242-407.3556 217.7094-479.7032c42.1813-15.8461 86.8877-23.9075 131.9471-23.7925" fill="none" stroke="#1414b8" stroke-width="6.9464" transform="matrix(0.27811,0.07452,0.25691,0.36691,-232.01727,-134.99647)"/>
    <path d="m725.6058,1068.7784c-193.0852-71.0022-292.053-285.0874-221.0508-478.1726 53.7663-146.2133 192.8412-243.5256 348.6263-243.9378" fill="none" filter="url(#filter1527)" stroke="#1414b8" stroke-width="5.2098" transform="matrix(0.27811,0.07452,0.25691,0.36691,-232.01727,-134.99647)"/>
    <path d="m529.996,902.6595c-101.3403-179.0345-38.3567-406.3232 140.6778-507.6635 56.25-31.8396 119.817-48.4947 184.4529-48.3281" fill="none" stroke="#1414b8" stroke-width="10.4197" transform="matrix(0.27811,0.07452,0.25691,0.36691,-232.01727,-134.99647)"/>
    <path d="m488.0956,650.2592c33.2142-176.4506 187.5746-304.0982 367.1233-303.591" fill="none" filter="url(#filter1523)" stroke="#1414b8" stroke-width="6.9464" transform="matrix(0.27811,0.07452,0.25691,0.36691,-232.01727,-134.99647)"/>
    <path d="m617.8286,431.2421c66.8552-54.877 150.7235-84.7784 237.2166-84.5744" fill="none" stroke="#1414b8" stroke-width="13.8929" transform="matrix(0.27811,0.07452,0.25691,0.36691,-232.01727,-134.99647)"/>
    <g transform="matrix(0.15126,0,0,0.15126,4.72978,-57.16252)">
    <path d="m365,493.8622c0,32.861-26.6391,59.5-59.5,59.5s-59.5-26.6391-59.5-59.5 26.6391-59.5 59.5-59.5 59.5,26.6391 59.5,59.5z" fill="#1d28ed" transform="translate(275.75,261)"/>
    <path d="m365,493.8622c0,32.861-26.6391,59.5-59.5,59.5s-59.5-26.6391-59.5-59.5 26.6391-59.5 59.5-59.5 59.5,26.6391 59.5,59.5z" fill="url(#radialGradient3556)" transform="translate(275.75,261)"/>
    <path d="m182,717.3622c0,10.4934-7.3873,19-16.5,19s-16.5-8.5066-16.5-19 7.3873-19 16.5-19 16.5,8.5066 16.5,19z" fill="#fff" filter="url(#filter961-8-4-8)" opacity=".8" transform="matrix(0.76542,0,0,0.71734,424.32226,249.26796)"/>
    </g>
    <path d="m1095.9571,435.8053c156.4961,133.5371 175.1081,368.6556 41.571,525.1517s-368.6556,175.1081-525.1518,41.571-175.1081-368.6556-41.571-525.1518c70.9671-83.1684 174.8886-130.9605 284.2195-130.7086" fill="none" filter="url(#filter1535)" stroke="#1414b8" stroke-width="3.4732" transform="matrix(0.27811,-0.07452,0.40595,0.1893,-339.77917,119.32091)"/>
    <path d="m1220.5775,652.0892c37.0458,202.3631-96.9702,396.4424-299.3333,433.4883s-396.4424-96.9702-433.4883-299.3333 96.9702-396.4424 299.3333-433.4883c21.8435-3.9988 44.0008-6.0363 66.2072-6.0882" fill="none" stroke="#1414b8" stroke-width="3.4732" transform="matrix(0.27811,-0.07452,0.40595,0.1893,-339.77917,119.32091)"/>
    <path d="m1179.3961,900.7763c-100.3002,179.6193-327.2198,243.9201-506.839,143.6198s-243.9201-327.2198-143.6199-506.839c66.2868-118.7076 191.9842-191.8705 327.9418-190.8805" fill="none" filter="url(#filter1531)" stroke="#1414b8" stroke-width="3.4732" transform="matrix(0.27811,-0.07452,0.40595,0.1893,-339.77917,119.32091)"/>
    <path d="m985.1636,1067.873c-192.5852,72.3475-407.3556-25.1243-479.7032-217.7094s25.1242-407.3556 217.7094-479.7032c42.1813-15.8461 86.8877-23.9075 131.9471-23.7925" fill="none" stroke="#1414b8" stroke-width="6.9464" transform="matrix(0.27811,-0.07452,0.40595,0.1893,-339.77917,119.32091)"/>
    <path d="m725.6058,1068.7784c-193.0852-71.0022-292.053-285.0874-221.0508-478.1726 53.7663-146.2133 192.8412-243.5256 348.6263-243.9378" fill="none" filter="url(#filter1527)" stroke="#1414b8" stroke-width="5.2098" transform="matrix(0.27811,-0.07452,0.40595,0.1893,-339.77917,119.32091)"/>
    <path d="m529.996,902.6595c-101.3403-179.0345-38.3567-406.3232 140.6778-507.6635 56.25-31.8396 119.817-48.4947 184.4529-48.3281" fill="none" stroke="#1414b8" stroke-width="10.4197" transform="matrix(0.27811,-0.07452,0.40595,0.1893,-339.77917,119.32091)"/>
    <path d="m488.0956,650.2592c33.2142-176.4506 187.5746-304.0982 367.1233-303.591" fill="none" filter="url(#filter1523)" stroke="#1414b8" stroke-width="6.9464" transform="matrix(0.27811,-0.07452,0.40595,0.1893,-339.77917,119.32091)"/>
    <path d="m617.8286,431.2421c66.8552-54.877 150.7235-84.7784 237.2166-84.5744" fill="none" stroke="#1414b8" stroke-width="13.8929" transform="matrix(0.27811,-0.07452,0.40595,0.1893,-339.77917,119.32091)"/>
    <g transform="matrix(0.15126,0,0,0.15126,-50.487,8.22048)">
    <path d="m365,493.8622c0,32.861-26.6391,59.5-59.5,59.5s-59.5-26.6391-59.5-59.5 26.6391-59.5 59.5-59.5 59.5,26.6391 59.5,59.5z" fill="#1d28ed" transform="translate(275.75,261)"/>
    <path d="m365,493.8622c0,32.861-26.6391,59.5-59.5,59.5s-59.5-26.6391-59.5-59.5 26.6391-59.5 59.5-59.5 59.5,26.6391 59.5,59.5z" fill="url(#radialGradient3556)" transform="translate(275.75,261)"/>
    <path d="m182,717.3622c0,10.4934-7.3873,19-16.5,19s-16.5-8.5066-16.5-19 7.3873-19 16.5-19 16.5,8.5066 16.5,19z" fill="#fff" filter="url(#filter961-8-4-8)" opacity=".8" transform="matrix(0.76542,0,0,0.71734,424.32226,249.26796)"/>
    </g>
    </svg>