<?xml version="1.0" encoding="UTF-8"?>
<svg version="1.1" xmlns="http://www.w3.org/2000/svg" width="52" height="52">
<path d="M0 0 C0.78632813 -0.02900391 1.57265625 -0.05800781 2.3828125 -0.08789062 C9.52421553 -0.1649988 13.59819591 1.90737536 18.9375 6.75 C24.854155 13.30629337 26.45602744 17.23237595 26.5625 26.0625 C26.59150391 26.84882813 26.62050781 27.63515625 26.65039062 28.4453125 C26.7274988 35.58671553 24.65512464 39.66069591 19.8125 45 C13.25620663 50.916655 9.33012405 52.51852744 0.5 52.625 C-0.67949219 52.66850586 -0.67949219 52.66850586 -1.8828125 52.71289062 C-9.02421553 52.7899988 -13.09819591 50.71762464 -18.4375 45.875 C-24.354155 39.31870663 -25.95602744 35.39262405 -26.0625 26.5625 C-26.09150391 25.77617187 -26.12050781 24.98984375 -26.15039062 24.1796875 C-26.2274988 17.03828447 -24.15512464 12.96430409 -19.3125 7.625 C-12.75620663 1.708345 -8.83012405 0.10647256 0 0 Z " fill="#DD4C19" transform="translate(25.75,-0.3125)"/>
<path d="M0 0 C0.66 0.99 1.32 1.98 2 3 C4.25490545 3.61505082 4.25490545 3.61505082 6.8125 3.875 C11.60446333 4.70024405 14.04207759 5.95750604 17 10 C17 10.99 17 11.98 17 13 C18.65 13 20.3 13 22 13 C22 13.66 22 14.32 22 15 C20.35 15 18.7 15 17 15 C16.95875 15.556875 16.9175 16.11375 16.875 16.6875 C15.55531708 20.17523342 13.17773634 22.21039688 10 24 C7.89453125 24.43359375 7.89453125 24.43359375 5.75 24.625 C4.5125 24.74875 3.275 24.8725 2 25 C1.34 25.99 0.68 26.98 0 28 C-0.66 27.34 -1.32 26.68 -2 26 C-1.34 25.34 -0.68 24.68 0 24 C-0.38878188 20.98694043 -1.26456874 19.60314689 -3 17 C-3.4516129 10.67741935 -3.4516129 10.67741935 -1 7 C-0.34 7 0.32 7 1 7 C0.01 5.02 -0.98 3.04 -2 1 C-1.34 0.67 -0.68 0.34 0 0 Z " fill="#DE5020" transform="translate(19,12)"/>
<path d="M0 0 C1.32 0.66 2.64 1.32 4 2 C4 2.99 4 3.98 4 5 C3.505 5.4125 3.01 5.825 2.5 6.25 C0.66659859 8.05568943 0.66659859 8.05568943 0.625 11.4375 C1.02242616 15.21304849 1.73884162 16.14897421 4 19 C3.6875 21.25 3.6875 21.25 3 23 C-1 23 -1 23 -2.72265625 21.43359375 C-4.42298564 18.19412828 -4.4336077 15.7095875 -4.4375 12.0625 C-4.45683594 10.85722656 -4.47617188 9.65195312 -4.49609375 8.41015625 C-3.92404987 4.47791758 -2.71392643 2.83215688 0 0 Z " fill="#FBEEEC" transform="translate(16,14)"/>
<path d="M0 0 C1.65 0 3.3 0 5 0 C4.5020163 3.73487777 4.12508244 5.81237635 2 9 C0 9.66666667 -2 10.33333333 -4 11 C-4.99 12.485 -4.99 12.485 -6 14 C-8.1640625 14.29296875 -8.1640625 14.29296875 -10.625 14.1875 C-11.44226563 14.16042969 -12.25953125 14.13335937 -13.1015625 14.10546875 C-13.72804688 14.07066406 -14.35453125 14.03585938 -15 14 C-15.5625 12.0625 -15.5625 12.0625 -16 10 C-14.39507663 8.39507663 -12.39192733 8.53284952 -10.1875 8.1875 C-5.97956455 7.38198093 -3.54649486 6.65366654 -1 3 C-0.67 2.01 -0.34 1.02 0 0 Z " fill="#FBEEEC" transform="translate(36,27)"/>
<path d="M0 0 C2.48046875 0.01953125 2.48046875 0.01953125 4.625 0.3125 C6.3125 2.1875 6.3125 2.1875 7.625 4.3125 C8.635625 4.6425 9.64625 4.9725 10.6875 5.3125 C13.625 6.3125 13.625 6.3125 15 8.1875 C15.625 10.3125 15.625 10.3125 15.625 14.3125 C13.975 14.3125 12.325 14.3125 10.625 14.3125 C10.2846875 13.1678125 10.2846875 13.1678125 9.9375 12 C8.2797067 8.60547087 7.07645578 7.81313295 3.625 6.3125 C0.94555971 5.80047338 -1.64872308 5.54354042 -4.375 5.3125 C-4.9375 3.375 -4.9375 3.375 -5.375 1.3125 C-3.79602167 -0.26647833 -2.18137428 0.06706491 0 0 Z " fill="#FBEFEC" transform="translate(25.375,10.6875)"/>
<path d="M0 0 C1.2065625 0.0309375 1.2065625 0.0309375 2.4375 0.0625 C2.81968767 1.71864657 3.15145102 3.38707024 3.4375 5.0625 C2.4375 6.0625 2.4375 6.0625 -0.125 6.125 C-1.3315625 6.0940625 -1.3315625 6.0940625 -2.5625 6.0625 C-2.94468767 4.40635343 -3.27645102 2.73792976 -3.5625 1.0625 C-2.5625 0.0625 -2.5625 0.0625 0 0 Z " fill="#FBEEEC" transform="translate(8.5625,22.9375)"/>
<path d="M0 0 C1.67542976 0.28604898 3.34385343 0.61781233 5 1 C4.67 2.65 4.34 4.3 4 6 C2.0625 6.5625 2.0625 6.5625 0 7 C-1 6 -1 6 -1.125 3.5 C-1 1 -1 1 0 0 Z " fill="#FCF3F1" transform="translate(33,38)"/>
<path d="M0 0 C2.0625 0.4375 2.0625 0.4375 4 1 C4.33 2.65 4.66 4.3 5 6 C3.34385343 6.38218767 1.67542976 6.71395102 0 7 C-1 6 -1 6 -1.125 3.5 C-1 1 -1 1 0 0 Z " fill="#FCF3F2" transform="translate(33,7)"/>
<path d="M0 0 C0.66 0.99 1.32 1.98 2 3 C3.96361864 3.57748803 3.96361864 3.57748803 6.125 3.6875 C7.40375 3.790625 8.6825 3.89375 10 4 C10 4.33 10 4.66 10 5 C8.3603125 5.4021875 8.3603125 5.4021875 6.6875 5.8125 C3.26833673 6.91358648 2.22408019 7.42474926 0 10 C-0.66 10 -1.32 10 -2 10 C-1.67 9.01 -1.34 8.02 -1 7 C-0.34 7 0.32 7 1 7 C0.01 5.02 -0.98 3.04 -2 1 C-1.34 0.67 -0.68 0.34 0 0 Z " fill="#E37351" transform="translate(19,12)"/>
</svg>
