<?xml version="1.0" encoding="UTF-8"?>
<!DOCTYPE svg PUBLIC "-//W3C//DTD SVG 1.1//EN" "http://www.w3.org/Graphics/SVG/1.1/DTD/svg11.dtd">
<!-- Creator: CorelDRAW 2021 (64-Bit) -->
<svg xmlns="http://www.w3.org/2000/svg" xml:space="preserve" width="2303px" height="2480px" version="1.1" style="shape-rendering:geometricPrecision; text-rendering:geometricPrecision; image-rendering:optimizeQuality; fill-rule:evenodd; clip-rule:evenodd"
viewBox="0 0 2303 2480.15"
 xmlns:xlink="http://www.w3.org/1999/xlink"
 xmlns:xodm="http://www.corel.com/coreldraw/odm/2003">
 <defs>
  <style type="text/css">
   <![CDATA[
    .str1 {stroke:#0075FF;stroke-width:59.05;stroke-linecap:round;stroke-linejoin:round;stroke-miterlimit:22.9256}
    .str0 {stroke:#0075FF;stroke-width:94.48;stroke-linecap:round;stroke-linejoin:round;stroke-miterlimit:22.9256}
    .fil1 {fill:none}
    .fil0 {fill:#666D80}
   ]]>
  </style>
 </defs>
 <g id="Layer_x0020_1">
  <metadata id="CorelCorpID_0Corel-Layer"/>
  <g id="_1683833870512">
   <path class="fil0" d="M176.39 2293.52c-11.09,-35.11 -4.41,-248.07 -4.78,-301.54 -1.09,-157.61 16.2,-151.39 165.96,-150.83l1527.69 0.05c78.96,0 236.83,-29.72 261.37,51.85 12.07,40.14 4.78,242.72 5.17,299.99 1.09,157.39 -16.61,151.4 -166.02,150.83l-1527.68 -0.04c-77.35,0 -236.51,29.47 -261.71,-50.31zm1699.19 -1473.86l1.24 -82.44c35.83,-2.47 23.39,-7.38 46.79,11.01 98.79,7.05 188.49,98.62 223.19,168.41 51.1,102.78 44.35,216.18 -11.16,310.39 -113.98,193.41 -342.46,166.52 -605.05,161.43 79.07,-78.47 122.02,-62.23 232.1,-232.69 52.59,-81.45 112.89,-217.76 112.89,-336.11zm-997.12 -74.57c29.01,-10.38 57.75,-25.53 94.92,-32.83 -8.83,-39.06 -43.1,-68.32 -66.66,-93.35 -90.72,-96.42 -172.14,-125.94 -304.79,-156.75 38.14,-86.43 109.56,-159.19 177.93,-208.85 269.91,-196.05 662.04,-129.98 835.05,79.29 300.35,363.32 157.28,842.35 -213.29,1004.93 -182.62,80.13 -504.03,51.5 -722.32,51.51 -197.16,0.01 -416.21,1.25 -523.9,-250.06 -102.79,-239.88 33.12,-449.46 185.99,-530.24 214.51,-113.36 470.06,-3.91 537.07,136.35zm222.6 744.82l0.38 250.41c-230.29,3.97 -463.25,0.48 -693.5,0.48 -124.08,0 -219.74,-20.06 -291.32,60.4 -65.18,73.26 -44.97,201.45 -44.97,311.41 0,130.48 -19.37,216.55 64.76,291.5 67.48,60.12 209.77,40.11 311.74,40.11l1397 0c100.88,0 247.95,20.26 316.55,-35.37 82.93,-67.25 70.06,-162.3 70.06,-286.19 0,-102.58 21.57,-246.29 -40.39,-316.06 -73.58,-82.84 -154.52,-65.8 -285.91,-65.8 -233.58,0.01 -469.93,3.55 -703.16,-0.48l-0.39 -250.41c193.53,-3.33 389.55,-0.79 582.95,-0.41 467.96,0.93 572.35,-373.93 446.98,-627.93 -68.05,-137.89 -172.8,-187.83 -363.4,-229.19 -97.69,-527.94 -683.91,-762.94 -1131.87,-472.58 -77.99,50.55 -176.04,157.8 -219.38,242.89 -30.82,60.54 -12.83,54.99 -90.67,70.54 -322.77,64.49 -521.73,433.28 -328.05,772.92 182.62,320.26 585.02,236.55 1002.59,243.76z"/>
   <path class="fil0" d="M1875.58 819.66c13.84,-31.14 9.93,-38.31 9.15,-78.42l38.88 6.99c-23.4,-18.39 -10.96,-13.48 -46.79,-11.01l-1.24 82.44z"/>
   <line class="fil1 str0" x1="1682.69" y1="2013.79" x2="1682.69" y2= "2194.86" />
   <line class="fil1 str0" x1="1846.86" y1="2013.79" x2="1846.86" y2= "2194.86" />
   <line class="fil1 str0" x1="438.47" y1="2093.39" x2="704.27" y2= "2093.39" />
   <circle class="fil0 str1" cx="437.48" cy="2099.59" r="86.51"/>
   <circle class="fil0 str1" cx="937.22" cy="763.26" r="131.07"/>
  </g>
 </g>
</svg>
